<svg width="76" height="76" viewBox="0 0 76 76" fill="none" xmlns="http://www.w3.org/2000/svg">
<g filter="url(#filter0_d_477_4331)">
<circle cx="38" cy="34" r="34" fill="url(#paint0_linear_477_4331)"/>
</g>
<mask id="mask0_477_4331" style="mask-type:alpha" maskUnits="userSpaceOnUse" x="4" y="0" width="68" height="68">
<circle cx="38" cy="34" r="34" fill="#D9D9D9"/>
</mask>
<g mask="url(#mask0_477_4331)">
<path d="M32.6014 36.9372C32.7825 36.399 32.7866 31.9027 32.7866 31.9027L42.6631 31.5781C42.6631 31.5781 41.8382 41.4006 41.9575 41.8649" fill="url(#paint1_linear_477_4331)"/>
<g style="mix-blend-mode:multiply" opacity="0.6">
<path d="M42.7372 33.4556C42.7372 33.4556 41.579 33.7802 41.2992 34.2793C41.0195 34.7784 39.2194 38.5333 37.8 38.5928C36.3805 38.6524 35.461 36.6559 34.741 36.1958C34.0209 35.7356 32.7167 35.7028 32.7167 35.7028L32.7866 31.9007L42.6631 31.5762L42.7393 33.4556H42.7372Z" fill="#8D307F"/>
</g>
<path style="mix-blend-mode:multiply" opacity="0.6" d="M35.9473 34.1623L36.3135 37.9048C36.3135 37.9048 35.433 36.9189 34.9825 36.2C34.532 35.481 33.6926 32.6649 33.6926 32.6649L35.9494 34.1623H35.9473Z" fill="url(#paint2_linear_477_4331)"/>
<path d="M30.79 24.1818C30.79 24.1818 29.9342 22.8816 29.3541 22.8837C29.0002 22.8837 28.1486 23.6252 28.1588 24.3318C28.1712 25.2766 29.0105 26.3509 29.2183 26.9035C29.4281 27.454 29.9692 28.1729 30.3292 28.2427C30.6892 28.3125 31.1582 27.6327 31.1582 27.6327C31.1582 27.6327 30.9833 25.0404 30.79 24.1818Z" fill="url(#paint3_linear_477_4331)"/>
<path style="mix-blend-mode:multiply" opacity="0.6" d="M30.7266 25.5663C30.7266 25.5663 29.3215 23.8347 28.8113 23.8347C28.3012 23.8347 28.3012 24.8207 28.5069 25.3814C28.6488 25.7696 28.9286 26.3325 28.9286 26.3325C28.9286 26.3325 28.7085 25.7286 28.6817 25.2767C28.6406 24.5803 28.7949 24.075 28.9718 24.0771C29.2948 24.0791 29.5499 24.5208 29.5889 24.6769C29.6301 24.833 29.3339 25.519 29.412 25.9976C29.4902 26.4762 29.7782 26.659 29.8728 26.6056C29.9695 26.5543 29.8214 26.0141 29.9078 25.823C29.9942 25.632 30.2472 25.3547 30.3954 25.4143C30.5435 25.4759 30.7266 25.5642 30.7266 25.5642V25.5663Z" fill="url(#paint4_linear_477_4331)"/>
<path style="mix-blend-mode:multiply" opacity="0.6" d="M30.7266 25.5664C30.7266 25.5664 30.381 25.3589 30.276 25.4267C30.1711 25.4924 29.9037 25.7327 29.8913 25.8827C29.8811 26.0326 29.9757 26.464 29.8913 26.5379C29.807 26.6119 29.5005 26.1292 29.4881 25.6999C29.4737 25.2726 29.7144 24.7776 29.7144 24.7201C29.7144 24.6626 29.6589 24.3873 29.6589 24.3873C29.6589 24.3873 30.4756 25.1576 30.7266 25.5643V25.5664Z" fill="url(#paint5_linear_477_4331)"/>
<path d="M44.2184 24.1816C44.2184 24.1816 45.0742 22.8814 45.6543 22.8834C46.0081 22.8834 46.8598 23.6249 46.8495 24.3315C46.8372 25.2764 45.9978 26.3507 45.7901 26.9032C45.5802 27.4537 45.0392 28.1726 44.6792 28.2425C44.3192 28.3123 43.8502 27.6324 43.8502 27.6324C43.8502 27.6324 44.025 25.0402 44.2184 24.1816Z" fill="url(#paint6_linear_477_4331)"/>
<path style="mix-blend-mode:multiply" opacity="0.6" d="M44.2824 25.566C44.2824 25.566 45.6875 23.8345 46.1976 23.8345C46.7078 23.8345 46.7078 24.8204 46.5021 25.3812C46.3602 25.7694 46.0804 26.3322 46.0804 26.3322C46.0804 26.3322 46.3005 25.7283 46.3272 25.2764C46.3684 24.5801 46.2141 24.0748 46.0372 24.0769C45.7142 24.0789 45.4591 24.5205 45.42 24.6766C45.3789 24.8327 45.6751 25.5188 45.5969 25.9974C45.5188 26.476 45.2308 26.6588 45.1361 26.6054C45.0394 26.554 45.1876 26.0138 45.1012 25.8228C45.0148 25.6318 44.7617 25.3545 44.6136 25.414C44.4655 25.4757 44.2824 25.564 44.2824 25.564V25.566Z" fill="url(#paint7_linear_477_4331)"/>
<path style="mix-blend-mode:multiply" opacity="0.6" d="M44.2824 25.5661C44.2824 25.5661 44.628 25.3587 44.733 25.4264C44.8379 25.4922 45.1053 25.7325 45.1177 25.8824C45.13 26.0324 45.0333 26.4637 45.1177 26.5377C45.202 26.6116 45.5085 26.1289 45.5209 25.6996C45.5353 25.2724 45.2946 24.7774 45.2946 24.7198C45.2946 24.6623 45.3501 24.3871 45.3501 24.3871C45.3501 24.3871 44.5334 25.1574 44.2824 25.5641V25.5661Z" fill="url(#paint8_linear_477_4331)"/>
<path d="M30.6007 24.2269C30.7077 25.3977 30.934 26.4905 30.9875 27.7147C31.041 28.9389 31.1418 29.9351 31.3331 30.3911C31.4195 30.5966 31.5717 30.8081 31.763 31.0238C32.3082 31.638 33.1742 32.2809 33.7605 32.8848C33.9827 33.1128 34.2131 33.3059 34.4291 33.4681C34.4291 33.4681 34.4312 33.4681 34.4332 33.4702C34.8694 33.7947 35.2582 33.9878 35.4413 34.0618C36.0008 34.2918 37.4511 34.2918 37.4511 34.2918C37.4511 34.2918 38.9014 34.2918 39.461 34.0618C39.7366 33.9488 40.4731 33.5708 41.1417 32.8848C41.835 32.172 42.917 31.4038 43.3984 30.6972C43.4704 30.5945 43.528 30.4918 43.5712 30.3911C43.7625 29.9351 43.8654 28.9389 43.9168 27.7147C43.9703 26.4905 44.1966 25.3977 44.3036 24.2269C44.4105 23.054 44.5422 18.9952 44.1966 18.0627C43.8489 17.1301 39.7428 14.6283 37.4491 14.6283C35.8403 14.6283 33.3347 15.8607 31.8679 16.9186C31.2446 17.3684 30.8064 17.7854 30.7036 18.0627C30.3559 18.9952 30.4896 23.0561 30.5966 24.2269H30.6007Z" fill="url(#paint9_linear_477_4331)"/>
<path d="M38.7279 13.2395C38.7279 13.2395 37.8165 12.7055 36.5061 12.7589C35.1936 12.8123 33.7063 13.5189 33.7063 13.5189L37.3084 15.4579L38.9336 14.8643L38.7299 13.2395H38.7279Z" fill="url(#paint10_linear_477_4331)"/>
<path d="M29.657 19.0176L30.0191 18.7587L30.6321 23.6782C30.6321 23.6782 30.4861 22.0144 30.7124 21.0942C30.9386 20.174 30.8852 18.3336 30.8852 18.3336C30.8852 18.3336 32.2696 16.6533 33.5595 16.2672C33.5595 16.2672 35.2484 16.4664 37.7849 16.5609C40.3214 16.6533 41.7779 16.6143 41.7779 16.6143C41.7779 16.6143 43.471 17.5469 44.0058 18.4814C44.0058 18.4814 43.9914 19.8946 44.0326 20.6403C44.0737 21.3859 44.4419 23.9411 44.4419 23.9411C44.4419 23.9411 44.4419 23.9309 44.444 23.9144C44.4646 23.594 44.6744 20.5704 44.8966 19.3216C44.9048 19.2764 44.913 19.2332 44.9192 19.188C44.9439 19.0278 44.9645 18.8676 44.9789 18.7074C44.9789 18.7033 44.9789 18.6992 44.9809 18.693C45.0344 18.1179 45.0282 17.5489 45.0118 17.1299C45.0118 17.1011 45.0097 17.0724 45.0077 17.0436C45.0056 17.0169 45.0036 16.9902 45.0036 16.9635C45.0036 16.9409 45.0015 16.9163 44.9994 16.8957C44.9994 16.8731 44.9974 16.8505 44.9953 16.83C44.9912 16.7807 44.9892 16.7334 44.985 16.6924C44.983 16.6698 44.9809 16.6472 44.9789 16.6287C44.9789 16.6246 44.9789 16.6205 44.9789 16.6184C44.9789 16.5979 44.9748 16.5814 44.9748 16.563C44.9706 16.526 44.9686 16.4972 44.9665 16.4787C44.9665 16.4726 44.9665 16.4685 44.9665 16.4664C44.9665 16.4541 44.9645 16.45 44.9645 16.45L44.9192 16.4644L44.6065 17.0683C44.6065 17.0683 44.6065 17.0683 44.6024 17.0621C44.6024 17.0621 44.5983 17.058 44.5962 17.0559C44.5962 17.0559 44.5942 17.0539 44.5921 17.0518C44.5859 17.0457 44.5798 17.0395 44.5715 17.0292C44.481 16.9224 44.191 16.5897 43.7754 16.1563C43.7528 16.1316 43.7302 16.107 43.7075 16.0844C43.7014 16.0761 43.6952 16.07 43.689 16.0638C43.652 16.0248 43.6067 15.9776 43.5553 15.9283C43.543 15.9159 43.5286 15.9016 43.5142 15.8872C43.113 15.4784 42.6234 15.0121 42.0968 14.5705C42.0927 14.5664 42.0906 14.5644 42.0865 14.5623C42.068 14.5479 42.0515 14.5315 42.0309 14.5171C41.8417 14.359 41.6483 14.2049 41.4508 14.0591C39.7886 12.8205 37.8857 12.1796 37.8857 12.1796H37.0238C37.0238 12.1796 38.0236 13.829 38.2437 14.8622C38.2149 14.7965 37.2439 12.652 36.4498 12.1796C36.4498 12.1796 35.6804 12.0789 34.8205 12.4795C34.8205 12.4795 36.2688 13.6975 36.6267 14.6588C36.5671 14.6095 34.1828 12.6171 32.4424 13.6585C32.4898 13.6482 32.9835 13.5538 33.4546 13.6092C33.4546 13.6092 32.9526 13.8187 32.1647 14.6999C32.0495 14.8293 31.9179 14.9875 31.78 15.1662C30.9736 16.2014 29.8771 17.9474 29.657 19.0176Z" fill="url(#paint11_linear_477_4331)"/>
<path d="M37.5469 16.5487C37.5469 16.5487 35.3436 12.1016 32.441 13.6607C32.441 13.6607 35.1955 13.447 37.1416 16.5322L37.5469 16.5507V16.5487Z" fill="url(#paint12_linear_477_4331)"/>
<path d="M36.4527 12.1816C36.4527 12.1816 38.228 14.0426 38.4893 16.5506H37.5491C37.5491 16.5506 37.3414 14.1042 35.4529 12.2638C35.4529 12.2638 35.8787 12.1816 36.4527 12.1816Z" fill="url(#paint13_linear_477_4331)"/>
<path d="M37.8875 12.1816C37.8875 12.1816 39.3029 14.1145 39.416 16.6061C39.416 16.6061 39.1486 14.3199 37.5481 12.1816H37.8875Z" fill="url(#paint14_linear_477_4331)"/>
<path d="M44.7693 17.0088C44.7693 17.0088 44.3126 17.7564 43.8827 18.2864L44.0082 18.4774V19.0176C44.0082 19.0176 44.6171 18.7301 44.9668 18.0543V16.448L44.7693 17.0108V17.0088Z" fill="url(#paint15_linear_477_4331)"/>
<path d="M42.3302 14.7492C42.3302 14.7492 43.0214 15.5688 43.1963 17.5818L42.8589 17.3147C42.8589 17.3147 42.9165 15.5996 41.8242 14.3405L42.3302 14.7492Z" fill="url(#paint16_linear_477_4331)"/>
<path d="M35.6464 16.4458C35.6464 16.4458 34.2784 14.7183 31.9599 14.6793L32.0792 14.8026L31.2523 14.9998C31.2523 14.9998 32.54 15.2729 33.5625 16.2651L35.6484 16.4458H35.6464Z" fill="url(#paint17_linear_477_4331)"/>
<g style="mix-blend-mode:multiply" opacity="0.6">
<path d="M35.4845 16.2651H33.5611C33.5611 16.2651 35.25 16.4643 37.7865 16.5588C40.323 16.6512 41.7795 16.6122 41.7795 16.6122C41.7795 16.6122 43.4725 17.5447 44.0074 18.4793C44.0074 18.4793 43.993 19.8925 44.0341 20.6381C44.0753 21.3838 44.4435 23.939 44.4435 23.939C44.4435 23.939 44.4435 23.9287 44.4456 23.9123C44.4764 23.5878 44.7685 20.5334 44.9208 19.1859C44.9434 18.9805 44.964 18.8162 44.9804 18.7053C44.9804 18.7012 44.9804 18.6971 44.9825 18.6909C45.0524 18.1835 45.036 17.516 45.0092 17.0415C45.0072 17.0148 45.0051 16.9881 45.0051 16.9614C45.0051 16.9388 45.0031 16.9141 45.001 16.8936C45.001 16.871 44.999 16.8484 44.9969 16.8279C44.9928 16.7786 44.9907 16.7313 44.9866 16.6902C44.9845 16.6676 44.9825 16.6451 44.9804 16.6266C44.9804 16.6225 44.9804 16.6184 44.9804 16.6163C44.9804 16.5958 44.9763 16.5793 44.9763 16.5608C44.9722 16.5239 44.9702 16.4951 44.9681 16.4766C44.9681 16.4705 44.9681 16.4663 44.9681 16.4643C44.9681 16.452 44.966 16.4479 44.966 16.4479L44.9208 16.4622L44.6081 17.0661C44.6081 17.0661 44.6081 17.0661 44.604 17.06C44.604 17.06 44.5999 17.0559 44.5978 17.0538C44.5978 17.0538 44.5957 17.0518 44.5937 17.0497C44.5114 16.9593 44.065 16.4602 43.7091 16.0822C43.7029 16.074 43.6968 16.0679 43.6906 16.0617C43.6536 16.0227 43.6083 15.9754 43.5569 15.9261C43.1413 15.5133 42.3329 14.782 42.1004 14.5705C42.0963 14.5663 42.0942 14.5643 42.0901 14.5622C42.0551 14.5314 42.0346 14.5129 42.0346 14.5129V14.5191C42.1312 15.5502 41.8206 16.1993 41.8206 16.1993C39.9959 16.3534 35.4825 16.2671 35.4825 16.2671L35.4845 16.2651Z" fill="#8D307F"/>
</g>
<g style="mix-blend-mode:multiply" opacity="0.6">
<path d="M29.6591 19.0175L30.0211 18.7587L30.6342 23.6782C30.6342 23.6782 30.4881 22.0144 30.7144 21.0942C30.9407 20.1739 30.8872 18.3335 30.8872 18.3335C30.8872 18.3335 32.2717 16.6533 33.5615 16.2671L33.4484 16.1624L31.7841 15.1661H31.7821C30.9757 16.2034 29.8792 17.9494 29.6591 19.0196V19.0175Z" fill="#8D307F"/>
</g>
<path d="M32.0635 17.1587C32.0635 17.1587 31.6088 16.9841 30.9814 17.0108C30.354 17.0375 30.0598 17.5778 30.0598 17.5778C30.0598 17.5778 30.8045 17.3272 31.8063 17.3826L32.0635 17.1587Z" fill="url(#paint18_linear_477_4331)"/>
<path d="M43.3644 17.7276C43.3644 17.7276 44.5267 16.6061 43.8828 15.2792C43.8828 15.2792 43.6915 16.0638 43.1854 17.4544L43.3644 17.7256V17.7276Z" fill="url(#paint19_linear_477_4331)"/>
<path d="M55.167 95.2565V95.2627L46.4734 95.805L44.5067 93.0073L40.6886 96.1665L25.2207 97.1339H25.1816C25.1816 97.1339 16.5044 45.7742 27.2264 38.1804C28.0822 37.5765 29.045 37.2478 30.1312 37.2478L32.501 34.748L37.8209 38.8028L41.0753 41.4669L42.2047 37.2458C42.2047 37.2458 43.1366 38.6056 43.4555 39.6963C43.4555 39.6963 43.4781 39.7004 43.5213 39.7065C43.9924 39.7846 46.9198 40.3392 49.4645 42.5514C49.553 42.6295 49.6435 42.7075 49.7299 42.7897C50.4951 43.4963 51.2152 44.361 51.8138 45.4148C54.809 50.7019 55.1505 93.1142 55.1649 95.1826C55.167 95.2175 55.167 95.2401 55.167 95.2545V95.2565Z" fill="#3C3148"/>
<path d="M41.0773 41.4709C41.0773 41.4709 45.1402 85.968 44.5086 93.0073C44.5086 93.0073 46.0392 63.5315 41.0773 41.4709Z" fill="#261D30"/>
<path d="M42.2063 37.25L41.0769 41.4711L43.708 45.4169C43.6874 42.4673 43.5805 40.1195 43.457 39.6984C43.1382 38.6098 42.2083 37.2479 42.2083 37.2479L42.2063 37.25Z" fill="#261D30"/>
<path d="M41.0771 41.471L37.331 46.1625L30.133 37.2499L32.5028 34.7501L41.0771 41.471Z" fill="#261D30"/>
<path d="M28.9223 90.3513L27.7395 91.3002L23.3659 94.6833L21.4877 96.1355C21.4877 96.1355 0.862452 74.307 2.68099 67.6457C4.47074 61.0871 25.3223 40.0063 25.9723 39.3531C25.9785 39.3469 25.9826 39.3428 25.9847 39.3408C25.9847 39.3366 25.9888 39.3346 25.9888 39.3346C25.9888 39.3346 26.0032 39.4229 26.0299 39.5893C26.32 41.4503 28.1324 52.9468 28.9244 54.2163C29.379 54.9475 25.1433 59.1624 21.0454 62.9768C17.3877 66.3804 13.8412 69.4656 13.8412 69.4656C16.5093 71.7641 28.9264 90.3513 28.9264 90.3513H28.9223Z" fill="#3C3148"/>
<path d="M8.77682 67.2821C8.8838 67.1404 9.10597 67.1876 9.27055 67.2533C10.2127 67.6251 11.1138 68.1037 11.949 68.6747C12.1136 68.7877 12.3687 68.9438 12.6176 69.1287L21.8666 60.2346L21.8749 62.1962C18.2172 65.5978 13.8375 69.4635 13.8375 69.4635C16.5056 71.7641 28.9248 90.3492 28.9248 90.3492L27.7399 91.2982C24.5924 86.8902 16.195 75.1656 12.8768 70.8829C11.8585 71.5032 10.6715 71.8442 9.48038 71.8565C9.83216 71.0184 10.725 70.5624 11.5499 70.1763C10.69 69.3855 9.82804 68.5946 8.96814 67.8018C8.81797 67.6642 8.65751 67.4423 8.77888 67.278L8.77682 67.2821Z" fill="#3C3148"/>
<path d="M62.1712 79.0666C62.1712 79.0666 56.9872 53.9454 55.1686 49.2129C54.4383 47.3108 53.3727 45.8648 52.3606 44.8131C51.6138 44.0367 50.8959 43.4738 50.361 43.1062C49.8158 42.7323 49.4641 42.5577 49.4641 42.5577C49.4641 42.5577 49.4702 42.9069 49.4846 43.5293C49.5916 48.7507 50.1141 73.2762 50.4268 73.9253C50.5811 74.2457 52.772 79.0686 55.1666 84.3496V84.3558C55.2324 84.4975 55.2982 84.6413 55.362 84.7851L62.6279 80.4962L62.1712 79.0686V79.0666Z" fill="#3C3148"/>
<path d="M56.8075 82.5606C56.9001 81.3508 52.866 53.319 51.319 47.962C52.4525 56.776 55.168 84.3476 55.168 84.3476V84.3538C55.2338 84.4955 55.2996 84.6393 55.3634 84.7831L57.1182 83.7479C56.9063 83.1789 56.789 82.764 56.8055 82.5627L56.8075 82.5606Z" fill="#261D30"/>
<path d="M69.0615 62.995L52.4354 62.3027L49.4896 86.3886L64.9924 86.2551L69.0615 62.995Z" fill="#EAE2CC"/>
<path d="M30.8858 22.4517C30.8858 22.4517 31.4001 21.5664 31.9164 21.5397C32.0275 21.5335 32.1653 21.5459 32.3217 21.5705C33.4346 21.7533 35.4712 22.6181 35.4712 22.6181C35.4712 22.6181 35.8086 21.743 35.7716 21.3856L35.6543 21.3343C35.6543 21.3343 35.5329 21.8868 35.4548 21.9669L35.4692 21.2521C35.4692 21.2521 33.8481 21.0077 32.799 20.8557L32.6241 20.829C32.5007 20.8105 32.3875 20.7941 32.2888 20.7817C32.0728 20.7509 31.9349 20.7345 31.9267 20.7345C31.8835 20.7468 31.7889 20.7797 31.7786 20.7817L31.8362 20.6277C31.8362 20.6277 31.291 21.1967 30.8899 22.4517H30.8858Z" fill="url(#paint20_linear_477_4331)"/>
<g style="mix-blend-mode:multiply" opacity="0.6">
<path d="M30.8858 22.4518C30.8858 22.4518 31.4001 21.5665 31.9164 21.5398C32.0275 21.5336 32.1653 21.546 32.3217 21.5706L32.7969 20.8537L32.622 20.827C32.3361 20.8763 31.542 21.4474 31.542 21.4474C31.7601 21.0242 32.2579 20.7921 32.2867 20.7798C32.0707 20.749 31.9329 20.7325 31.9246 20.7325C31.8814 20.7449 31.7868 20.7777 31.7765 20.7798L31.8341 20.6257C31.8341 20.6257 31.289 21.1947 30.8878 22.4497L30.8858 22.4518Z" fill="#B23594"/>
</g>
<path d="M43.3564 22.4519C43.3564 22.4519 42.8422 21.5666 42.3258 21.5399C42.2147 21.5338 42.0769 21.5461 41.9205 21.5707C40.8076 21.7536 38.771 22.6183 38.771 22.6183C38.771 22.6183 38.4336 21.7433 38.4707 21.3859L38.5879 21.3345C38.5879 21.3345 38.7093 21.8871 38.7875 21.9672L38.7731 21.2524C38.7731 21.2524 40.3941 21.0079 41.4433 20.8559L41.6181 20.8292C41.7416 20.8107 41.8547 20.7943 41.9535 20.782C42.1695 20.7512 42.3073 20.7347 42.3155 20.7347C42.3587 20.7471 42.4533 20.7799 42.4636 20.782L42.406 20.6279C42.406 20.6279 42.9512 21.1969 43.3523 22.4519H43.3564Z" fill="url(#paint21_linear_477_4331)"/>
<g style="mix-blend-mode:multiply" opacity="0.6">
<path d="M43.3564 22.4519C43.3564 22.4519 42.8422 21.5666 42.3258 21.5399C42.2147 21.5337 42.0769 21.5461 41.9205 21.5707L41.4453 20.8539L41.6202 20.8272C41.9061 20.8765 42.7002 21.4475 42.7002 21.4475C42.4821 21.0243 41.9843 20.7922 41.9555 20.7799C42.1715 20.7491 42.3093 20.7327 42.3176 20.7327C42.3608 20.745 42.4554 20.7779 42.4657 20.7799L42.4081 20.6259C42.4081 20.6259 42.9532 21.1948 43.3544 22.4499L43.3564 22.4519Z" fill="#B23594"/>
</g>
<path d="M35.1767 24.4711C35.1849 24.6169 33.9301 24.6272 33.1607 24.5307C32.3913 24.4341 32.0354 23.8693 32.0148 23.7173C31.9963 23.5653 32.2041 23.136 33.2677 23.2325C34.3312 23.329 35.1541 24.1363 35.1747 24.469L35.1767 24.4711Z" fill="url(#paint22_linear_477_4331)"/>
<path d="M32.8681 23.8752C32.901 24.3106 33.2816 24.6352 33.7177 24.6023C34.1538 24.5694 34.4789 24.1894 34.4459 23.754C34.413 23.3185 34.0325 22.994 33.5963 23.0268C33.1602 23.0597 32.8352 23.4397 32.8681 23.8752Z" fill="url(#paint23_linear_477_4331)"/>
<path d="M32.9146 23.871C32.9455 24.2798 33.3034 24.5879 33.7149 24.555C34.1263 24.5221 34.4328 24.1668 34.3999 23.756C34.3691 23.3472 34.0111 23.0391 33.5997 23.072C33.1903 23.1028 32.8817 23.4602 32.9146 23.871Z" fill="url(#paint24_linear_477_4331)"/>
<path style="mix-blend-mode:multiply" d="M33.1754 23.8526C33.196 24.1175 33.4285 24.3168 33.6938 24.2963C33.9592 24.2757 34.1588 24.0436 34.1382 23.7786C34.1176 23.5137 33.8852 23.3144 33.6198 23.335C33.3544 23.3555 33.1549 23.5876 33.1754 23.8526Z" fill="url(#paint25_linear_477_4331)"/>
<path d="M35.2275 24.5367C35.2275 24.5367 34.5692 23.0866 33.4954 22.9038C32.6108 22.7518 31.9587 23.5446 31.9587 23.5446C31.9587 23.5446 32.6561 23.1872 33.5407 23.3659C34.4252 23.5446 35.2255 24.5388 35.2255 24.5388L35.2275 24.5367Z" fill="#E56D5C"/>
<path d="M35.0974 24.2839L34.8732 24.5694C34.8732 24.5694 35.1962 24.5407 35.225 24.5304C35.2538 24.5202 35.0974 24.2839 35.0974 24.2839Z" fill="#DE4E6B"/>
<path d="M34.4492 24.5922C34.4492 24.5922 33.3836 24.6867 32.7747 24.4772C32.1164 24.2492 32.0135 23.7172 32.0135 23.7172C32.0135 23.7172 32.1781 24.2533 32.8714 24.4443C33.4782 24.6127 34.4492 24.5901 34.4492 24.5901V24.5922Z" fill="#DE4E6B"/>
<path d="M32.9421 24.0418C33.012 24.0829 32.7363 24.1507 32.5142 24.1096C32.3146 24.0726 32.2015 23.972 32.2138 23.9473C32.2282 23.9227 32.6643 23.8775 32.9421 24.0397V24.0418Z" fill="white"/>
<path d="M33.1096 24.0642C33.1836 24.0211 33.2824 24.0436 33.2947 24.0847C33.3071 24.1258 33.2186 24.1977 33.1713 24.1895C33.1219 24.1813 33.0684 24.0868 33.1096 24.0642Z" fill="white"/>
<g style="mix-blend-mode:multiply" opacity="0.6">
<path d="M35.1807 24.4588C35.1807 24.4588 33.7756 23.1195 32.0167 23.7193C32.0167 23.7193 32.5043 23.2037 33.5699 23.2838C34.6376 23.364 35.1807 24.4588 35.1807 24.4588Z" fill="#B23594"/>
</g>
<path d="M35.2275 24.5367C35.2275 24.5367 34.5507 23.5754 33.5509 23.483C32.5512 23.3885 32.0142 23.7192 32.0142 23.7192L31.9237 23.5672C31.9237 23.5672 32.8021 23.1379 33.6764 23.3536C34.7256 23.6144 35.2275 24.5367 35.2275 24.5367Z" fill="#290B39"/>
<path d="M35.2275 24.5369C35.2275 24.5369 34.7606 22.9758 34.0611 22.4951C34.0611 22.4951 34.8634 23.6557 35.2275 24.5369Z" fill="#DE4E6B"/>
<path d="M38.9825 24.4712C38.9743 24.6171 40.2292 24.6273 40.9986 24.5308C41.7679 24.4342 42.1238 23.8694 42.1444 23.7174C42.1629 23.5654 41.9552 23.1361 40.8916 23.2326C39.828 23.3292 39.0052 24.1364 38.9846 24.4692L38.9825 24.4712Z" fill="url(#paint26_linear_477_4331)"/>
<path d="M41.2877 23.8754C41.2548 24.3109 40.8743 24.6354 40.4381 24.6025C40.002 24.5697 39.677 24.1897 39.7099 23.7542C39.7428 23.3187 40.1234 22.9942 40.5595 23.0271C40.9956 23.0599 41.3207 23.4399 41.2877 23.8754Z" fill="url(#paint27_linear_477_4331)"/>
<path d="M41.2408 23.8713C41.2099 24.28 40.852 24.5881 40.4405 24.5553C40.0311 24.5245 39.7226 24.1671 39.7555 23.7562C39.7884 23.3454 40.1443 23.0394 40.5557 23.0722C40.9651 23.1031 41.2737 23.4605 41.2408 23.8713Z" fill="url(#paint28_linear_477_4331)"/>
<path style="mix-blend-mode:multiply" d="M40.981 23.8527C40.9604 24.1177 40.7279 24.3169 40.4626 24.2964C40.1972 24.2758 39.9976 24.0437 40.0182 23.7788C40.0388 23.5138 40.2712 23.3145 40.5366 23.3351C40.802 23.3556 41.0015 23.5877 40.981 23.8527Z" fill="url(#paint29_linear_477_4331)"/>
<path d="M38.9294 24.5369C38.9294 24.5369 39.5877 23.0867 40.6615 22.9039C41.5461 22.7519 42.1982 23.5448 42.1982 23.5448C42.1982 23.5448 41.5009 23.1873 40.6163 23.366C39.7317 23.5447 38.9314 24.5389 38.9314 24.5389L38.9294 24.5369Z" fill="#E56D5C"/>
<path d="M39.058 24.2839L39.2822 24.5694C39.2822 24.5694 38.9593 24.5407 38.9305 24.5304C38.9017 24.5202 39.058 24.2839 39.058 24.2839Z" fill="#DE4E6B"/>
<path d="M39.7079 24.5923C39.7079 24.5923 40.7735 24.6868 41.3824 24.4773C42.0407 24.2493 42.1436 23.7173 42.1436 23.7173C42.1436 23.7173 41.979 24.2534 41.2857 24.4444C40.6788 24.6129 39.7079 24.5903 39.7079 24.5903V24.5923Z" fill="#DE4E6B"/>
<path d="M41.2142 24.0419C41.1443 24.083 41.4199 24.1508 41.6421 24.1097C41.8416 24.0727 41.9548 23.9721 41.9424 23.9474C41.928 23.9228 41.4919 23.8776 41.2142 24.0399V24.0419Z" fill="white"/>
<path d="M41.0449 24.0643C40.9709 24.0212 40.8721 24.0438 40.8598 24.0848C40.8474 24.1259 40.9359 24.1978 40.9832 24.1896C41.0326 24.1814 41.0861 24.0869 41.0449 24.0643Z" fill="white"/>
<g style="mix-blend-mode:multiply" opacity="0.6">
<path d="M38.9777 24.4589C38.9777 24.4589 40.3827 23.1196 42.1416 23.7194C42.1416 23.7194 41.6541 23.2039 40.5884 23.284C39.5208 23.3641 38.9777 24.4589 38.9777 24.4589Z" fill="#B23594"/>
</g>
<path d="M38.9286 24.5367C38.9286 24.5367 39.6054 23.5754 40.6052 23.483C41.605 23.3885 42.1419 23.7192 42.1419 23.7192L42.2324 23.5672C42.2324 23.5672 41.354 23.1379 40.4797 23.3536C39.4305 23.6144 38.9286 24.5367 38.9286 24.5367Z" fill="#290B39"/>
<path d="M38.9283 24.5369C38.9283 24.5369 39.3953 22.9758 40.0947 22.4951C40.0947 22.4951 39.2924 23.6557 38.9283 24.5369Z" fill="#DE4E6B"/>
<path d="M38.8805 27.4495C38.8805 27.4495 39.3371 25.7877 37.1812 25.7877C35.0253 25.7877 35.3874 27.4166 35.3874 27.4166L35.4841 27.4495C35.4841 27.4495 36.0724 27.8171 37.1833 27.8171C38.2942 27.8171 38.8825 27.4495 38.8825 27.4495H38.8805Z" fill="url(#paint30_linear_477_4331)"/>
<g style="mix-blend-mode:multiply" opacity="0.6">
<path d="M37.2043 27.5686C38.3316 27.5686 38.8809 27.4495 38.8809 27.4495C38.3049 27.4331 37.8399 27.8131 37.1816 27.8172C36.5233 27.8131 36.0605 27.4331 35.4824 27.4495C35.4824 27.4495 36.1448 27.5686 37.2022 27.5686H37.2043Z" fill="#B23594"/>
</g>
<path style="mix-blend-mode:multiply" opacity="0.5" d="M36.3057 27.6263C36.3057 27.6263 36.0156 27.3182 35.4848 27.4496L36.3057 27.6263Z" fill="url(#paint31_linear_477_4331)"/>
<path style="mix-blend-mode:multiply" opacity="0.5" d="M38.8809 27.4494C38.8809 27.4494 38.5414 27.283 38.0888 27.6179L38.8809 27.4494Z" fill="url(#paint32_linear_477_4331)"/>
<g style="mix-blend-mode:multiply" opacity="0.6">
<path d="M38.665 26.2786C38.665 26.2786 39.1587 26.7058 38.9222 27.4165C38.9222 27.4165 38.9016 26.8414 38.665 26.2786Z" fill="#B23594"/>
</g>
<g style="mix-blend-mode:multiply" opacity="0.6">
<path d="M35.6631 26.3074C35.6631 26.3074 35.1508 26.7059 35.3895 27.4166C35.3895 27.4166 35.4286 26.8702 35.6631 26.3074Z" fill="#B23594"/>
</g>
<g style="mix-blend-mode:multiply" opacity="0.6">
<path d="M38.8809 27.4495C38.8809 27.4495 37.9551 28.2486 37.1816 28.2486C36.4081 28.2486 35.3878 27.4167 35.3878 27.4167C35.5626 26.3671 36.1942 27.5687 37.2022 27.5687C37.8872 27.5687 38.7142 26.6464 38.8788 27.4495H38.8809Z" fill="#B23594"/>
</g>
<path d="M36.4519 27.0386C36.4581 26.9441 36.3408 26.8373 36.2483 26.8455C36.1557 26.8538 36.203 27.0612 36.2483 27.1002C36.2935 27.1393 36.4519 27.0366 36.4519 27.0366V27.0386Z" fill="#FCCBB9"/>
<path style="mix-blend-mode:multiply" opacity="0.6" d="M38.6641 26.2787C38.6641 26.2787 38.5057 26.5252 38.339 27.3181C38.339 27.3181 38.1395 26.7881 38.5489 26.1884L38.6641 26.2787Z" fill="url(#paint33_linear_477_4331)"/>
<path style="mix-blend-mode:multiply" opacity="0.6" d="M35.6917 26.3012C35.6917 26.3012 35.8048 26.5251 35.9694 27.318C35.9694 27.318 36.2142 26.7675 35.8048 26.1677L35.6917 26.3012Z" fill="url(#paint34_linear_477_4331)"/>
<path style="mix-blend-mode:multiply" d="M40.1123 29.6537C40.1123 29.6537 38.8842 31.8207 37.2137 31.8207C35.7038 31.8207 34.4222 29.6968 34.4222 29.6968C34.4222 29.6968 35.603 30.8902 36.7159 31.0053C37.8288 31.1203 40.1123 29.6537 40.1123 29.6537Z" fill="url(#paint35_linear_477_4331)"/>
<path d="M40.6748 28.797C40.6748 28.797 39.4837 30.81 38.6547 31.0873C37.8256 31.3625 36.3054 31.2023 35.8178 31.0873C35.3282 30.9722 33.8635 28.9736 33.8635 28.9736C33.8635 28.9736 35.4578 30.4361 37.2681 30.4361C39.0784 30.4361 40.6727 28.7991 40.6727 28.7991L40.6748 28.797Z" fill="#EF7172"/>
<path d="M40.6748 28.797C40.6748 28.797 39.6503 29.3927 37.3792 29.3927C35.1081 29.3927 33.6495 28.797 33.6495 28.797C33.6495 28.797 35.5956 30.508 37.3792 30.508C38.8809 30.508 40.6748 28.797 40.6748 28.797Z" fill="#D35057"/>
<path d="M33.9413 28.6164C33.9413 28.6164 33.5854 28.9101 33.4311 29.1401C33.4311 29.1401 33.3797 28.7314 33.536 28.5239C33.6924 28.3165 33.9434 28.6164 33.9434 28.6164H33.9413Z" fill="#DE6B7D"/>
<path d="M40.4163 28.6164C40.4163 28.6164 40.7722 28.9101 40.9265 29.1401C40.9265 29.1401 40.9779 28.7314 40.8216 28.5239C40.6652 28.3165 40.4142 28.6164 40.4142 28.6164H40.4163Z" fill="#DE6B7D"/>
<path d="M40.0312 29.1997C40.0312 29.1997 38.7476 30.3869 37.3816 30.4342C35.6886 30.4917 34.3493 29.1401 34.3493 29.1401C34.3493 29.1401 36.1206 29.5694 37.4248 29.5694C38.7291 29.5694 40.0312 29.2018 40.0312 29.2018V29.1997Z" fill="white"/>
<path d="M34.9475 29.2694L34.9824 29.6679L34.176 29.0681L34.9475 29.2694Z" fill="#4F1C3E"/>
<path d="M39.4776 29.3311L39.4077 29.6968L40.2676 29.0908L39.4776 29.3311Z" fill="#4F1C3E"/>
<g style="mix-blend-mode:soft-light">
<path d="M36.6152 30.6683L36.4095 31.1736C36.4095 31.1736 35.9693 31.1469 35.706 31.036C35.4365 30.9251 34.8131 30.2226 34.6013 29.9145L34.8255 29.8488C34.8255 29.8488 35.5599 30.4157 36.6152 30.6683Z" fill="#FCCBB9"/>
</g>
<g style="mix-blend-mode:multiply" opacity="0.6">
<path d="M39.4671 29.3947C39.4671 29.3947 38.5291 29.6679 37.3812 29.6679C36.2333 29.6679 34.9537 29.3208 34.9537 29.3208L34.9496 29.2694C34.9496 29.2694 36.3361 29.5693 37.4244 29.5693C38.5126 29.5693 39.4795 29.3331 39.4795 29.3331L39.4671 29.3947Z" fill="#8D307F"/>
</g>
</g>
<defs>
<filter id="filter0_d_477_4331" x="0" y="0" width="76" height="76" filterUnits="userSpaceOnUse" color-interpolation-filters="sRGB">
<feFlood flood-opacity="0" result="BackgroundImageFix"/>
<feColorMatrix in="SourceAlpha" type="matrix" values="0 0 0 0 0 0 0 0 0 0 0 0 0 0 0 0 0 0 127 0" result="hardAlpha"/>
<feOffset dy="4"/>
<feGaussianBlur stdDeviation="2"/>
<feComposite in2="hardAlpha" operator="out"/>
<feColorMatrix type="matrix" values="0 0 0 0 0 0 0 0 0 0 0 0 0 0 0 0 0 0 0.25 0"/>
<feBlend mode="normal" in2="BackgroundImageFix" result="effect1_dropShadow_477_4331"/>
<feBlend mode="normal" in="SourceGraphic" in2="effect1_dropShadow_477_4331" result="shape"/>
</filter>
<linearGradient id="paint0_linear_477_4331" x1="46.5895" y1="-5.78439e-07" x2="23.6842" y2="65.8526" gradientUnits="userSpaceOnUse">
<stop stop-color="#D9D9D9"/>
<stop offset="1" stop-color="#737373"/>
</linearGradient>
<linearGradient id="paint1_linear_477_4331" x1="37.6312" y1="41.8649" x2="37.6312" y2="31.5761" gradientUnits="userSpaceOnUse">
<stop stop-color="#F9B19E"/>
<stop offset="0.21" stop-color="#F69B8F"/>
<stop offset="0.47" stop-color="#F48781"/>
<stop offset="0.74" stop-color="#F37B79"/>
<stop offset="1" stop-color="#F37777"/>
</linearGradient>
<linearGradient id="paint2_linear_477_4331" x1="35.0031" y1="37.9028" x2="35.0031" y2="32.6629" gradientUnits="userSpaceOnUse">
<stop stop-color="#FEEADB"/>
<stop offset="0.99" stop-color="#B17EB7"/>
</linearGradient>
<linearGradient id="paint3_linear_477_4331" x1="29.6585" y1="28.2489" x2="29.6585" y2="22.8857" gradientUnits="userSpaceOnUse">
<stop stop-color="#F4837E"/>
<stop offset="0.01" stop-color="#F3827D"/>
<stop offset="0.34" stop-color="#F27369"/>
<stop offset="0.67" stop-color="#F26A5D"/>
<stop offset="1" stop-color="#F26859"/>
</linearGradient>
<linearGradient id="paint4_linear_477_4331" x1="29.554" y1="26.6159" x2="29.554" y2="23.8347" gradientUnits="userSpaceOnUse">
<stop stop-color="#FEEADB"/>
<stop offset="0.99" stop-color="#B17EB7"/>
</linearGradient>
<linearGradient id="paint5_linear_477_4331" x1="30.1074" y1="26.5461" x2="30.1074" y2="24.3894" gradientUnits="userSpaceOnUse">
<stop stop-color="#FEEADB"/>
<stop offset="0.99" stop-color="#B17EB7"/>
</linearGradient>
<linearGradient id="paint6_linear_477_4331" x1="45.3478" y1="28.2486" x2="45.3478" y2="22.8855" gradientUnits="userSpaceOnUse">
<stop stop-color="#F4837E"/>
<stop offset="0.01" stop-color="#F3827D"/>
<stop offset="0.34" stop-color="#F27369"/>
<stop offset="0.67" stop-color="#F26A5D"/>
<stop offset="1" stop-color="#F26859"/>
</linearGradient>
<linearGradient id="paint7_linear_477_4331" x1="45.455" y1="26.6157" x2="45.455" y2="23.8345" gradientUnits="userSpaceOnUse">
<stop stop-color="#FEEADB"/>
<stop offset="0.99" stop-color="#B17EB7"/>
</linearGradient>
<linearGradient id="paint8_linear_477_4331" x1="44.8996" y1="26.5459" x2="44.8996" y2="24.3891" gradientUnits="userSpaceOnUse">
<stop stop-color="#FEEADB"/>
<stop offset="0.99" stop-color="#B17EB7"/>
</linearGradient>
<linearGradient id="paint9_linear_477_4331" x1="37.4552" y1="34.2898" x2="37.4552" y2="14.6283" gradientUnits="userSpaceOnUse">
<stop stop-color="#F3797E"/>
<stop offset="0.11" stop-color="#F37C7A"/>
<stop offset="0.55" stop-color="#F5886E"/>
<stop offset="1" stop-color="#F68D6A"/>
</linearGradient>
<linearGradient id="paint10_linear_477_4331" x1="38.9315" y1="14.1084" x2="33.7043" y2="14.1084" gradientUnits="userSpaceOnUse">
<stop stop-color="#33122B"/>
<stop offset="1" stop-color="#441B3E"/>
</linearGradient>
<linearGradient id="paint11_linear_477_4331" x1="37.3406" y1="23.937" x2="37.3406" y2="12.1693" gradientUnits="userSpaceOnUse">
<stop stop-color="#360F3A"/>
<stop offset="1" stop-color="#4C132E"/>
</linearGradient>
<linearGradient id="paint12_linear_477_4331" x1="37.5469" y1="14.9383" x2="32.441" y2="14.9383" gradientUnits="userSpaceOnUse">
<stop stop-color="#33122B"/>
<stop offset="1" stop-color="#441B3E"/>
</linearGradient>
<linearGradient id="paint13_linear_477_4331" x1="38.4872" y1="14.3651" x2="35.4508" y2="14.3651" gradientUnits="userSpaceOnUse">
<stop stop-color="#33122B"/>
<stop offset="1" stop-color="#441B3E"/>
</linearGradient>
<linearGradient id="paint14_linear_477_4331" x1="39.416" y1="14.3939" x2="37.5481" y2="14.3939" gradientUnits="userSpaceOnUse">
<stop stop-color="#33122B"/>
<stop offset="1" stop-color="#441B3E"/>
</linearGradient>
<linearGradient id="paint15_linear_477_4331" x1="44.9668" y1="17.7318" x2="43.8827" y2="17.7318" gradientUnits="userSpaceOnUse">
<stop stop-color="#33122B"/>
<stop offset="1" stop-color="#441B3E"/>
</linearGradient>
<linearGradient id="paint16_linear_477_4331" x1="43.1963" y1="15.9611" x2="41.8242" y2="15.9611" gradientUnits="userSpaceOnUse">
<stop stop-color="#33122B"/>
<stop offset="1" stop-color="#441B3E"/>
</linearGradient>
<linearGradient id="paint17_linear_477_4331" x1="35.6464" y1="15.5626" x2="31.2502" y2="15.5626" gradientUnits="userSpaceOnUse">
<stop stop-color="#33122B"/>
<stop offset="1" stop-color="#441B3E"/>
</linearGradient>
<linearGradient id="paint18_linear_477_4331" x1="32.0635" y1="17.2943" x2="30.0598" y2="17.2943" gradientUnits="userSpaceOnUse">
<stop stop-color="#33122B"/>
<stop offset="1" stop-color="#441B3E"/>
</linearGradient>
<linearGradient id="paint19_linear_477_4331" x1="44.0782" y1="16.5034" x2="43.1854" y2="16.5034" gradientUnits="userSpaceOnUse">
<stop stop-color="#33122B"/>
<stop offset="1" stop-color="#441B3E"/>
</linearGradient>
<linearGradient id="paint20_linear_477_4331" x1="35.7736" y1="21.6239" x2="30.8858" y2="21.6239" gradientUnits="userSpaceOnUse">
<stop stop-color="#360F3A"/>
<stop offset="1" stop-color="#4C132E"/>
</linearGradient>
<linearGradient id="paint21_linear_477_4331" x1="38.4686" y1="21.6241" x2="43.3564" y2="21.6241" gradientUnits="userSpaceOnUse">
<stop stop-color="#360F3A"/>
<stop offset="1" stop-color="#4C132E"/>
</linearGradient>
<linearGradient id="paint22_linear_477_4331" x1="33.5661" y1="24.5738" x2="33.6466" y2="23.2596" gradientUnits="userSpaceOnUse">
<stop stop-color="#EDE1EF"/>
<stop offset="1" stop-color="#C0C7E6"/>
</linearGradient>
<linearGradient id="paint23_linear_477_4331" x1="33.7195" y1="24.6046" x2="33.5986" y2="23.0276" gradientUnits="userSpaceOnUse">
<stop stop-color="#4C132E"/>
<stop offset="1" stop-color="#360F3A"/>
</linearGradient>
<linearGradient id="paint24_linear_477_4331" x1="33.7151" y1="24.5575" x2="33.6015" y2="23.0747" gradientUnits="userSpaceOnUse">
<stop stop-color="#4C132E"/>
<stop offset="1" stop-color="#360F3A"/>
</linearGradient>
<linearGradient id="paint25_linear_477_4331" x1="33.6947" y1="24.2974" x2="33.6209" y2="23.3348" gradientUnits="userSpaceOnUse">
<stop stop-color="#C9A8CF"/>
<stop offset="0.99" stop-color="#8361AA"/>
</linearGradient>
<linearGradient id="paint26_linear_477_4331" x1="40.5902" y1="24.5709" x2="40.5097" y2="23.2567" gradientUnits="userSpaceOnUse">
<stop stop-color="#EDE1EF"/>
<stop offset="1" stop-color="#C0C7E6"/>
</linearGradient>
<linearGradient id="paint27_linear_477_4331" x1="40.4372" y1="24.6023" x2="40.5579" y2="23.0273" gradientUnits="userSpaceOnUse">
<stop stop-color="#4C132E"/>
<stop offset="1" stop-color="#360F3A"/>
</linearGradient>
<linearGradient id="paint28_linear_477_4331" x1="40.4411" y1="24.5551" x2="40.5548" y2="23.0723" gradientUnits="userSpaceOnUse">
<stop stop-color="#4C132E"/>
<stop offset="1" stop-color="#360F3A"/>
</linearGradient>
<linearGradient id="paint29_linear_477_4331" x1="40.4606" y1="24.295" x2="40.5343" y2="23.3324" gradientUnits="userSpaceOnUse">
<stop stop-color="#C9A8CF"/>
<stop offset="0.99" stop-color="#8361AA"/>
</linearGradient>
<linearGradient id="paint30_linear_477_4331" x1="37.1442" y1="27.8171" x2="37.1442" y2="25.7857" gradientUnits="userSpaceOnUse">
<stop stop-color="#F3797E"/>
<stop offset="0.11" stop-color="#F37C7A"/>
<stop offset="0.55" stop-color="#F5886E"/>
<stop offset="1" stop-color="#F68D6A"/>
</linearGradient>
<linearGradient id="paint31_linear_477_4331" x1="36.3057" y1="27.5215" x2="35.4848" y2="27.5215" gradientUnits="userSpaceOnUse">
<stop offset="0.02" stop-color="#7A55A3"/>
<stop offset="0.99" stop-color="#BD89BD"/>
</linearGradient>
<linearGradient id="paint32_linear_477_4331" x1="38.8809" y1="27.511" x2="38.0888" y2="27.511" gradientUnits="userSpaceOnUse">
<stop offset="0.02" stop-color="#7A55A3"/>
<stop offset="0.99" stop-color="#BD89BD"/>
</linearGradient>
<linearGradient id="paint33_linear_477_4331" x1="38.4769" y1="27.3181" x2="38.4769" y2="26.1884" gradientUnits="userSpaceOnUse">
<stop stop-color="#FEEADB"/>
<stop offset="0.99" stop-color="#B17EB7"/>
</linearGradient>
<linearGradient id="paint34_linear_477_4331" x1="35.8665" y1="27.318" x2="35.8665" y2="26.1677" gradientUnits="userSpaceOnUse">
<stop stop-color="#FEEADB"/>
<stop offset="0.99" stop-color="#B17EB7"/>
</linearGradient>
<linearGradient id="paint35_linear_477_4331" x1="37.2672" y1="31.8207" x2="37.2672" y2="29.6537" gradientUnits="userSpaceOnUse">
<stop stop-color="#F8C0D8"/>
<stop offset="0.99" stop-color="#B17EB7"/>
</linearGradient>
</defs>
</svg>
