<svg width="76" height="76" viewBox="0 0 76 76" fill="none" xmlns="http://www.w3.org/2000/svg">
<g filter="url(#filter0_d_477_4469)">
<circle cx="38" cy="34" r="34" fill="url(#paint0_linear_477_4469)"/>
</g>
<mask id="mask0_477_4469" style="mask-type:alpha" maskUnits="userSpaceOnUse" x="4" y="0" width="68" height="68">
<circle cx="38" cy="34" r="34" fill="#D9D9D9"/>
</mask>
<g mask="url(#mask0_477_4469)">
<path d="M31.5272 79.2987L46.661 82.6593C48.6493 82.208 52.2963 82.6119 53.3512 83.1311C55.1458 84.013 53.3862 84.9979 53.3862 84.9979C54.6822 86.0693 53.1101 86.5288 53.1101 86.5288C54.6513 87.2726 52.9082 88.1668 52.9082 88.1668C54.5154 89.572 52.1088 90.5342 48.8409 89.5741C47.6253 89.2176 46.9763 88.5109 46.6384 87.765C42.2723 87.6785 28.4531 86.9532 25.3604 85.0411C20.368 81.9567 26.3741 50.5455 26.3741 50.5455L33.5403 52.9583L31.5272 79.2946V79.2987Z" fill="url(#paint1_linear_477_4469)"/>
<path d="M33.5093 53.3725C34.5889 51.7386 34.1089 48.1288 32.8273 47.1233C31.3314 45.9509 28.9969 46.5278 27.942 47.4591C26.9571 48.3266 26.4647 50.0882 26.374 50.5498" fill="url(#paint2_linear_477_4469)"/>
<path d="M54.6308 81.023L40.1996 86.6892C38.1639 86.5512 34.6241 87.5175 33.6619 88.1913C32.0259 89.341 33.9153 90.0415 33.9153 90.0415C32.8006 91.3004 34.4263 91.5127 34.4263 91.5127C33.019 92.4852 34.8796 93.0992 34.8796 93.0992C33.5094 94.7372 36.0355 95.3141 39.1158 93.8595C40.2614 93.3176 40.793 92.5202 41.0114 91.7311C45.3115 90.9687 58.8505 88.1109 61.6094 85.7435C66.062 81.9214 55.2613 51.8207 55.2613 51.8207L48.5567 55.3152L54.6267 81.021L54.6308 81.023Z" fill="url(#paint3_linear_477_4469)"/>
<path d="M48.655 55.7148C47.3364 54.2684 47.2498 50.6256 48.3583 49.4346C49.6543 48.0439 52.0486 48.252 53.2374 49.0081C54.3459 49.7128 55.1062 51.3756 55.2649 51.8186" fill="url(#paint4_linear_477_4469)"/>
<path d="M27.3779 63.9634L28.8573 83.1377L52.6181 79.9893L45.6951 67.9215L27.3779 63.9634Z" fill="url(#paint5_linear_477_4469)"/>
<path d="M39.0111 38.7189L37.8366 46.4516L31.8408 46.6144L38.9575 55.3526L49.954 48.5306L45.0646 47.1522L45.7054 36.6564L39.0111 38.7189Z" fill="url(#paint6_linear_477_4469)"/>
<path d="M41.685 20.0493C41.685 20.0493 32.9364 20.3646 31.4673 30.5884C29.9983 40.8122 37.4694 43.3403 42.3113 42.5079C47.1533 41.6755 50.3594 36.4338 51.0084 33.3906C51.6595 30.3473 49.6197 20.1544 41.6829 20.0514L41.685 20.0493Z" fill="url(#paint7_linear_477_4469)"/>
<path opacity="0.2" d="M47.0673 70.3136L45.6951 67.9215L27.3779 63.9634L27.9755 71.7147C33.2852 72.1494 40.8304 72.2442 47.0673 70.3157V70.3136Z" fill="#201829"/>
<path d="M35.6153 46.4949C35.6153 46.4949 32.5803 45.8438 30.1964 46.7113C27.8124 47.5787 25.6758 55.365 24.8084 58.6164C23.9409 61.8677 26.8008 69.4398 26.8008 69.4398C26.8008 69.4398 44.0074 73.1238 51.3775 69.4398L52.5231 59.5003C52.5231 59.5003 51.3425 51.0464 50.9489 48.2277L47.9696 47.5766C47.9696 47.5766 36.4806 52.7792 35.6132 46.4929L35.6153 46.4949Z" fill="#951A22"/>
<path d="M37.5859 31.9333C37.8187 31.89 37.0337 29.9903 35.647 29.5535C33.9719 29.0261 33.4465 30.5343 33.4259 30.8495C33.4053 31.1648 36.4629 32.1435 37.5838 31.9333H37.5859Z" fill="url(#paint8_linear_477_4469)"/>
<path d="M34.1855 31.027C34.1711 31.1713 34.1896 31.3093 34.2329 31.4391C34.2432 31.468 35.8998 31.9213 35.9162 31.9068C36.114 31.742 36.248 31.503 36.2748 31.229C36.3283 30.6665 35.9039 30.1637 35.327 30.1081C34.75 30.0524 34.2391 30.4625 34.1855 31.027Z" fill="url(#paint9_linear_477_4469)"/>
<path style="mix-blend-mode:multiply" d="M34.5528 31.062C34.5178 31.4267 34.7939 31.7523 35.1689 31.7894C35.5439 31.8264 35.8735 31.5586 35.9086 31.1939C35.9436 30.8292 35.6675 30.5037 35.2925 30.4666C34.9175 30.4295 34.5878 30.6973 34.5528 31.062Z" fill="url(#paint10_linear_477_4469)"/>
<path d="M37.5611 31.5626C37.5611 31.5626 37.0996 28.9623 35.5646 28.5873C34.0295 28.2103 33.5186 30.5097 33.5186 30.5097C33.5186 30.5097 34.0007 29.3229 35.4677 29.5433C36.9347 29.7659 37.559 31.5626 37.559 31.5626H37.5611Z" fill="url(#paint11_linear_477_4469)"/>
<path d="M37.5956 31.6677L37.3154 31.9603C37.3154 31.9603 37.6286 32.0221 37.6698 31.9356C37.711 31.849 37.5956 31.6677 37.5956 31.6677Z" fill="#D66C7C"/>
<path d="M37.1038 31.9704C37.1038 31.9704 35.8634 32.0404 34.8291 31.7252C33.7947 31.4099 33.4795 30.9381 33.4795 30.9381C33.4795 30.9381 35.0804 31.7417 37.1038 31.9704Z" fill="#D66C7C"/>
<path d="M34.9321 30.4065C34.9939 30.4745 34.6807 30.458 34.4582 30.3427C34.2584 30.2396 34.1718 30.0934 34.1924 30.0727C34.2151 30.0501 34.691 30.1428 34.9321 30.4065Z" fill="white"/>
<path d="M35.1031 30.483C35.1937 30.4603 35.2926 30.518 35.2926 30.5654C35.2926 30.6128 35.1772 30.6622 35.1278 30.6375C35.0783 30.6128 35.0515 30.4954 35.1031 30.483Z" fill="white"/>
<g style="mix-blend-mode:multiply" opacity="0.6">
<path d="M37.596 31.6677C37.596 31.6677 36.7698 30.2934 35.5686 29.9369C34.3673 29.5805 33.708 30.2295 33.708 30.2295C33.708 30.2295 33.9635 29.3373 35.5562 29.6093C37.1489 29.8834 37.596 31.6677 37.596 31.6677Z" fill="#C978B1"/>
</g>
<path d="M37.5962 31.6679C37.5962 31.6679 37.0172 29.9042 35.3689 29.6219C33.8977 29.3684 33.4671 30.6603 33.4671 30.6603C33.4671 30.6603 33.4218 29.49 34.4643 29.3149C35.4575 29.15 37.0728 29.8341 37.5962 31.6679Z" fill="#401432"/>
<path d="M42.1843 32.3274C41.933 32.2121 43.3485 30.2835 45.038 30.1743C47.0799 30.0424 47.253 31.8948 47.1912 32.2595C47.1273 32.6221 43.3959 32.8796 42.1843 32.3274Z" fill="url(#paint12_linear_477_4469)"/>
<path d="M44.9743 32.0553C44.9269 32.3705 44.7477 32.6343 44.5025 32.795C44.4675 32.8176 43.1447 32.5869 43.1158 32.5477C42.953 32.3293 42.8747 32.047 42.918 31.7545C43.0046 31.1755 43.5341 30.7758 44.1007 30.8582C44.6694 30.9406 45.0609 31.4763 44.9743 32.0553Z" fill="url(#paint13_linear_477_4469)"/>
<path style="mix-blend-mode:multiply" d="M44.6133 32.0017C44.5577 32.3767 44.2136 32.6363 43.8448 32.5827C43.476 32.5291 43.2225 32.1809 43.2782 31.8059C43.3338 31.4309 43.6779 31.1713 44.0467 31.2249C44.4155 31.2785 44.669 31.6267 44.6133 32.0017Z" fill="url(#paint14_linear_477_4469)"/>
<path d="M42.3145 31.9132C42.3145 31.9132 43.5589 29.1007 45.401 29.1007C47.243 29.1007 47.1812 31.8431 47.1812 31.8431C47.1812 31.8431 46.9648 30.3658 45.2444 30.2072C43.5219 30.0506 42.3165 31.9111 42.3165 31.9111L42.3145 31.9132Z" fill="url(#paint15_linear_477_4469)"/>
<path d="M42.2466 32.0245L42.4815 32.4346C42.4815 32.4346 42.1106 32.416 42.0879 32.3089C42.0653 32.1997 42.2445 32.0266 42.2445 32.0266L42.2466 32.0245Z" fill="#D66C7C"/>
<path d="M42.7197 32.5024C42.7197 32.5024 44.1023 32.9268 45.3612 32.8589C46.6201 32.7909 47.1064 32.3438 47.1064 32.3438C47.1064 32.3438 45.0727 32.8094 42.7197 32.5024Z" fill="#D66C7C"/>
<path d="M43.4635 32.0388C43.3666 31.9893 43.2389 32.0244 43.2265 32.08C43.2141 32.1336 43.3295 32.2222 43.3913 32.2077C43.4532 32.1933 43.517 32.0676 43.4635 32.0388Z" fill="white"/>
<g style="mix-blend-mode:multiply" opacity="0.6">
<path d="M42.2472 32.0243C42.2472 32.0243 43.5638 30.6994 45.0226 30.6315C46.4813 30.5614 47.0459 31.4783 47.0459 31.4783C47.0459 31.4783 47.0047 30.3966 45.1256 30.2626C43.2465 30.1287 42.2451 32.0243 42.2451 32.0243H42.2472Z" fill="#C978B1"/>
</g>
<path d="M42.2461 32.0243C42.2461 32.0243 43.3917 30.1905 45.3347 30.3286C47.0695 30.4522 47.1973 32.0325 47.1973 32.0325C47.1973 32.0325 47.5743 30.72 46.4432 30.2338C45.3656 29.7702 43.3484 30.0957 42.2461 32.0243Z" fill="#401432"/>
<path d="M37.2976 34.4208C37.2976 34.4208 37.3161 34.5094 37.6396 34.5609C37.9631 34.6124 38.233 34.9338 38.7831 34.9997C39.3333 35.0657 39.6444 34.8164 39.97 34.8432C40.2955 34.8699 40.3614 34.7916 40.3614 34.7916C40.4356 34.5856 40.4294 34.3754 40.3903 34.19V34.1838C40.3202 33.8603 40.1554 33.6193 40.1554 33.6193C39.4281 33.1515 38.5977 33.0526 37.7777 33.3329C37.7777 33.3329 37.6376 33.4585 37.5077 33.6605V33.6625C37.3821 33.8583 37.2667 34.1261 37.2996 34.4228L37.2976 34.4208Z" fill="url(#paint16_linear_477_4469)"/>
<path d="M38.0107 34.7112C38.0107 34.7112 37.7862 34.466 37.4668 34.5216L38.0107 34.7112Z" fill="#812852"/>
<path d="M40.1393 34.8453C40.1393 34.8453 39.8343 34.7134 39.4902 34.9257L40.1393 34.8453Z" fill="#812852"/>
<g style="mix-blend-mode:multiply" opacity="0.6">
<path d="M37.2977 34.4208C37.2977 34.4208 37.3162 34.5094 37.6397 34.5609C37.9632 34.6125 38.2331 34.9339 38.7833 34.9998C39.3334 35.0657 39.6445 34.8164 39.9701 34.8432C40.2956 34.87 40.3615 34.7917 40.3615 34.7917C40.4357 34.5857 40.4295 34.3755 40.3904 34.1901C40.3966 34.2436 40.4234 34.5877 40.2853 34.6537C40.1328 34.7258 39.3416 34.5774 38.8389 34.5156C38.3382 34.4559 37.4852 34.3528 37.4048 34.2086C37.3286 34.0706 37.4893 33.6956 37.5058 33.6626C37.3801 33.8583 37.2647 34.1262 37.2977 34.4229V34.4208Z" fill="#C978B1"/>
</g>
<path style="mix-blend-mode:multiply" opacity="0.6" d="M37.7773 33.3307C37.7773 33.3307 37.8886 33.9055 37.8206 34.2908C37.8206 34.2908 37.9999 33.9282 37.8968 33.2936L37.7773 33.3327V33.3307Z" fill="url(#paint17_linear_477_4469)"/>
<path style="mix-blend-mode:multiply" opacity="0.6" d="M40.1273 33.6151C40.1273 33.6151 39.8821 34.1467 39.8553 34.5361C39.8553 34.5361 39.7688 34.1426 40.0181 33.5492L40.1253 33.6151H40.1273Z" fill="url(#paint18_linear_477_4469)"/>
<g style="mix-blend-mode:multiply" opacity="0.6">
<path d="M40.2876 34.6515C40.2876 34.6515 40.3535 34.7442 40.3638 34.7896C40.3741 34.8349 39.5623 35.4345 38.7423 35.3356C37.9222 35.2367 37.3041 34.5052 37.2979 34.4207C37.2938 34.3342 37.4401 34.2456 37.4401 34.2456C37.4401 34.2456 38.0685 34.4228 38.8412 34.5155C39.6139 34.6082 40.2876 34.6536 40.2876 34.6536V34.6515Z" fill="#C978B1"/>
</g>
<path d="M38.2105 34.2477C38.3341 34.1962 38.1528 33.9778 38.0971 33.9799C38.0415 33.9799 37.9962 34.1014 38.0168 34.1839C38.0374 34.2663 38.159 34.2683 38.2105 34.2457V34.2477Z" fill="#FBC9B8"/>
<path d="M51.1669 36.5388C51.07 36.749 50.9752 36.9344 50.8805 37.0993L50.8743 37.1075C50.1943 38.2799 49.5309 38.4406 49.1621 38.9557C48.8427 39.4008 47.8022 40.2023 47.2335 38.9907L47.2314 38.9866C47.2314 38.9866 48.5728 34.8946 49.0549 34.2044C49.0549 34.2044 49.7596 33.1659 50.5982 33.1762C51.6758 33.1906 52.0137 34.6886 51.1669 36.5388Z" fill="url(#paint19_linear_477_4469)"/>
<path style="mix-blend-mode:multiply" opacity="0.6" d="M48.1058 36.4566C48.1058 36.4566 50.2466 34.493 51.0501 34.5157C51.8537 34.5384 51.0151 36.4298 50.7102 37.0541C50.4052 37.6784 50.0838 38.0143 50.0838 38.0143C50.0838 38.0143 50.4567 37.2808 50.638 36.6585C50.8997 35.7664 50.7905 34.9237 50.4505 34.9237C50.1106 34.9237 49.4162 35.9621 49.3585 36.0857C49.3008 36.2094 49.4883 36.4958 49.3132 37.1942C49.1381 37.8948 48.6271 38.5789 48.4478 38.5294C48.2686 38.4779 48.4767 37.9278 48.6271 37.2705C48.7775 36.6132 48.2356 36.6235 47.9121 36.9985L48.1058 36.4566Z" fill="url(#paint20_linear_477_4469)"/>
<path style="mix-blend-mode:multiply" opacity="0.6" d="M47.9121 36.9965C47.9121 36.9965 48.4684 36.467 48.6518 36.8069C48.8352 37.1469 48.4767 37.8928 48.6436 38.0308C48.8125 38.1689 49.2122 37.5899 49.2967 36.9985C49.3812 36.4051 49.2699 35.8303 48.9197 35.8529L48.1078 36.4546L47.9142 36.9965H47.9121Z" fill="url(#paint21_linear_477_4469)"/>
<path style="mix-blend-mode:multiply" d="M50.8742 37.1055C50.1942 38.2778 49.5308 38.4386 49.162 38.9537C48.8426 39.3987 47.8021 40.2002 47.2334 38.9887C47.2725 39.0402 47.6517 39.5244 48.1627 39.4605C48.7025 39.3925 48.9683 38.964 49.2609 38.6528C49.5514 38.3397 50.1489 38.2181 50.8742 37.1055Z" fill="url(#paint22_linear_477_4469)"/>
<path d="M41.3264 18.7223C41.3264 18.7223 41.9919 16.5816 41.2296 15.3803C40.4899 14.2141 38.9034 13.7279 37.834 14.1503C36.5236 14.6695 36.6905 16.1818 36.6905 16.1818C36.6905 16.1818 37.4302 15.6729 39.2475 15.9037C40.799 16.1015 41.0771 17.5067 40.0696 18.6853L41.3264 18.7223Z" fill="#3F313D"/>
<path d="M54.5467 25.6454C53.0343 28.8267 52.0247 33.2648 52.0247 33.2648C51.3633 33.817 50.3372 35.1954 50.3372 35.1954C49.8881 33.8561 49.478 26.0925 49.478 26.0925C49.0557 25.2456 46.1134 21.7883 41.8339 21.2649C37.5544 20.7416 35.3765 22.8638 35.3765 22.8638C34.3937 24.372 33.2213 28.9338 33.2213 28.9338C32.7515 28.6227 32.5187 27.8706 32.5187 27.8706C32.1705 29.5293 31.2145 32.1254 31.2145 32.1254C30.7447 31.633 30.2996 30.8294 30.2996 30.8294C30.7467 28.5361 30.0029 21.5183 30.0029 21.5183C30.516 20.278 36.963 17.5932 38.4919 17.2368C39.1121 17.0926 39.6581 17.2018 40.0908 17.381C40.7233 17.6447 41.1065 18.063 41.1065 18.063C42.0255 17.3213 44.4836 17.6942 47.1395 18.4792C48.0831 18.7574 49.0536 19.0891 49.987 19.4414C53.5515 20.7828 54.32 23.0863 54.32 23.0863C53.6937 23.0781 52.4574 22.3281 52.3626 22.2704C53.8606 23.2985 54.3633 24.8542 54.5014 25.427C54.5343 25.5671 54.5487 25.6495 54.5487 25.6495L54.5467 25.6454Z" fill="#3F313D"/>
<g style="mix-blend-mode:multiply" opacity="0.9">
<path d="M54.5465 25.6453C54.2292 26.3129 53.9345 27.0361 53.6667 27.7635C52.6571 30.4956 52.0266 33.2627 52.0266 33.2627C51.3652 33.8149 50.3391 35.1933 50.3391 35.1933C50.0589 34.3589 49.7951 31.0375 49.6344 28.6453C49.5376 27.1948 49.4799 26.0904 49.4799 26.0904C49.0575 25.2436 46.1152 21.7862 41.8357 21.2628C37.5562 20.7395 35.3784 22.8617 35.3784 22.8617C35.0569 23.3562 34.7149 24.1783 34.3997 25.0622C33.7547 26.8713 33.2252 28.9317 33.2252 28.9317C32.7554 28.6206 32.5226 27.8685 32.5226 27.8685C32.1744 29.5272 31.2184 32.1233 31.2184 32.1233C30.7486 31.6309 30.3035 30.8273 30.3035 30.8273C30.5425 29.6014 30.4416 27.03 30.2953 24.8974C30.1675 23.0389 30.0068 21.5142 30.0068 21.5142C31.6181 21.0609 32.4484 21.3782 32.4484 21.3782C32.4484 21.3782 31.445 22.1818 31.0721 22.7051C31.0721 22.7051 32.638 23.0884 33.4807 22.9998C33.4807 22.9998 34.2863 21.4029 35.1579 20.4984C36.2705 19.3446 37.2307 19.1056 40.1173 19.6145L41.1063 18.0589C42.0253 17.3171 44.4834 17.6901 47.1392 18.4751C49.0719 20.1131 50.7058 21.3123 51.4517 28.0499C51.4517 28.0499 52.8116 26.4427 53.0836 25.7525C53.0836 25.7525 52.9579 24.7594 52.9558 24.1804C52.9558 24.1804 53.9551 24.5574 54.5032 25.4208C54.5362 25.5609 54.5506 25.6433 54.5506 25.6433L54.5465 25.6453Z" fill="#3F313D"/>
</g>
<path d="M50.4173 20.2801C49.9907 18.8522 49.4489 17.5088 48.9008 17.0617C47.6501 16.0397 44.4523 15.5391 43.2099 15.9305C42.3631 16.1963 41.0568 18.1043 40.3109 19.2911L40.2923 19.322C40.008 19.7753 39.8102 20.1173 39.7525 20.2142L39.7422 20.2306L39.736 20.243L39.7463 20.2512C39.7401 20.2471 39.734 20.243 39.7278 20.2409C39.7278 20.2409 39.7278 20.2409 39.7257 20.2409C39.0705 19.8536 38.2216 19.5218 37.3315 19.6311C35.4215 19.868 35.1042 21.5658 34.9888 21.914C34.8734 22.2622 35.3473 26.3728 36.2148 27.2773C36.2148 27.2773 36.2477 27.1825 36.3054 27.0197C36.5877 26.2182 37.4551 23.7766 37.7951 23.0555C38.4112 21.7533 40.9723 21.197 40.9723 21.197C43.9372 21.2732 45.2703 24.5719 45.5258 25.4394C45.5753 25.6104 45.5588 25.8597 45.4949 26.1502C45.2497 27.3164 44.2978 29.1461 44.269 29.2038C44.3761 29.1935 47.8335 28.87 48.8637 28.3199C49.9104 27.7615 51.1405 25.1963 51.2579 24.4854C51.3238 24.0857 50.9674 22.1159 50.4193 20.2842L50.4173 20.2801Z" fill="#3F313D"/>
<g style="mix-blend-mode:multiply" opacity="0.9">
<path d="M43.9004 16.5217C43.9004 16.5217 47.5206 17.997 48.2252 21.9921C48.9299 25.9873 45.4436 28.4289 44.2651 29.1995C44.2651 29.1995 46.7087 26.2469 47.1435 23.4344C47.4958 21.1515 46.2575 18.1124 43.9004 16.5217Z" fill="#3F313D"/>
</g>
<g style="mix-blend-mode:multiply" opacity="0.9">
<path d="M45.4922 26.1459C45.554 25.8554 45.5726 25.6061 45.5231 25.435C45.4696 25.2517 45.3686 24.9611 45.2141 24.6171C44.6516 23.3581 43.3865 21.3739 41.1715 21.2029C41.1056 21.1988 41.0376 21.1947 40.9696 21.1926C40.9696 21.1926 38.4085 21.7469 37.7924 23.0511C37.4504 23.7723 36.585 26.2139 36.3027 27.0154C36.3027 27.0154 36.6159 22.7977 37.3144 21.0917C37.9758 19.4742 39.5623 20.1604 39.7251 20.2366H39.7272C39.7354 20.2387 39.7375 20.2407 39.7375 20.2407L39.7436 20.2284L40.2917 19.3197L40.3103 19.2888C42.21 17.8877 44.6186 19.5958 45.5746 21.7201C46.5307 23.8465 45.4922 26.1438 45.4922 26.1438V26.1459Z" fill="#3F313D"/>
</g>
<g style="mix-blend-mode:multiply" opacity="0.9">
<path d="M51.2556 24.4812C51.1402 25.1921 49.908 27.7552 48.8613 28.3157C47.8311 28.8658 44.3737 29.1893 44.2666 29.1996C44.3552 29.1501 47.2027 27.541 48.6677 25.4682C49.7741 23.9002 50.4025 20.3624 50.417 20.28C50.965 22.1117 51.3215 24.0815 51.2556 24.4812Z" fill="#3F313D"/>
</g>
<g style="mix-blend-mode:multiply" opacity="0.9">
<path d="M45.2139 24.6171C44.6514 23.3582 43.3863 21.374 41.1713 21.203C41.1713 21.203 40.1287 19.6659 41.8203 19.8266C43.5119 19.9853 45.0861 22.534 45.2139 24.6171Z" fill="#3F313D"/>
</g>
<g style="mix-blend-mode:multiply" opacity="0.9">
<path d="M34.3973 25.0644C33.7524 26.8734 33.2229 28.9338 33.2229 28.9338C32.7531 28.6227 32.5203 27.8707 32.5203 27.8707C32.1721 29.5293 31.216 32.1254 31.216 32.1254C30.7463 31.633 30.3012 30.8294 30.3012 30.8294C30.5402 29.6035 30.4393 27.0321 30.293 24.8995C30.293 24.8995 32.032 26.8322 32.5986 26.9394C33.1549 27.0424 34.3541 25.1365 34.3994 25.0644H34.3973Z" fill="#3F313D"/>
</g>
<g style="mix-blend-mode:multiply" opacity="0.9">
<path d="M53.6641 27.7657C52.6545 30.4979 52.024 33.265 52.024 33.265C51.3626 33.8172 50.3365 35.1956 50.3365 35.1956C50.0563 34.3611 49.7925 31.0397 49.6318 28.6476C50.2644 30.4422 51.2163 30.9573 51.7685 30.879C52.3124 30.8028 53.6229 27.8564 53.662 27.7637L53.6641 27.7657Z" fill="#3F313D"/>
</g>
<g style="mix-blend-mode:multiply" opacity="0.6">
<path d="M36.9893 38.5271C36.9893 38.5271 37.7269 39.5779 38.7015 39.6624C39.676 39.7469 40.5167 38.83 40.5167 38.83C40.5167 38.83 38.6829 39.3245 36.9893 38.5271Z" fill="#CE78B1"/>
</g>
<path d="M38.8674 37.7296C38.8674 37.7296 37.4209 37.5422 36.2012 38.1273C36.2012 38.1273 37.39 38.8773 38.7602 38.9947C40.1304 39.1122 41.4285 38.5765 41.4285 38.5765C40.3261 37.7915 38.8694 37.7296 38.8694 37.7296H38.8674Z" fill="#EF7172"/>
<path d="M39.3591 37.1032C39.1304 37.0826 38.912 37.1898 38.912 37.1898C38.912 37.1898 38.7162 37.0476 38.4875 37.027C38.2588 37.0064 37.0226 37.299 36.458 38.0222C36.458 38.0222 37.8282 37.639 38.8646 37.7276C39.901 37.8162 41.1867 38.4281 41.1867 38.4281C40.754 37.6184 39.5857 37.1197 39.357 37.1012L39.3591 37.1032Z" fill="#DE4E6C"/>
<path d="M35.5536 37.3484C35.5989 37.4123 35.6484 37.4761 35.6958 37.54C35.7431 37.6039 35.7926 37.6657 35.8441 37.7254C35.8956 37.7852 35.9451 37.847 36.0007 37.9026C36.0543 37.9583 36.112 38.0118 36.1696 38.0448C36.1841 38.0531 36.1964 38.0572 36.2047 38.0592C36.2067 38.0592 36.2047 38.0592 36.2109 38.0592H36.2253H36.2521C36.2871 38.0592 36.3242 38.0551 36.3592 38.0469C36.4293 38.0345 36.4993 38.0077 36.5714 37.9768C36.7136 37.915 36.8619 37.845 37.0165 37.7893C37.3255 37.6739 37.6552 37.6224 37.9808 37.6018C38.1435 37.5915 38.3063 37.5915 38.4691 37.5956C38.6319 37.5998 38.7926 37.6101 38.9533 37.6265C39.114 37.641 39.2747 37.6636 39.4354 37.6904C39.5961 37.7172 39.7568 37.7481 39.9134 37.7934C40.2287 37.88 40.5398 38.0036 40.8159 38.1829C40.9539 38.2694 41.0838 38.3683 41.2136 38.4363C41.2795 38.4713 41.3454 38.494 41.4175 38.5043C41.4381 38.5084 41.4484 38.5084 41.4629 38.5084C41.4773 38.5084 41.4938 38.5063 41.5103 38.5022C41.5432 38.496 41.5783 38.4837 41.6133 38.4693C41.7513 38.4116 41.8853 38.323 42.013 38.2323C42.1408 38.1396 42.2664 38.0407 42.3859 37.9377L42.4148 37.9665C42.3056 38.086 42.1902 38.1973 42.0686 38.3044C41.945 38.4095 41.8173 38.5105 41.6669 38.5888C41.6277 38.6073 41.5886 38.6238 41.5432 38.6362C41.5206 38.6423 41.4979 38.6465 41.4732 38.6506C41.4485 38.6526 41.4196 38.6506 41.399 38.6506C41.3104 38.6423 41.2239 38.6176 41.1456 38.5826C41.0673 38.5476 40.9952 38.5043 40.9251 38.4631C40.8571 38.4219 40.7891 38.3807 40.7211 38.3415C40.1834 38.0263 39.557 37.9109 38.9306 37.8511C38.6174 37.8202 38.3022 37.8058 37.989 37.8202C37.8324 37.8264 37.6779 37.8388 37.5233 37.8635C37.3709 37.8882 37.2205 37.9232 37.0721 37.9686C36.9238 38.0139 36.7816 38.0757 36.6271 38.1334C36.5488 38.1602 36.4663 38.187 36.3798 38.1973C36.3365 38.2035 36.2912 38.2055 36.2479 38.2035H36.215L36.1985 38.1993C36.1944 38.1993 36.182 38.1993 36.1758 38.1952C36.1449 38.187 36.1223 38.1746 36.1017 38.1623C36.0234 38.1087 35.9698 38.0448 35.9162 37.983C35.8647 37.9191 35.8153 37.8532 35.7699 37.7873C35.6793 37.6533 35.5969 37.5153 35.5186 37.3752L35.5536 37.3525V37.3484Z" fill="#AC334D"/>
<path d="M36.0916 37.0456C36.0916 37.0456 35.5312 37.2228 35.1665 37.7626C35.1665 37.7626 35.0428 37.3691 35.3581 37.1033C35.6733 36.8375 36.0895 37.0435 36.0895 37.0435L36.0916 37.0456Z" fill="#DC6B7D"/>
<path d="M41.7617 37.5134C41.7617 37.5134 42.3222 37.6349 42.625 38.3231C42.625 38.3231 42.7404 37.9646 42.555 37.6823C42.3695 37.4021 41.7617 37.5113 41.7617 37.5113V37.5134Z" fill="#DC6B7D"/>
<g style="mix-blend-mode:soft-light" opacity="0.5">
<path d="M40.6531 38.8135C40.6531 38.8135 40.6655 38.5126 40.375 38.4282C40.2349 38.389 39.6724 38.5724 39.4849 38.6239C39.25 38.6878 39.3901 39.0071 39.3901 39.0071C39.3901 39.0071 39.8928 39.0174 40.6531 38.8135Z" fill="#FDF7BA"/>
</g>
<g style="mix-blend-mode:multiply" opacity="0.9">
<path d="M38.2015 28.223C38.2015 28.223 37.7091 27.9263 36.4502 27.7141C36.0772 27.6502 35.6363 27.5946 35.1212 27.5575C32.8692 27.3885 31.2373 27.5843 31.2373 27.5843C31.2558 27.5472 32.0017 26.6571 32.8506 26.3295C32.8444 26.3377 32.7229 26.4922 32.7126 26.6715C32.7126 26.6715 33.7098 26.1028 35.0017 25.9895C35.2428 25.9689 35.4921 25.9627 35.7496 25.9813C37.3794 26.0925 37.9831 27.3844 37.9831 27.3844C37.9831 27.3844 37.9831 27.0712 37.8389 26.8631C37.8389 26.8631 38.319 27.2752 38.2057 28.223H38.2015Z" fill="#010101"/>
<g style="mix-blend-mode:multiply" opacity="0.6">
<path d="M36.4502 27.7124C36.0772 27.6485 35.6363 27.5929 35.1212 27.5558C32.8692 27.3868 31.2373 27.5826 31.2373 27.5826C31.2558 27.5455 32.0017 26.6554 32.8506 26.3278C32.8444 26.336 32.7229 26.4905 32.7126 26.6698C32.7126 26.6698 33.7098 26.1011 35.0017 25.9878C34.5299 26.1464 33.5017 26.5132 32.8444 27.1952C32.8444 27.1952 34.1095 26.9356 36.4543 27.7124H36.4502Z" fill="#010101"/>
</g>
</g>
<g style="mix-blend-mode:multiply" opacity="0.9">
<path d="M43.2931 28.9049C43.2931 28.9049 43.8473 28.7483 45.1165 28.874C45.4936 28.9111 45.9325 28.975 46.4393 29.0718C48.6564 29.5024 50.179 30.1206 50.179 30.1206C50.1708 30.0793 49.6845 29.0244 48.9531 28.4846C48.9572 28.4949 49.0334 28.6741 48.9963 28.8513C48.9963 28.8513 48.1845 28.0395 46.9689 27.5904C46.7422 27.5059 46.5012 27.4358 46.2498 27.3843C44.6468 27.0629 43.7258 28.1487 43.7258 28.1487C43.7258 28.1487 43.8061 27.8459 44.0019 27.6831C44.0019 27.6831 43.4291 27.9551 43.291 28.8987L43.2931 28.9049Z" fill="#010101"/>
<g style="mix-blend-mode:multiply" opacity="0.6">
<path d="M45.1163 28.8741C45.4934 28.9112 45.9322 28.973 46.4391 29.0719C48.6561 29.5025 50.1788 30.1207 50.1788 30.1207C50.1705 30.0794 49.6843 29.0245 48.9528 28.4847C48.9569 28.495 49.0332 28.6742 48.9961 28.8514C48.9961 28.8514 48.1843 28.0396 46.9686 27.5905C47.3828 27.8686 48.277 28.4929 48.7324 29.3233C48.7324 29.3233 47.5806 28.7402 45.1143 28.872L45.1163 28.8741Z" fill="#010101"/>
</g>
</g>
</g>
<defs>
<filter id="filter0_d_477_4469" x="0" y="0" width="76" height="76" filterUnits="userSpaceOnUse" color-interpolation-filters="sRGB">
<feFlood flood-opacity="0" result="BackgroundImageFix"/>
<feColorMatrix in="SourceAlpha" type="matrix" values="0 0 0 0 0 0 0 0 0 0 0 0 0 0 0 0 0 0 127 0" result="hardAlpha"/>
<feOffset dy="4"/>
<feGaussianBlur stdDeviation="2"/>
<feComposite in2="hardAlpha" operator="out"/>
<feColorMatrix type="matrix" values="0 0 0 0 0 0 0 0 0 0 0 0 0 0 0 0 0 0 0.25 0"/>
<feBlend mode="normal" in2="BackgroundImageFix" result="effect1_dropShadow_477_4469"/>
<feBlend mode="normal" in="SourceGraphic" in2="effect1_dropShadow_477_4469" result="shape"/>
</filter>
<linearGradient id="paint0_linear_477_4469" x1="46.5895" y1="-5.78439e-07" x2="23.6842" y2="65.8526" gradientUnits="userSpaceOnUse">
<stop stop-color="#F7F2FD"/>
<stop offset="1" stop-color="#E1CEF6"/>
</linearGradient>
<linearGradient id="paint1_linear_477_4469" x1="51.706" y1="68.3659" x2="22.3724" y2="72.97" gradientUnits="userSpaceOnUse">
<stop stop-color="#F8A795"/>
<stop offset="0.43" stop-color="#F8A997"/>
<stop offset="0.52" stop-color="#F7A290"/>
<stop offset="0.76" stop-color="#F69684"/>
<stop offset="1" stop-color="#F69280"/>
</linearGradient>
<linearGradient id="paint2_linear_477_4469" x1="34.0047" y1="49.6935" x2="26.4224" y2="50.8835" gradientUnits="userSpaceOnUse">
<stop stop-color="#F8A795"/>
<stop offset="0.43" stop-color="#F8A997"/>
<stop offset="0.52" stop-color="#F7A290"/>
<stop offset="0.76" stop-color="#F69684"/>
<stop offset="1" stop-color="#F69280"/>
</linearGradient>
<linearGradient id="paint3_linear_477_4469" x1="32.9964" y1="73.2573" x2="62.6912" y2="73.2573" gradientUnits="userSpaceOnUse">
<stop stop-color="#F8A795"/>
<stop offset="0.43" stop-color="#F8A997"/>
<stop offset="0.52" stop-color="#F7A290"/>
<stop offset="0.76" stop-color="#F69684"/>
<stop offset="1" stop-color="#F69280"/>
</linearGradient>
<linearGradient id="paint4_linear_477_4469" x1="47.5898" y1="52.0658" x2="55.2649" y2="52.0658" gradientUnits="userSpaceOnUse">
<stop stop-color="#F8A795"/>
<stop offset="0.43" stop-color="#F8A997"/>
<stop offset="0.52" stop-color="#F7A290"/>
<stop offset="0.76" stop-color="#F69684"/>
<stop offset="1" stop-color="#F69280"/>
</linearGradient>
<linearGradient id="paint5_linear_477_4469" x1="27.3779" y1="73.5505" x2="52.6181" y2="73.5505" gradientUnits="userSpaceOnUse">
<stop stop-color="#F8A795"/>
<stop offset="0.43" stop-color="#F8A997"/>
<stop offset="0.52" stop-color="#F7A290"/>
<stop offset="0.76" stop-color="#F69684"/>
<stop offset="1" stop-color="#F69280"/>
</linearGradient>
<linearGradient id="paint6_linear_477_4469" x1="31.8408" y1="46.0045" x2="49.954" y2="46.0045" gradientUnits="userSpaceOnUse">
<stop stop-color="#F9AF9C"/>
<stop offset="0.2" stop-color="#F69B8E"/>
<stop offset="0.47" stop-color="#F48781"/>
<stop offset="0.73" stop-color="#F37B79"/>
<stop offset="1" stop-color="#F37777"/>
</linearGradient>
<linearGradient id="paint7_linear_477_4469" x1="31.2778" y1="31.3507" x2="51.1217" y2="31.3507" gradientUnits="userSpaceOnUse">
<stop stop-color="#F8A795"/>
<stop offset="0.43" stop-color="#F8A997"/>
<stop offset="0.52" stop-color="#F7A290"/>
<stop offset="0.76" stop-color="#F69684"/>
<stop offset="1" stop-color="#F69280"/>
</linearGradient>
<linearGradient id="paint8_linear_477_4469" x1="35.5278" y1="31.9333" x2="35.5531" y2="29.4362" gradientUnits="userSpaceOnUse">
<stop stop-color="#E6DBEC"/>
<stop offset="1" stop-color="#B8C1E2"/>
</linearGradient>
<linearGradient id="paint9_linear_477_4469" x1="35.1525" y1="31.9169" x2="35.3178" y2="30.1881" gradientUnits="userSpaceOnUse">
<stop stop-color="#57345B"/>
<stop offset="1" stop-color="#301138"/>
</linearGradient>
<linearGradient id="paint10_linear_477_4469" x1="35.1576" y1="31.8696" x2="35.2841" y2="30.5464" gradientUnits="userSpaceOnUse">
<stop stop-color="#A093B6"/>
<stop offset="0.99" stop-color="#734B61"/>
</linearGradient>
<linearGradient id="paint11_linear_477_4469" x1="37.6952" y1="30.1571" x2="33.591" y2="29.7648" gradientUnits="userSpaceOnUse">
<stop stop-color="#F7A190"/>
<stop offset="0.43" stop-color="#F3A592"/>
<stop offset="0.51" stop-color="#F39F8D"/>
<stop offset="0.76" stop-color="#F49383"/>
<stop offset="1" stop-color="#F58F80"/>
</linearGradient>
<linearGradient id="paint12_linear_477_4469" x1="44.5206" y1="32.9122" x2="45.1864" y2="30.0801" gradientUnits="userSpaceOnUse">
<stop stop-color="#E6DBEC"/>
<stop offset="1" stop-color="#B8C1E2"/>
</linearGradient>
<linearGradient id="paint13_linear_477_4469" x1="43.83" y1="32.7047" x2="44.101" y2="30.8578" gradientUnits="userSpaceOnUse">
<stop stop-color="#57345B"/>
<stop offset="1" stop-color="#301138"/>
</linearGradient>
<linearGradient id="paint14_linear_477_4469" x1="43.8475" y1="32.5824" x2="44.0468" y2="31.2247" gradientUnits="userSpaceOnUse">
<stop stop-color="#A093B6"/>
<stop offset="0.99" stop-color="#734B61"/>
</linearGradient>
<linearGradient id="paint15_linear_477_4469" x1="42.5537" y1="30.3058" x2="47.3077" y2="31.0036" gradientUnits="userSpaceOnUse">
<stop stop-color="#F7A190"/>
<stop offset="0.43" stop-color="#F3A592"/>
<stop offset="0.51" stop-color="#F39F8D"/>
<stop offset="0.76" stop-color="#F49383"/>
<stop offset="1" stop-color="#F58F80"/>
</linearGradient>
<linearGradient id="paint16_linear_477_4469" x1="38.78" y1="34.9825" x2="38.998" y2="33.1783" gradientUnits="userSpaceOnUse">
<stop stop-color="#F37B7F"/>
<stop offset="0.4" stop-color="#F3817F"/>
<stop offset="1" stop-color="#F48680"/>
</linearGradient>
<linearGradient id="paint17_linear_477_4469" x1="37.764" y1="34.2681" x2="37.8839" y2="33.2761" gradientUnits="userSpaceOnUse">
<stop stop-color="#FBE3D4"/>
<stop offset="0.99" stop-color="#AE7CB7"/>
</linearGradient>
<linearGradient id="paint18_linear_477_4469" x1="39.9076" y1="34.524" x2="40.0275" y2="33.5319" gradientUnits="userSpaceOnUse">
<stop stop-color="#FBE3D4"/>
<stop offset="0.99" stop-color="#AE7CB7"/>
</linearGradient>
<linearGradient id="paint19_linear_477_4469" x1="48.3195" y1="41.8235" x2="49.9692" y2="34.6319" gradientUnits="userSpaceOnUse">
<stop stop-color="#F7A190"/>
<stop offset="0.43" stop-color="#F3A592"/>
<stop offset="0.51" stop-color="#F39F8D"/>
<stop offset="0.76" stop-color="#F49383"/>
<stop offset="1" stop-color="#F58F80"/>
</linearGradient>
<linearGradient id="paint20_linear_477_4469" x1="48.7515" y1="39.9524" x2="49.8867" y2="35.0041" gradientUnits="userSpaceOnUse">
<stop stop-color="#F7A190"/>
<stop offset="0.43" stop-color="#F3A592"/>
<stop offset="0.51" stop-color="#F39F8D"/>
<stop offset="0.76" stop-color="#F49383"/>
<stop offset="1" stop-color="#F58F80"/>
</linearGradient>
<linearGradient id="paint21_linear_477_4469" x1="48.3772" y1="37.9535" x2="48.8706" y2="35.8026" gradientUnits="userSpaceOnUse">
<stop stop-color="#F7A190"/>
<stop offset="0.43" stop-color="#F3A592"/>
<stop offset="0.51" stop-color="#F39F8D"/>
<stop offset="0.76" stop-color="#F49383"/>
<stop offset="1" stop-color="#F58F80"/>
</linearGradient>
<linearGradient id="paint22_linear_477_4469" x1="50.5207" y1="38.5988" x2="47.4722" y2="37.8994" gradientUnits="userSpaceOnUse">
<stop stop-color="#F7A190"/>
<stop offset="0.43" stop-color="#F3A592"/>
<stop offset="0.51" stop-color="#F39F8D"/>
<stop offset="0.76" stop-color="#F49383"/>
<stop offset="1" stop-color="#F58F80"/>
</linearGradient>
</defs>
</svg>
