<svg width="16" height="17" viewBox="0 0 16 17" fill="none" xmlns="http://www.w3.org/2000/svg">
<g id="SVG" clip-path="url(#clip0_1_234)">
<g id="Symbols">
<g id="Icons/Social">
<path id="Shape" d="M0.940214 6.03301H4.15489V15.5588H0.940214V6.03301ZM2.56907 1.44116C1.46882 1.44116 0.75 2.15242 0.75 3.08597C0.75 4.00031 1.44778 4.73225 2.527 4.73225H2.5475C3.66879 4.73225 4.36707 4.00028 4.36707 3.08597C4.34604 2.15242 3.66882 1.44116 2.56907 1.44116ZM12.0478 5.80924C10.3414 5.80924 9.57697 6.73343 9.1505 7.38156V6.03301H5.93486C5.97743 6.92664 5.93486 15.5588 5.93486 15.5588H9.1505V10.2389C9.1505 9.95401 9.17154 9.67014 9.25614 9.46603C9.48897 8.89723 10.018 8.30822 10.9055 8.30822C12.0699 8.30822 12.5349 9.18216 12.5349 10.4621V15.5588H15.75V10.0965C15.75 7.17063 14.1642 5.80924 12.0478 5.80924Z" fill="black"/>
</g>
</g>
</g>
<defs>
<clipPath id="clip0_1_234">
<rect width="15" height="16" fill="white" transform="translate(0.75 0.5)"/>
</clipPath>
</defs>
</svg>
