<svg width="98" height="36" viewBox="0 0 98 36" fill="none" xmlns="http://www.w3.org/2000/svg">
<path d="M8.63648 0.655987C4.87965 1.60901 1.91685 4.6825 1.15837 8.4231C1.0043 9.14978 0.96875 10.1385 0.96875 13.1406V16.9407L1.58501 16.8335C3.19678 16.5357 4.34634 15.3921 4.63077 13.8315C4.70188 13.4384 4.76114 12.3424 4.76114 11.4013C4.76114 8.73283 5.21148 7.45817 6.65733 6.01673C7.93726 4.74206 9.18164 4.22981 10.983 4.22981C14.7399 4.22981 17.6671 7.5773 17.1101 11.2226C16.9679 12.128 16.5294 13.2835 16.079 13.9268C15.9487 14.1293 14.0762 16.2617 11.9193 18.68C9.7505 21.0983 7.8306 23.3498 7.65283 23.6833C7.3447 24.2313 7.30915 24.4219 7.30915 25.3154C7.321 26.1612 7.3684 26.4352 7.64098 26.9951C7.92541 27.5907 8.49427 28.2936 8.58908 28.1625C8.61278 28.1387 10.8171 25.6728 13.4836 22.6946C16.1502 19.7164 18.5915 16.9645 18.8996 16.5833C19.5633 15.7614 20.4284 14.0102 20.7129 12.8666C20.8788 12.259 20.9262 11.6038 20.9262 10.4244C20.9143 9.04257 20.8669 8.67327 20.5944 7.7679C19.5514 4.3132 17.1812 1.84726 13.8273 0.775116C12.6185 0.381994 9.94012 0.32243 8.63648 0.655987Z" fill="black"/>
<path d="M8.4942 12.9857C5.82768 15.9639 3.38633 18.7158 3.0782 19.0851C2.42638 19.8832 1.56124 21.5867 1.25311 22.6946C0.944978 23.7787 0.944978 26.7092 1.24126 27.8171C1.73901 29.6278 3.13745 31.8794 4.42923 32.9515C6.36098 34.5597 8.44679 35.3221 10.9237 35.3221C15.4983 35.3221 19.3262 32.4154 20.6535 27.9362C20.9024 27.1023 20.9261 26.7688 20.9735 22.9091L21.0209 18.7634L20.618 18.8349C19.3618 19.0612 18.4492 19.6092 17.8685 20.4908C17.3234 21.3247 17.2048 21.9441 17.2048 24.0289C17.2048 26.1612 17.0389 26.9951 16.4108 28.1983C14.4672 31.9151 9.58451 32.6418 6.58615 29.6636C4.68996 27.7814 4.23961 24.8866 5.44844 22.4921C5.81583 21.7773 6.31358 21.1817 10.3193 16.7382C14.5502 12.0327 14.6687 11.854 14.645 10.3649C14.6331 9.6859 14.562 9.25704 14.3961 8.87583C14.1591 8.33976 13.5784 7.56543 13.4362 7.56543C13.3887 7.57734 11.1726 10.0075 8.4942 12.9857Z" fill="black"/>
<path d="M33.7378 17.989V24.4934L35.0177 24.4577L36.2858 24.4219L36.3451 21.3246C36.4043 18.5013 36.428 18.1916 36.6532 17.7627C37.068 16.9526 38.0753 16.631 39.0116 17.0241C39.7819 17.3577 39.8412 17.5959 39.8767 21.2412L39.9123 24.4934L41.1804 24.4577L42.4484 24.4219V20.9672C42.4484 17.9295 42.4247 17.4291 42.2351 16.8573C41.7848 15.5231 41.0381 14.9513 39.5923 14.856C38.4309 14.7845 37.5657 15.0585 36.8665 15.7375L36.3451 16.2498L36.3214 13.903L36.2858 11.5562L35.0177 11.5204L33.7378 11.4847V17.989Z" fill="black"/>
<path d="M44.4038 12.5688V13.641H45.7074H47.0111V12.5688V11.4967H45.7074H44.4038V12.5688Z" fill="black"/>
<path d="M71.0335 17.7747C71.0453 21.2413 71.0572 24.1599 71.0572 24.2671C71.069 24.4577 71.2112 24.4816 72.3134 24.4816H73.5578L73.5696 21.6463C73.5815 18.5609 73.5815 18.4299 73.8659 17.7866C74.2096 17.0242 75.4777 16.6192 76.3191 17.0004C76.5087 17.0957 76.7576 17.3816 76.8998 17.6913C77.1487 18.1916 77.1724 18.4061 77.1961 21.146C77.2079 22.7542 77.2198 24.1599 77.2198 24.2671C77.2317 24.4577 77.3739 24.4816 78.4879 24.4816H79.7323L79.6967 20.8124C79.6611 17.6794 79.6256 17.0837 79.4478 16.6192C79.199 15.9997 78.7368 15.4755 78.239 15.2611C77.362 14.8799 77.1842 14.8322 76.5324 14.8322C75.5369 14.8322 74.8259 15.1181 74.1385 15.8091L73.5578 16.3928V13.9388V11.4967H72.2897H71.0098L71.0335 17.7747Z" fill="black"/>
<path d="M53.4464 14.987C52.8183 15.2253 52.0005 15.8805 51.7872 16.3213C51.6806 16.5476 51.562 16.7382 51.5146 16.7382C51.4791 16.7382 51.4435 16.357 51.4554 15.9043L51.4672 15.0704H50.2466H49.0259V19.776V24.4934L50.3058 24.4577L51.5739 24.4219L51.6331 21.682C51.6924 19.0731 51.7043 18.9182 51.9887 18.3703C52.3916 17.584 53.2212 17.1671 54.2404 17.2385C54.6315 17.2624 54.9633 17.2505 54.9633 17.1909C55.0107 16.905 55.0226 15.1062 54.9752 14.9751C54.9159 14.7964 53.9678 14.7964 53.4464 14.987Z" fill="black"/>
<path d="M58.4596 15.0824C57.5945 15.3802 56.836 15.8925 56.4094 16.4762C56.2316 16.7144 56.042 16.9408 56.0064 16.9765C55.9116 17.0599 55.5442 17.7866 55.5442 17.8938C55.5324 17.9534 55.485 18.2035 55.4139 18.4656C55.2005 19.228 55.2598 20.6337 55.5442 21.5272C55.7931 22.3611 56.4568 23.326 57.0493 23.7311C58.4833 24.7317 60.6402 24.9342 62.169 24.2076C63.046 23.7906 64.1008 22.5398 64.2549 21.7297C64.3023 21.5153 64.2193 21.5034 63.1764 21.5034C62.5483 21.5034 62.0624 21.551 62.0624 21.6225C62.0624 21.8131 61.4698 22.3373 61.0313 22.516C60.5217 22.7304 59.467 22.7542 59.0166 22.5517C58.4241 22.2896 58.0093 21.6821 57.8671 20.872C57.7959 20.5027 57.8196 20.4312 57.9974 20.4193C58.1159 20.4193 59.5499 20.4074 61.1735 20.4074C62.809 20.4074 64.2312 20.3836 64.3615 20.3478C64.5511 20.2883 64.5748 20.2049 64.5037 19.4901C64.243 16.5477 62.5364 14.8203 59.9173 14.8322C59.4788 14.8441 58.8626 14.9394 58.4596 15.0824ZM61.138 17.1076C61.458 17.3339 61.7424 17.8581 61.8965 18.4894L61.9676 18.7634H59.8818H57.7959L57.8433 18.4775C57.9737 17.7389 58.5189 17.0718 59.1588 16.8574C59.6803 16.6906 60.735 16.8217 61.138 17.1076Z" fill="black"/>
<path d="M84.4135 15.0824C83.655 15.3445 82.8847 15.821 82.5054 16.2737C82.2329 16.5953 81.7944 17.2744 81.8536 17.2744C81.8655 17.2744 81.7588 17.5126 81.6047 17.8104C81.3559 18.2869 81.3203 18.5014 81.3203 19.776C81.3203 21.1937 81.3203 21.2294 81.7588 22.1109C82.2566 23.1354 82.7899 23.6596 83.7498 24.1361C84.295 24.3982 85.326 24.6484 85.9423 24.6484C86.5348 24.6603 87.637 24.4339 88.0874 24.2195C89.0117 23.7906 89.9124 22.7423 90.2087 21.7655C90.2798 21.5034 90.268 21.5034 89.154 21.5034C88.514 21.5034 88.0162 21.551 88.0162 21.6225C88.0162 21.6821 87.8859 21.8727 87.7081 22.0395C86.6889 23.064 84.6861 22.8853 84.1172 21.7178C83.7972 21.0507 83.6787 20.4312 83.8565 20.4193C83.9276 20.4074 85.4445 20.3955 87.2222 20.3836L90.4457 20.3717L90.422 19.4425C90.3865 18.3942 90.1021 17.4769 89.5688 16.7025C88.4903 15.1182 86.2978 14.4272 84.4135 15.0824ZM87.0682 17.0957C87.4118 17.3458 87.8977 18.2036 87.8977 18.5609C87.8977 18.7396 87.6963 18.7635 85.8949 18.7635C84.6979 18.7635 83.8565 18.7158 83.8091 18.6443C83.7024 18.4775 84.1765 17.4769 84.4846 17.2029C84.6387 17.0838 84.9231 16.9289 85.1127 16.8574C85.6223 16.6906 86.6889 16.8217 87.0682 17.0957Z" fill="black"/>
<path d="M96.5492 14.9395C95.7907 15.1777 95.0559 15.7853 94.57 16.5715C94.4515 16.7621 94.4278 16.6549 94.4278 15.9282L94.4159 15.0705H93.2308H92.0457L92.0339 16.8217C92.022 17.7985 92.0102 19.8475 91.9983 21.3843C91.9865 22.921 91.9983 24.2552 92.022 24.3267C92.0576 24.4339 92.4249 24.4816 93.3019 24.4816H94.5345V21.9442C94.5345 20.4908 94.5937 19.2161 94.6648 18.9421C94.973 17.7985 95.8262 17.2267 97.1773 17.2148H97.9832L97.9476 16.0473L97.9121 14.8918L97.3788 14.868C97.0825 14.8561 96.7151 14.8918 96.5492 14.9395Z" fill="black"/>
<path d="M44.4275 19.7402L44.4631 24.4219L45.743 24.4577L47.0111 24.4934V19.776V15.0704H45.7074H44.4038L44.4275 19.7402Z" fill="black"/>
</svg>
