<svg width="205" height="473" viewBox="0 0 205 473" fill="none" xmlns="http://www.w3.org/2000/svg">
<path d="M91.6501 81.0483C92.1183 79.6567 92.1289 68.0299 92.1289 68.0299L117.668 67.1907C117.668 67.1907 115.535 92.5901 115.843 93.7905" fill="url(#paint0_linear_9_10)"/>
<g style="mix-blend-mode:multiply" opacity="0.6">
<path d="M117.859 72.0454C117.859 72.0454 114.864 72.8846 114.141 74.1753C113.417 75.466 108.763 85.1753 105.092 85.3293C101.422 85.4834 99.0441 80.3206 97.1822 79.1309C95.3204 77.9411 91.9479 77.8561 91.9479 77.8561L92.1287 68.0247L117.668 67.1854L117.864 72.0454H117.859Z" fill="#8D307F"/>
</g>
<path style="mix-blend-mode:multiply" opacity="0.6" d="M100.299 73.8725L101.246 83.55C101.246 83.55 98.9694 81.0005 97.8044 79.1415C96.6395 77.2824 94.4691 70.0005 94.4691 70.0005L100.305 73.8725H100.299Z" fill="url(#paint1_linear_9_10)"/>
<path d="M86.9692 48.0642C86.9692 48.0642 84.7563 44.7021 83.2562 44.7074C82.3412 44.7074 80.139 46.6248 80.1656 48.4519C80.1975 50.8952 82.3678 53.6731 82.9051 55.1019C83.4477 56.5253 84.8467 58.3843 85.7776 58.5649C86.7085 58.7455 87.9214 56.9874 87.9214 56.9874C87.9214 56.9874 87.4692 50.2844 86.9692 48.0642V48.0642Z" fill="url(#paint2_linear_9_10)"/>
<path style="mix-blend-mode:multiply" opacity="0.6" d="M86.8038 51.6441C86.8038 51.6441 83.1706 47.1666 81.8514 47.1666C80.5321 47.1666 80.5321 49.7161 81.0641 51.1661C81.4311 52.17 82.1546 53.6253 82.1546 53.6253C82.1546 53.6253 81.5854 52.0638 81.5162 50.8952C81.4099 49.0947 81.8088 47.788 82.2663 47.7934C83.1015 47.7987 83.7611 48.9406 83.8621 49.3443C83.9685 49.748 83.2025 51.522 83.4047 52.7596C83.6068 53.9971 84.3515 54.4698 84.5962 54.3317C84.8463 54.199 84.4632 52.802 84.6867 52.3081C84.9101 51.8141 85.5644 51.0971 85.9474 51.2511C86.3304 51.4104 86.8038 51.6388 86.8038 51.6388V51.6441Z" fill="url(#paint3_linear_9_10)"/>
<path style="mix-blend-mode:multiply" opacity="0.6" d="M86.8038 51.6443C86.8038 51.6443 85.9102 51.1078 85.6389 51.2831C85.3676 51.4531 84.676 52.0745 84.6441 52.4622C84.6175 52.85 84.8622 53.9654 84.6441 54.1566C84.426 54.3478 83.6334 53.0996 83.6015 51.9895C83.5643 50.8847 84.1866 49.6047 84.1866 49.456C84.1866 49.3072 84.043 48.5955 84.043 48.5955C84.043 48.5955 86.1549 50.5873 86.8038 51.639V51.6443Z" fill="url(#paint4_linear_9_10)"/>
<path d="M121.691 48.0642C121.691 48.0642 123.904 44.7021 125.404 44.7074C126.319 44.7074 128.522 46.6248 128.495 48.4519C128.463 50.8952 126.293 53.6731 125.755 55.1019C125.213 56.5253 123.814 58.3843 122.883 58.5649C121.952 58.7455 120.739 56.9874 120.739 56.9874C120.739 56.9874 121.191 50.2844 121.691 48.0642V48.0642Z" fill="url(#paint5_linear_9_10)"/>
<path style="mix-blend-mode:multiply" opacity="0.6" d="M121.856 51.6441C121.856 51.6441 125.489 47.1666 126.808 47.1666C128.127 47.1666 128.127 49.7161 127.596 51.1661C127.228 52.17 126.505 53.6253 126.505 53.6253C126.505 53.6253 127.074 52.0638 127.143 50.8952C127.25 49.0947 126.851 47.788 126.393 47.7934C125.558 47.7987 124.899 48.9406 124.797 49.3443C124.691 49.748 125.457 51.522 125.255 52.7596C125.053 53.9971 124.308 54.4698 124.063 54.3317C123.813 54.199 124.196 52.802 123.973 52.3081C123.75 51.8141 123.095 51.0971 122.712 51.2511C122.329 51.4104 121.856 51.6388 121.856 51.6388V51.6441Z" fill="url(#paint6_linear_9_10)"/>
<path style="mix-blend-mode:multiply" opacity="0.6" d="M121.856 51.6443C121.856 51.6443 122.75 51.1078 123.021 51.2831C123.292 51.4531 123.984 52.0745 124.016 52.4622C124.048 52.85 123.798 53.9654 124.016 54.1566C124.234 54.3478 125.027 53.0996 125.058 51.9895C125.096 50.8847 124.473 49.6047 124.473 49.456C124.473 49.3072 124.617 48.5955 124.617 48.5955C124.617 48.5955 122.505 50.5873 121.856 51.639V51.6443Z" fill="url(#paint7_linear_9_10)"/>
<path d="M86.481 48.1812C86.7576 51.2087 87.3427 54.0344 87.481 57.2C87.6193 60.3657 87.88 62.9417 88.3747 64.1209C88.5981 64.652 88.9918 65.1991 89.4865 65.7568C90.8962 67.3449 93.1357 69.0074 94.6517 70.5689C95.2262 71.1585 95.822 71.6578 96.3806 72.0774C96.3806 72.0774 96.3859 72.0774 96.3912 72.0827C97.5189 72.9219 98.5243 73.4212 98.9978 73.6124C100.445 74.2073 104.195 74.2073 104.195 74.2073C104.195 74.2073 107.945 74.2073 109.392 73.6124C110.105 73.3203 112.009 72.343 113.738 70.5689C115.531 68.7259 118.329 66.7394 119.574 64.9123C119.76 64.6467 119.909 64.3811 120.02 64.1209C120.515 62.9417 120.781 60.3657 120.914 57.2C121.052 54.0344 121.638 51.2087 121.914 48.1812C122.191 45.1484 122.531 34.653 121.638 32.2416C120.739 29.8302 110.121 23.3608 104.19 23.3608C100.03 23.3608 93.5506 26.5477 89.7578 29.2831C88.146 30.4463 87.0129 31.5245 86.747 32.2416C85.848 34.653 86.1937 45.1537 86.4703 48.1812H86.481Z" fill="url(#paint8_linear_9_10)"/>
<path d="M107.496 19.7698C107.496 19.7698 105.14 18.3888 101.751 18.5269C98.3576 18.665 94.5116 20.4921 94.5116 20.4921L103.826 25.5061L108.028 23.9711L107.502 19.7698H107.496Z" fill="url(#paint9_linear_9_10)"/>
<path d="M84.0427 34.7109L84.979 34.0417L86.5642 46.7626C86.5642 46.7626 86.1865 42.4603 86.7717 40.0808C87.3568 37.7013 87.2185 32.9422 87.2185 32.9422C87.2185 32.9422 90.7985 28.5974 94.1338 27.5989C94.1338 27.5989 98.5012 28.1141 105.06 28.3584C111.619 28.5974 115.385 28.4965 115.385 28.4965C115.385 28.4965 119.763 30.9079 121.146 33.3246C121.146 33.3246 121.109 36.9789 121.215 38.907C121.322 40.835 122.274 47.4424 122.274 47.4424C122.274 47.4424 122.274 47.4159 122.279 47.3734C122.333 46.5448 122.875 38.7264 123.45 35.497C123.471 35.3802 123.492 35.2686 123.508 35.1518C123.572 34.7375 123.625 34.3232 123.662 33.9089C123.662 33.8983 123.662 33.8876 123.668 33.8717C123.806 32.3845 123.79 30.9132 123.748 29.8297C123.748 29.7553 123.742 29.681 123.737 29.6066C123.732 29.5376 123.726 29.4685 123.726 29.3995C123.726 29.341 123.721 29.2773 123.716 29.2242C123.716 29.1658 123.71 29.1073 123.705 29.0542C123.694 28.9267 123.689 28.8046 123.678 28.6984C123.673 28.6399 123.668 28.5815 123.662 28.5337C123.662 28.5231 123.662 28.5125 123.662 28.5071C123.662 28.454 123.652 28.4115 123.652 28.3637C123.641 28.2681 123.636 28.1938 123.63 28.146C123.63 28.13 123.63 28.1194 123.63 28.1141C123.63 28.0822 123.625 28.0716 123.625 28.0716L123.508 28.1088L122.7 29.6704C122.7 29.6704 122.7 29.6703 122.689 29.6544C122.689 29.6544 122.678 29.6438 122.673 29.6385C122.673 29.6385 122.668 29.6332 122.662 29.6279C122.646 29.6119 122.63 29.596 122.609 29.5694C122.375 29.2932 121.625 28.4328 120.55 27.3121C120.492 27.2483 120.433 27.1846 120.375 27.1262C120.359 27.1049 120.343 27.089 120.327 27.0731C120.231 26.9721 120.114 26.85 119.981 26.7225C119.949 26.6906 119.912 26.6535 119.875 26.6163C118.838 25.5593 117.572 24.3536 116.21 23.2116C116.199 23.201 116.194 23.1957 116.183 23.1904C116.135 23.1532 116.093 23.1107 116.04 23.0735C115.55 22.6646 115.05 22.2662 114.539 21.8891C110.241 18.6863 105.321 17.0291 105.321 17.0291H103.092C103.092 17.0291 105.677 21.2942 106.246 23.9659C106.172 23.7959 103.661 18.2507 101.608 17.0291C101.608 17.0291 99.6182 16.7689 97.3947 17.8046C97.3947 17.8046 101.14 20.9543 102.065 23.44C101.911 23.3126 95.7456 18.1605 91.2454 20.8534C91.3677 20.8268 92.6444 20.5825 93.8625 20.7259C93.8625 20.7259 92.5646 21.2676 90.5272 23.5463C90.2293 23.8809 89.8889 24.2899 89.5325 24.752C87.4472 27.4289 84.6119 31.9436 84.0427 34.7109Z" fill="url(#paint10_linear_9_10)"/>
<path d="M104.443 28.3266C104.443 28.3266 98.746 16.8273 91.2402 20.8587C91.2402 20.8587 98.363 20.3063 103.395 28.2841L104.443 28.3319V28.3266Z" fill="url(#paint11_linear_9_10)"/>
<path d="M101.614 17.0344C101.614 17.0344 106.205 21.8465 106.88 28.3318H104.449C104.449 28.3318 103.912 22.0059 99.0286 17.2468C99.0286 17.2468 100.13 17.0344 101.614 17.0344V17.0344Z" fill="url(#paint12_linear_9_10)"/>
<path d="M105.322 17.0344C105.322 17.0344 108.981 22.0324 109.274 28.4752C109.274 28.4752 108.582 22.5636 104.444 17.0344H105.322V17.0344Z" fill="url(#paint13_linear_9_10)"/>
<path d="M123.115 29.5166C123.115 29.5166 121.934 31.4499 120.822 32.8203L121.147 33.3143V34.7112C121.147 34.7112 122.721 33.9676 123.625 32.2201V28.0666L123.115 29.5219V29.5166Z" fill="url(#paint14_linear_9_10)"/>
<path d="M116.811 23.6738C116.811 23.6738 118.598 25.793 119.051 30.9983L118.178 30.3078C118.178 30.3078 118.327 25.8727 115.502 22.6168L116.811 23.6738V23.6738Z" fill="url(#paint15_linear_9_10)"/>
<path d="M99.5279 28.0611C99.5279 28.0611 95.9904 23.5942 89.9953 23.4933L90.3038 23.812L88.1654 24.3219C88.1654 24.3219 91.4954 25.0283 94.1392 27.5937L99.5332 28.0611H99.5279Z" fill="url(#paint16_linear_9_10)"/>
<g style="mix-blend-mode:multiply" opacity="0.6">
<path d="M99.1079 27.5936H94.1342C94.1342 27.5936 98.5015 28.1088 105.06 28.3532C111.619 28.5922 115.386 28.4913 115.386 28.4913C115.386 28.4913 119.764 30.9027 121.147 33.3194C121.147 33.3194 121.109 36.9736 121.216 38.9017C121.322 40.8297 122.274 47.4372 122.274 47.4372C122.274 47.4372 122.274 47.4106 122.28 47.3681C122.359 46.5289 123.115 38.6308 123.509 35.1465C123.567 34.6154 123.62 34.1904 123.663 33.9036C123.663 33.893 123.663 33.8824 123.668 33.8664C123.849 32.5545 123.806 30.8283 123.737 29.6014C123.732 29.5323 123.727 29.4633 123.727 29.3942C123.727 29.3358 123.721 29.272 123.716 29.2189C123.716 29.1605 123.711 29.1021 123.705 29.049C123.695 28.9215 123.689 28.7993 123.679 28.6931C123.673 28.6347 123.668 28.5763 123.663 28.5284C123.663 28.5178 123.663 28.5072 123.663 28.5019C123.663 28.4488 123.652 28.4063 123.652 28.3585C123.641 28.2629 123.636 28.1885 123.631 28.1407C123.631 28.1248 123.631 28.1142 123.631 28.1088C123.631 28.077 123.626 28.0664 123.626 28.0664L123.509 28.1035L122.7 29.6651C122.7 29.6651 122.7 29.6651 122.689 29.6492C122.689 29.6492 122.679 29.6385 122.673 29.6332C122.673 29.6332 122.668 29.6279 122.663 29.6226C122.45 29.3889 121.296 28.0982 120.375 27.1209C120.359 27.0997 120.343 27.0837 120.327 27.0678C120.232 26.9669 120.115 26.8447 119.982 26.7172C118.907 25.6496 116.817 23.7588 116.215 23.2117C116.205 23.2011 116.2 23.1958 116.189 23.1904C116.098 23.1108 116.045 23.063 116.045 23.063V23.0789C116.295 25.7453 115.492 27.4237 115.492 27.4237C110.774 27.822 99.1026 27.5989 99.1026 27.5989L99.1079 27.5936Z" fill="#8D307F"/>
</g>
<g style="mix-blend-mode:multiply" opacity="0.6">
<path d="M84.0436 34.7109L84.9798 34.0417L86.5651 46.7626C86.5651 46.7626 86.1874 42.4603 86.7725 40.0808C87.3577 37.7013 87.2194 32.9422 87.2194 32.9422C87.2194 32.9422 90.7994 28.5975 94.1347 27.5989L93.8421 27.328L89.5387 24.752H89.5333C87.4481 27.4343 84.6128 31.949 84.0436 34.7162V34.7109Z" fill="#8D307F"/>
</g>
<path d="M90.2619 29.9041C90.2619 29.9041 89.0863 29.4526 87.4638 29.5217C85.8414 29.5907 85.0807 30.9876 85.0807 30.9876C85.0807 30.9876 87.0064 30.3396 89.597 30.4831L90.2619 29.9041V29.9041Z" fill="url(#paint17_linear_9_10)"/>
<path d="M119.482 31.3756C119.482 31.3756 122.487 28.4755 120.822 25.0443C120.822 25.0443 120.327 27.0733 119.019 30.6691L119.482 31.3702V31.3756Z" fill="url(#paint18_linear_9_10)"/>
<path d="M175.796 452.255C175.658 451.214 175.2 449.992 173.892 449.365C170.072 447.544 156.018 441.85 152.257 438.705C149.337 436.262 146.847 431.046 145.879 428.837L119.436 429.522C117.718 436.331 116.361 449.493 116.09 452.25H175.796V452.255Z" fill="#4F6BAF"/>
<path d="M175.796 458.241H116.09V452.26H175.796V458.241Z" fill="#FFEFE6"/>
<path d="M90.6924 429.765C90.2881 429.165 90.1923 425.028 90.1923 421.782L68.6058 417.416C66.095 423.126 62.0841 436.899 59.9776 444.361C59.1264 447.389 58.5839 449.381 58.5839 449.381C58.5839 449.381 60.0308 456.965 74.0849 458.224C87.4368 459.419 94.8416 454.076 94.8416 451.866C94.8416 451.229 94.5862 449.248 94.2032 446.719C93.2457 440.5 91.4797 430.939 90.6924 429.76V429.765Z" fill="#FFEFE6"/>
<path d="M90.1921 421.782L68.6055 417.416C66.0947 423.126 62.0838 436.899 59.9773 444.361C63.2648 446.603 64.8872 451.394 74.0846 452.238C84.6545 453.205 91.0325 449.046 94.203 446.719C93.2455 440.5 91.4794 430.939 90.6921 429.76C90.2878 429.16 90.1921 425.022 90.1921 421.777V421.782Z" fill="#4F6BAF"/>
<path d="M154.681 428.841C153.963 402.284 155.527 339.848 155.825 335.663C156.128 331.392 153.261 286.404 151.213 255.401C150.106 238.681 149.245 226.035 149.245 226.035H72.1012L72.3406 251.678L70.3883 329.953C70.3883 329.953 60.5791 395.703 57.1906 423.849C69.3829 428.889 83.8147 429.675 96.9805 428.13L106.518 333.756L115.577 259.077L116.328 254.414L116.556 259.104L115.652 333.055L112.572 433.016C126.834 435.943 140.904 433.064 154.681 428.836V428.841Z" fill="#2A2A2C"/>
<path d="M151.213 255.401C143.899 257.367 132.111 259.534 116.562 259.109L116.333 254.419L115.583 259.082C103.337 258.668 88.8099 256.639 72.346 251.683L72.3194 248.491L72.3035 246.457L72.2769 243.398L72.2503 241.289L72.112 226.04H149.239C149.239 226.04 149.553 230.64 150.048 237.959C150.096 238.67 150.138 239.414 150.192 240.179C150.282 241.475 150.372 242.845 150.468 244.274C150.511 244.938 150.559 245.623 150.601 246.314C150.793 249.155 150.995 252.209 151.208 255.407L151.213 255.401Z" fill="#2A2A2C"/>
<path d="M84.3771 226.04C83.1909 233.449 78.9991 240.328 72.2646 243.398L72.238 241.289C77.8661 238.352 81.4142 232.472 82.494 226.04H84.3718H84.3771Z" fill="#2A2A2C"/>
<path d="M92.0424 226.04C89.4358 236.312 82.0311 244.63 72.3177 248.486L72.3017 246.452C81.0044 242.75 87.5634 235.298 90.1008 226.04H92.0477H92.0424Z" fill="#2A2A2C"/>
<path d="M150.196 240.179C144.887 237.555 140.983 231.936 139.86 226.04H141.791C142.818 230.873 145.866 235.484 150.052 237.959C150.1 238.67 150.143 239.414 150.196 240.179V240.179Z" fill="#2A2A2C"/>
<path d="M150.605 246.314C141.839 243.212 135.631 235.303 134.679 226.04H136.53C137.423 234.219 142.86 241.268 150.477 244.274C150.52 244.938 150.568 245.623 150.61 246.314H150.605Z" fill="#2A2A2C"/>
<path d="M150.009 231.852V231.867L127.529 233.27L122.444 226.035L112.571 234.204L72.5733 236.706H72.4722C72.4722 236.706 50.0345 103.899 77.7598 84.2624C79.9727 82.7009 82.4622 81.851 85.2709 81.851L91.399 75.387L105.155 85.8718L113.571 92.7607L116.491 81.8457C116.491 81.8457 118.901 85.3619 119.725 88.1823C119.725 88.1823 119.784 88.1929 119.896 88.2088C121.114 88.4107 128.683 89.8448 135.264 95.5652C135.492 95.767 135.726 95.9689 135.95 96.1813C137.929 98.0085 139.79 100.245 141.338 102.969C149.084 116.641 149.967 226.312 150.004 231.66C150.009 231.751 150.009 231.809 150.009 231.846V231.852Z" fill="#3C3148"/>
<path d="M113.576 92.7713C113.576 92.7713 124.082 207.833 122.449 226.035C122.449 226.035 126.407 149.816 113.576 92.7713Z" fill="#261D30"/>
<path d="M116.497 81.8564L113.576 92.7714L120.38 102.975C120.327 95.3474 120.05 89.2765 119.731 88.1876C118.906 85.3726 116.502 81.8511 116.502 81.8511L116.497 81.8564Z" fill="#261D30"/>
<path d="M113.576 92.7712L103.889 104.903L85.2764 81.8562L91.4045 75.3921L113.576 92.7712Z" fill="#261D30"/>
<path d="M82.7549 222.493C82.7549 222.493 93.6067 218.849 95.0429 221.903C96.4845 224.957 87.9733 228.643 87.9733 228.643L82.7549 222.493Z" fill="#F69787"/>
<path d="M106.416 239.664C104.767 241.672 92.2658 228.824 92.2658 228.824L87.6964 230.81L92.4201 236.669L94.3883 247.451C94.3883 247.451 92.6382 248.673 90.4146 250.043C90.138 250.218 89.8508 250.388 89.5635 250.558C88.223 251.36 86.7708 252.168 85.4569 252.768C85.3345 252.832 85.2015 252.885 85.0792 252.943C84.4142 253.225 83.7972 253.453 83.2599 253.596C82.6588 253.75 82.1588 253.793 81.7917 253.692L78.467 245.82C78.467 245.82 67.1418 242.533 65.8864 241.258C65.3917 240.748 64.7108 237.715 64.0725 234.241C63.7693 232.574 63.4714 230.805 63.2107 229.164L67.8387 226.63L78.3234 220.894C79.4831 220.984 81.0151 221.138 82.7173 221.361C83.5525 221.467 84.4302 221.595 85.3239 221.744C88.5581 222.285 91.9999 223.098 94.5053 224.304C95.5692 224.814 96.4576 225.393 97.0853 226.057C101.447 230.63 108.065 237.662 106.421 239.664H106.416Z" fill="url(#paint19_linear_9_10)"/>
<path d="M85.451 252.762C85.3287 252.826 85.1957 252.879 85.0734 252.938C84.9776 252.592 84.8606 252.141 84.7116 251.599C84.3765 250.372 83.8924 248.72 83.3339 246.946C82.7594 245.178 82.137 243.611 81.5412 242.49C81.3869 242.209 81.2433 241.954 81.121 241.731C80.9773 241.518 80.855 241.327 80.7486 241.178C80.5518 240.865 80.4347 240.679 80.4347 240.679C80.4347 240.679 80.6209 240.785 80.9507 241.003C81.1156 241.109 81.3178 241.242 81.5465 241.407C81.7593 241.587 81.9934 241.794 82.254 242.033C83.27 242.995 84.4191 244.615 85.0468 246.559C85.6585 248.503 85.7064 250.303 85.6053 251.573C85.5627 252.04 85.5042 252.438 85.451 252.752V252.762Z" fill="#F47D6F"/>
<path d="M90.409 250.038C90.1324 250.213 89.8452 250.383 89.5579 250.553C89.5313 250.484 89.5154 250.41 89.4941 250.341C89.1536 249.114 88.6749 247.462 88.111 245.688C87.5418 243.914 86.9194 242.352 86.3183 241.231C86.1641 240.95 86.0311 240.695 85.9034 240.477C85.7598 240.259 85.6321 240.073 85.5364 239.919C85.3342 239.601 85.2172 239.426 85.2172 239.426C85.2172 239.426 85.3981 239.532 85.7279 239.744C85.8875 239.85 86.0949 239.983 86.3237 240.153C86.5364 240.328 86.7758 240.541 87.0311 240.78C88.0525 241.747 89.1962 243.372 89.8239 245.311C90.3931 247.111 90.4782 248.795 90.4037 250.038H90.409Z" fill="#F47D6F"/>
<path d="M83.2541 253.591C82.6529 253.745 82.1529 253.788 81.7859 253.687L78.4612 245.815C78.4612 245.815 67.136 242.527 65.8806 241.253C65.3858 240.743 64.7049 237.71 64.0666 234.236C63.7634 232.569 63.4655 230.8 63.2048 229.159L67.8328 226.625C68.0084 228.155 68.2105 229.716 68.4605 231.203C69.1361 235.341 70.0936 238.91 71.4075 239.681C74.8812 241.715 80.7326 244.578 80.7326 244.578L83.2594 253.591H83.2541Z" fill="#F69787"/>
<path d="M82.1492 219.167L79.0905 221.621L67.7812 230.369L62.9245 234.124C62.9245 234.124 9.59122 177.679 14.2937 160.454C18.9216 143.495 72.8401 88.9836 74.5211 87.2946C74.537 87.2786 74.5477 87.268 74.553 87.2627C74.553 87.2521 74.5636 87.2467 74.5636 87.2467C74.5636 87.2467 74.6009 87.4751 74.67 87.9054C75.4201 92.7175 80.1065 122.446 82.1545 125.728C83.3302 127.619 72.3773 138.518 61.7809 148.381C52.3228 157.183 43.152 165.16 43.152 165.16C50.0513 171.104 82.1599 219.167 82.1599 219.167H82.1492Z" fill="#3C3148"/>
<path d="M30.0556 159.514C30.3322 159.148 30.9067 159.27 31.3323 159.44C33.7686 160.401 36.0985 161.639 38.2583 163.115C38.6838 163.408 39.3434 163.811 39.9871 164.289L63.9036 141.291L63.9249 146.363C54.4668 155.159 43.1416 165.155 43.1416 165.155C50.041 171.104 82.1548 219.162 82.1548 219.162L79.0908 221.616C70.9519 210.217 49.2377 179.9 40.6573 168.825C38.0242 170.429 34.9549 171.311 31.8749 171.343C32.7845 169.176 35.0932 167.997 37.2263 166.998C35.0027 164.953 32.7738 162.908 30.5503 160.858C30.162 160.502 29.7471 159.929 30.0609 159.504L30.0556 159.514Z" fill="#3C3148"/>
<path d="M168.122 189.987C168.122 189.987 154.717 125.028 150.014 112.79C148.126 107.872 145.371 104.133 142.753 101.413C140.822 99.4054 138.966 97.9501 137.583 96.9993C136.173 96.0327 135.263 95.5812 135.263 95.5812C135.263 95.5812 135.279 96.4841 135.317 98.0935C135.593 111.595 136.944 175.014 137.753 176.692C138.152 177.521 143.817 189.992 150.009 203.648V203.664C150.179 204.03 150.35 204.402 150.514 204.774L169.303 193.684L168.122 189.992V189.987Z" fill="#3C3148"/>
<path d="M154.249 199.022C154.488 195.893 144.056 123.408 140.056 109.556C142.987 132.347 150.009 203.643 150.009 203.643V203.659C150.179 204.025 150.349 204.397 150.514 204.769L155.052 202.092C154.504 200.62 154.201 199.548 154.243 199.027L154.249 199.022Z" fill="#261D30"/>
<path d="M185.938 148.429L142.945 146.639L135.328 208.921L175.416 208.576L185.938 148.429Z" fill="#EAE2CC"/>
<path d="M188.405 173.558C187.91 174.546 187.07 175.311 186.155 175.746C185.102 176.256 184.032 176.808 182.952 177.201C182.846 177.239 182.74 177.276 182.628 177.313C182.123 177.488 181.617 177.621 181.112 177.701C180.926 177.727 180.745 177.749 180.564 177.764C179.947 177.807 179.335 177.749 178.782 177.557C177.867 177.249 177.681 175.927 178.452 174.981C179.42 173.797 180.686 172.883 181.968 172.267C182.761 171.89 185.442 170.987 187.192 171.072C188.501 171.13 189.299 171.741 188.394 173.547L188.405 173.558Z" fill="url(#paint20_linear_9_10)"/>
<path d="M185.549 179.586C185.054 180.574 184.219 181.334 183.304 181.78C182.623 182.104 181.931 182.449 181.235 182.762C180.963 182.89 180.687 183.007 180.41 183.108C179.697 183.394 178.979 183.623 178.256 183.734C178.112 183.756 177.974 183.772 177.83 183.782C177.17 183.841 176.516 183.782 175.926 183.586C175.011 183.278 174.83 181.955 175.607 181.015C176.569 179.825 177.835 178.906 179.123 178.301C179.405 178.168 179.926 177.966 180.564 177.759C181.165 177.573 181.868 177.382 182.559 177.265C182.692 177.239 182.82 177.217 182.947 177.201C184.964 176.904 186.74 177.212 185.538 179.586H185.549Z" fill="url(#paint21_linear_9_10)"/>
<path d="M184.214 185.084C183.719 186.072 182.884 186.831 181.969 187.277C181.118 187.692 180.24 188.127 179.368 188.494C179.096 188.605 178.82 188.717 178.548 188.802C178.011 188.998 177.469 189.152 176.921 189.237C176.596 189.285 176.272 189.312 175.952 189.306C175.479 189.306 175.016 189.232 174.596 189.088C173.681 188.78 173.5 187.463 174.277 186.518C175.24 185.333 176.506 184.409 177.793 183.804C177.809 183.804 177.814 183.793 177.83 183.788C178.346 183.543 179.538 183.129 180.788 182.853C180.932 182.821 181.086 182.789 181.235 182.768C183.4 182.37 185.49 182.555 184.219 185.084H184.214Z" fill="url(#paint22_linear_9_10)"/>
<path d="M181.485 190.937C180.99 191.925 180.149 192.695 179.24 193.13C179.101 193.199 178.963 193.263 178.825 193.332C177.309 194.07 175.756 194.846 174.192 195.085C173.388 195.212 172.574 195.186 171.867 194.941C170.952 194.633 170.771 193.311 171.548 192.371C172.511 191.186 173.777 190.267 175.064 189.657C175.255 189.556 175.569 189.433 175.958 189.301C176.772 189.014 177.905 188.69 178.958 188.541C179.101 188.52 179.234 188.504 179.373 188.488C181.171 188.313 182.591 188.743 181.49 190.931L181.485 190.937Z" fill="url(#paint23_linear_9_10)"/>
<path d="M188.406 173.558C187.911 174.546 187.071 175.31 186.156 175.746C185.102 176.256 184.033 176.808 182.953 177.201C184.969 176.904 186.746 177.212 185.544 179.586C185.049 180.574 184.214 181.334 183.299 181.78C182.618 182.104 181.927 182.449 181.23 182.762C183.395 182.364 185.485 182.55 184.214 185.078C183.719 186.066 182.884 186.826 181.969 187.272C181.118 187.686 180.24 188.122 179.368 188.488C181.166 188.313 182.586 188.743 181.485 190.931C180.99 191.919 180.15 192.689 179.24 193.125C179.102 193.194 178.964 193.258 178.825 193.327C178.878 193.226 178.926 193.136 178.969 193.035C179.32 192.28 179.618 191.452 179.597 190.618C179.586 189.805 179.198 188.998 178.554 188.796L178.511 188.786C178.666 188.701 178.809 188.626 178.958 188.541C179.894 188.005 180.831 187.335 181.325 186.252C181.889 184.988 181.325 183.124 180.176 183.272C180.256 183.219 180.336 183.166 180.41 183.113C180.538 183.033 180.661 182.943 180.788 182.853C181.623 182.268 182.432 181.588 182.927 180.611C183.48 179.517 183.405 177.95 182.634 177.323C182.613 177.313 182.591 177.286 182.57 177.276C182.496 177.222 182.416 177.18 182.331 177.148C183.985 176.081 185.57 174.97 186.523 172.931C186.783 172.373 186.985 171.725 187.203 171.088C188.512 171.146 189.31 171.757 188.406 173.563V173.558Z" fill="url(#paint24_linear_9_10)"/>
<path d="M87.2185 43.5914C87.2185 43.5914 88.5483 41.3022 89.8835 41.2331C90.1708 41.2172 90.5272 41.2491 90.9315 41.3128C93.8093 41.7855 99.0756 44.0216 99.0756 44.0216C99.0756 44.0216 99.948 41.759 99.8523 40.8348L99.5491 40.702C99.5491 40.702 99.2352 42.1308 99.0331 42.3379L99.0703 40.4895C99.0703 40.4895 94.8785 39.8575 92.1656 39.4644L91.7134 39.3954C91.3943 39.3476 91.1017 39.3051 90.8464 39.2732C90.2878 39.1935 89.9314 39.151 89.9101 39.151C89.7984 39.1829 89.5537 39.2679 89.5271 39.2732L89.6761 38.8748C89.6761 38.8748 88.2664 40.3461 87.2291 43.5914H87.2185Z" fill="url(#paint25_linear_9_10)"/>
<g style="mix-blend-mode:multiply" opacity="0.6">
<path d="M87.2187 43.5914C87.2187 43.5914 88.5486 41.3022 89.8838 41.2331C90.171 41.2172 90.5274 41.2491 90.9317 41.3128L92.1605 39.4591L91.7084 39.3901C90.969 39.5176 88.9156 40.9941 88.9156 40.9941C89.4795 39.9 90.7668 39.2998 90.8413 39.2679C90.2827 39.1882 89.9263 39.1457 89.9051 39.1457C89.7933 39.1776 89.5487 39.2626 89.5221 39.2679L89.671 38.8696C89.671 38.8696 88.2613 40.3408 87.224 43.5861L87.2187 43.5914Z" fill="#B23594"/>
</g>
<path d="M119.465 43.5914C119.465 43.5914 118.135 41.3022 116.8 41.2331C116.512 41.2172 116.156 41.2491 115.752 41.3128C112.874 41.7855 107.607 44.0216 107.607 44.0216C107.607 44.0216 106.735 41.759 106.831 40.8348L107.134 40.702C107.134 40.702 107.448 42.1308 107.65 42.3379L107.613 40.4895C107.613 40.4895 111.805 39.8575 114.517 39.4644L114.97 39.3954C115.289 39.3476 115.581 39.3051 115.837 39.2732C116.395 39.1935 116.752 39.151 116.773 39.151C116.885 39.1829 117.129 39.2679 117.156 39.2732L117.007 38.8748C117.007 38.8748 118.417 40.3461 119.454 43.5914H119.465Z" fill="url(#paint26_linear_9_10)"/>
<g style="mix-blend-mode:multiply" opacity="0.6">
<path d="M119.465 43.5914C119.465 43.5914 118.135 41.3022 116.8 41.2331C116.512 41.2172 116.156 41.2491 115.752 41.3128L114.523 39.4591L114.975 39.3901C115.714 39.5176 117.768 40.9941 117.768 40.9941C117.204 39.9 115.916 39.2998 115.842 39.2679C116.401 39.1882 116.757 39.1457 116.778 39.1457C116.89 39.1776 117.135 39.2626 117.161 39.2679L117.012 38.8696C117.012 38.8696 118.422 40.3408 119.459 43.5861L119.465 43.5914Z" fill="#B23594"/>
</g>
<path d="M98.3141 48.8132C98.3354 49.1903 95.0905 49.2168 93.101 48.9672C91.1115 48.7175 90.1912 47.2569 90.138 46.8639C90.0901 46.4708 90.6274 45.3607 93.3776 45.6104C96.1278 45.86 98.2556 47.9474 98.3088 48.8078L98.3141 48.8132Z" fill="url(#paint27_linear_9_10)"/>
<path d="M92.3448 47.2722C92.4299 48.3983 93.414 49.2375 94.5418 49.1525C95.6695 49.0675 96.51 48.0849 96.4249 46.9589C96.3398 45.8328 95.3557 44.9936 94.2279 45.0786C93.1002 45.1636 92.2597 46.1462 92.3448 47.2722Z" fill="url(#paint28_linear_9_10)"/>
<path d="M92.4676 47.2613C92.5474 48.3183 93.473 49.115 94.5369 49.0301C95.6008 48.9451 96.3934 48.0262 96.3083 46.9639C96.2285 45.9069 95.3029 45.1102 94.239 45.1952C93.1804 45.2749 92.3825 46.1991 92.4676 47.2613Z" fill="url(#paint29_linear_9_10)"/>
<path style="mix-blend-mode:multiply" d="M93.1424 47.2137C93.1956 47.8989 93.7967 48.4141 94.483 48.361C95.1692 48.3079 95.6852 47.7077 95.632 47.0225C95.5788 46.3373 94.9777 45.8221 94.2915 45.8752C93.6052 45.9283 93.0893 46.5285 93.1424 47.2137Z" fill="url(#paint30_linear_9_10)"/>
<path d="M98.4464 48.983C98.4464 48.983 96.7441 45.2332 93.9673 44.7604C91.6799 44.3674 89.9937 46.4176 89.9937 46.4176C89.9937 46.4176 91.797 45.4934 94.0844 45.9555C96.3717 46.4176 98.441 48.9883 98.441 48.9883L98.4464 48.983Z" fill="#E56D5C"/>
<path d="M98.1116 48.3294L97.5318 49.0677C97.5318 49.0677 98.367 48.9934 98.4414 48.9668C98.5159 48.9403 98.1116 48.3294 98.1116 48.3294Z" fill="#DE4E6B"/>
<path d="M96.4354 49.1262C96.4354 49.1262 93.6799 49.3705 92.1054 48.8288C90.4031 48.2392 90.1371 46.8635 90.1371 46.8635C90.1371 46.8635 90.5627 48.2498 92.3554 48.7438C93.9246 49.1793 96.4354 49.1209 96.4354 49.1209V49.1262Z" fill="#DE4E6B"/>
<path d="M92.5371 47.7029C92.718 47.8091 92.0052 47.9844 91.4307 47.8782C90.9147 47.7826 90.6221 47.5223 90.654 47.4586C90.6913 47.3948 91.819 47.278 92.5371 47.6976V47.7029Z" fill="white"/>
<path d="M92.9732 47.7611C93.1647 47.6496 93.42 47.708 93.4519 47.8142C93.4839 47.9205 93.2551 48.1064 93.1328 48.0851C93.0051 48.0639 92.8668 47.8195 92.9732 47.7611Z" fill="white"/>
<g style="mix-blend-mode:multiply" opacity="0.6">
<path d="M98.3248 48.7811C98.3248 48.7811 94.6916 45.3181 90.1434 46.869C90.1434 46.869 91.4041 45.5358 94.1596 45.743C96.9204 45.9501 98.3248 48.7811 98.3248 48.7811V48.7811Z" fill="#B23594"/>
</g>
<path d="M98.4464 48.9827C98.4464 48.9827 96.6962 46.4969 94.111 46.2579C91.5257 46.0136 90.1373 46.8687 90.1373 46.8687L89.9032 46.4757C89.9032 46.4757 92.1747 45.3656 94.4354 45.9233C97.1484 46.5979 98.4464 48.9827 98.4464 48.9827V48.9827Z" fill="#290B39"/>
<path d="M98.4464 48.9829C98.4464 48.9829 97.2388 44.9462 95.4302 43.7033C95.4302 43.7033 97.5048 46.7043 98.4464 48.9829Z" fill="#DE4E6B"/>
<path d="M108.154 48.8132C108.133 49.1903 111.378 49.2168 113.367 48.9672C115.357 48.7175 116.277 47.2569 116.33 46.8639C116.378 46.4708 115.841 45.3607 113.091 45.6104C110.341 45.86 108.213 47.9474 108.16 48.8078L108.154 48.8132Z" fill="url(#paint31_linear_9_10)"/>
<path d="M114.118 47.2722C114.033 48.3983 113.049 49.2375 111.921 49.1525C110.794 49.0675 109.953 48.0849 110.038 46.9589C110.123 45.8328 111.107 44.9936 112.235 45.0786C113.363 45.1636 114.203 46.1462 114.118 47.2722Z" fill="url(#paint32_linear_9_10)"/>
<path d="M113.996 47.2614C113.917 48.3184 112.991 49.1151 111.927 49.0301C110.869 48.9504 110.071 48.0262 110.156 46.9639C110.241 45.9017 111.161 45.1102 112.225 45.1952C113.284 45.2749 114.081 46.1991 113.996 47.2614Z" fill="url(#paint33_linear_9_10)"/>
<path style="mix-blend-mode:multiply" d="M113.325 47.2137C113.272 47.8989 112.671 48.4141 111.985 48.361C111.299 48.3079 110.783 47.7077 110.836 47.0225C110.889 46.3373 111.49 45.8221 112.176 45.8752C112.863 45.9283 113.379 46.5285 113.325 47.2137Z" fill="url(#paint34_linear_9_10)"/>
<path d="M108.017 48.983C108.017 48.983 109.719 45.2332 112.496 44.7604C114.783 44.3674 116.47 46.4176 116.47 46.4176C116.47 46.4176 114.666 45.4934 112.379 45.9555C110.091 46.4176 108.022 48.9883 108.022 48.9883L108.017 48.983Z" fill="#E56D5C"/>
<path d="M108.351 48.3294L108.931 49.0677C108.931 49.0677 108.096 48.9934 108.021 48.9668C107.947 48.9403 108.351 48.3294 108.351 48.3294Z" fill="#DE4E6B"/>
<path d="M110.033 49.1262C110.033 49.1262 112.788 49.3705 114.363 48.8288C116.065 48.2392 116.331 46.8635 116.331 46.8635C116.331 46.8635 115.905 48.2498 114.113 48.7438C112.544 49.1793 110.033 49.1209 110.033 49.1209V49.1262Z" fill="#DE4E6B"/>
<path d="M113.926 47.7029C113.746 47.8091 114.458 47.9844 115.033 47.8782C115.549 47.7826 115.841 47.5223 115.81 47.4586C115.772 47.3948 114.645 47.278 113.926 47.6976V47.7029Z" fill="white"/>
<path d="M113.49 47.7611C113.299 47.6496 113.043 47.708 113.012 47.8142C112.98 47.9205 113.208 48.1064 113.331 48.0851C113.458 48.0639 113.597 47.8195 113.49 47.7611Z" fill="white"/>
<g style="mix-blend-mode:multiply" opacity="0.6">
<path d="M108.144 48.7811C108.144 48.7811 111.778 45.3181 116.326 46.869C116.326 46.869 115.065 45.5358 112.309 45.743C109.549 45.9501 108.144 48.7811 108.144 48.7811V48.7811Z" fill="#B23594"/>
</g>
<path d="M108.016 48.9827C108.016 48.9827 109.766 46.4969 112.352 46.2579C114.937 46.0136 116.325 46.8687 116.325 46.8687L116.559 46.4757C116.559 46.4757 114.288 45.3656 112.027 45.9233C109.314 46.5979 108.016 48.9827 108.016 48.9827V48.9827Z" fill="#290B39"/>
<path d="M108.017 48.9829C108.017 48.9829 109.224 44.9462 111.033 43.7033C111.033 43.7033 108.958 46.7043 108.017 48.9829Z" fill="#DE4E6B"/>
<path d="M107.89 56.5138C107.89 56.5138 109.071 52.2168 103.496 52.2168C97.9216 52.2168 98.8579 56.4288 98.8579 56.4288L99.1079 56.5138C99.1079 56.5138 100.629 57.4645 103.502 57.4645C106.374 57.4645 107.896 56.5138 107.896 56.5138H107.89Z" fill="url(#paint35_linear_9_10)"/>
<g style="mix-blend-mode:multiply" opacity="0.6">
<path d="M103.555 56.822C106.47 56.822 107.89 56.5139 107.89 56.5139C106.401 56.4714 105.199 57.454 103.496 57.4647C101.794 57.454 100.597 56.4714 99.1025 56.5139C99.1025 56.5139 100.815 56.822 103.55 56.822H103.555Z" fill="#B23594"/>
</g>
<path style="mix-blend-mode:multiply" opacity="0.5" d="M101.23 56.9708C101.23 56.9708 100.48 56.174 99.108 56.514L101.23 56.9708Z" fill="url(#paint36_linear_9_10)"/>
<path style="mix-blend-mode:multiply" opacity="0.5" d="M107.89 56.5137C107.89 56.5137 107.013 56.0835 105.842 56.9493L107.89 56.5137Z" fill="url(#paint37_linear_9_10)"/>
<g style="mix-blend-mode:multiply" opacity="0.6">
<path d="M107.332 53.4861C107.332 53.4861 108.609 54.5909 107.997 56.4286C107.997 56.4286 107.944 54.9414 107.332 53.4861Z" fill="#B23594"/>
</g>
<g style="mix-blend-mode:multiply" opacity="0.6">
<path d="M99.5706 53.5606C99.5706 53.5606 98.246 54.5911 98.8631 56.4288C98.8631 56.4288 98.9642 55.016 99.5706 53.5606Z" fill="#B23594"/>
</g>
<g style="mix-blend-mode:multiply" opacity="0.6">
<path d="M107.89 56.514C107.89 56.514 105.497 58.5801 103.496 58.5801C101.496 58.5801 98.8578 56.429 98.8578 56.429C99.31 53.7148 100.943 56.822 103.55 56.822C105.321 56.822 107.459 54.4372 107.885 56.514H107.89Z" fill="#B23594"/>
</g>
<path d="M101.608 55.4514C101.624 55.2071 101.321 54.9309 101.082 54.9521C100.842 54.9734 100.965 55.5098 101.082 55.6107C101.199 55.7117 101.608 55.4461 101.608 55.4461V55.4514Z" fill="#FCCBB9"/>
<path style="mix-blend-mode:multiply" opacity="0.6" d="M107.331 53.4865C107.331 53.4865 106.922 54.1238 106.491 56.174C106.491 56.174 105.975 54.8037 107.034 53.2528L107.331 53.4865Z" fill="url(#paint38_linear_9_10)"/>
<path style="mix-blend-mode:multiply" opacity="0.6" d="M99.6453 53.5451C99.6453 53.5451 99.9378 54.1241 100.363 56.1743C100.363 56.1743 100.996 54.7508 99.9378 53.1999L99.6453 53.5451V53.5451Z" fill="url(#paint39_linear_9_10)"/>
<path style="mix-blend-mode:multiply" d="M111.081 62.2141C111.081 62.2141 107.906 67.8176 103.586 67.8176C99.6816 67.8176 96.3676 62.3256 96.3676 62.3256C96.3676 62.3256 99.421 65.4115 102.299 65.709C105.177 66.0064 111.081 62.2141 111.081 62.2141Z" fill="url(#paint40_linear_9_10)"/>
<path d="M112.538 59.9991C112.538 59.9991 109.458 65.2043 107.315 65.9213C105.171 66.633 101.24 66.2188 99.9789 65.9213C98.7129 65.6239 94.9254 60.4558 94.9254 60.4558C94.9254 60.4558 99.048 64.2376 103.729 64.2376C108.41 64.2376 112.533 60.0044 112.533 60.0044L112.538 59.9991Z" fill="#EF7172"/>
<path d="M112.538 59.9991C112.538 59.9991 109.889 61.5394 104.016 61.5394C98.1437 61.5394 94.3722 59.9991 94.3722 59.9991C94.3722 59.9991 99.4044 64.4235 104.016 64.4235C107.9 64.4235 112.538 59.9991 112.538 59.9991Z" fill="#D35057"/>
<path d="M95.128 59.5316C95.128 59.5316 94.2077 60.2912 93.8088 60.8861C93.8088 60.8861 93.6758 59.8291 94.0801 59.2926C94.4844 58.7562 95.1333 59.5316 95.1333 59.5316H95.128Z" fill="#DE6B7D"/>
<path d="M111.868 59.5316C111.868 59.5316 112.789 60.2912 113.188 60.8861C113.188 60.8861 113.321 59.8291 112.916 59.2926C112.512 58.7562 111.863 59.5316 111.863 59.5316H111.868Z" fill="#DE6B7D"/>
<path d="M110.874 61.0401C110.874 61.0401 107.555 64.1102 104.023 64.2323C99.6446 64.381 96.1816 60.8861 96.1816 60.8861C96.1816 60.8861 100.762 61.9962 104.134 61.9962C107.507 61.9962 110.874 61.0455 110.874 61.0455V61.0401Z" fill="white"/>
<path d="M97.7295 61.2206L97.8199 62.251L95.7346 60.7L97.7295 61.2206Z" fill="#4F1C3E"/>
<path d="M109.443 61.3802L109.262 62.3256L111.485 60.7587L109.443 61.3802Z" fill="#4F1C3E"/>
<g style="mix-blend-mode:soft-light">
<path d="M102.038 64.8376L101.506 66.1443C101.506 66.1443 100.368 66.0752 99.6872 65.7884C98.9903 65.5016 97.3785 63.6851 96.8306 62.8883L97.4105 62.7184C97.4105 62.7184 99.3095 64.1843 102.038 64.8376Z" fill="#FCCBB9"/>
</g>
<g style="mix-blend-mode:multiply" opacity="0.6">
<path d="M109.416 61.5447C109.416 61.5447 106.99 62.2512 104.022 62.2512C101.054 62.2512 97.7449 61.3535 97.7449 61.3535L97.7343 61.2207C97.7343 61.2207 101.32 61.9962 104.134 61.9962C106.948 61.9962 109.448 61.3854 109.448 61.3854L109.416 61.5447V61.5447Z" fill="#8D307F"/>
</g>
<ellipse cx="114" cy="455.5" rx="80" ry="8.5" fill="black" fill-opacity="0.14"/>
<defs>
<linearGradient id="paint0_linear_9_10" x1="104.656" y1="93.7904" x2="104.656" y2="67.1854" gradientUnits="userSpaceOnUse">
<stop stop-color="#F9B19E"/>
<stop offset="0.21" stop-color="#F69B8F"/>
<stop offset="0.47" stop-color="#F48781"/>
<stop offset="0.74" stop-color="#F37B79"/>
<stop offset="1" stop-color="#F37777"/>
</linearGradient>
<linearGradient id="paint1_linear_9_10" x1="97.8576" y1="83.5446" x2="97.8576" y2="69.9951" gradientUnits="userSpaceOnUse">
<stop stop-color="#FEEADB"/>
<stop offset="0.99" stop-color="#B17EB7"/>
</linearGradient>
<linearGradient id="paint2_linear_9_10" x1="84.0435" y1="58.5809" x2="84.0435" y2="44.7127" gradientUnits="userSpaceOnUse">
<stop stop-color="#F4837E"/>
<stop offset="0.01" stop-color="#F3827D"/>
<stop offset="0.34" stop-color="#F27369"/>
<stop offset="0.67" stop-color="#F26A5D"/>
<stop offset="1" stop-color="#F26859"/>
</linearGradient>
<linearGradient id="paint3_linear_9_10" x1="83.7717" y1="54.3583" x2="83.7717" y2="47.1666" gradientUnits="userSpaceOnUse">
<stop stop-color="#FEEADB"/>
<stop offset="0.99" stop-color="#B17EB7"/>
</linearGradient>
<linearGradient id="paint4_linear_9_10" x1="85.2027" y1="54.1778" x2="85.2027" y2="48.6008" gradientUnits="userSpaceOnUse">
<stop stop-color="#FEEADB"/>
<stop offset="0.99" stop-color="#B17EB7"/>
</linearGradient>
<linearGradient id="paint5_linear_9_10" x1="124.612" y1="58.5809" x2="124.612" y2="44.7127" gradientUnits="userSpaceOnUse">
<stop stop-color="#F4837E"/>
<stop offset="0.01" stop-color="#F3827D"/>
<stop offset="0.34" stop-color="#F27369"/>
<stop offset="0.67" stop-color="#F26A5D"/>
<stop offset="1" stop-color="#F26859"/>
</linearGradient>
<linearGradient id="paint6_linear_9_10" x1="124.888" y1="54.3583" x2="124.888" y2="47.1666" gradientUnits="userSpaceOnUse">
<stop stop-color="#FEEADB"/>
<stop offset="0.99" stop-color="#B17EB7"/>
</linearGradient>
<linearGradient id="paint7_linear_9_10" x1="123.452" y1="54.1778" x2="123.452" y2="48.6008" gradientUnits="userSpaceOnUse">
<stop stop-color="#FEEADB"/>
<stop offset="0.99" stop-color="#B17EB7"/>
</linearGradient>
<linearGradient id="paint8_linear_9_10" x1="104.206" y1="74.202" x2="104.206" y2="23.3608" gradientUnits="userSpaceOnUse">
<stop stop-color="#F3797E"/>
<stop offset="0.11" stop-color="#F37C7A"/>
<stop offset="0.55" stop-color="#F5886E"/>
<stop offset="1" stop-color="#F68D6A"/>
</linearGradient>
<linearGradient id="paint9_linear_9_10" x1="108.023" y1="22.0165" x2="94.5062" y2="22.0165" gradientUnits="userSpaceOnUse">
<stop stop-color="#33122B"/>
<stop offset="1" stop-color="#441B3E"/>
</linearGradient>
<linearGradient id="paint10_linear_9_10" x1="103.911" y1="47.4318" x2="103.911" y2="17.0026" gradientUnits="userSpaceOnUse">
<stop stop-color="#360F3A"/>
<stop offset="1" stop-color="#4C132E"/>
</linearGradient>
<linearGradient id="paint11_linear_9_10" x1="104.443" y1="24.1624" x2="91.2402" y2="24.1624" gradientUnits="userSpaceOnUse">
<stop stop-color="#33122B"/>
<stop offset="1" stop-color="#441B3E"/>
</linearGradient>
<linearGradient id="paint12_linear_9_10" x1="106.875" y1="22.6804" x2="99.0233" y2="22.6804" gradientUnits="userSpaceOnUse">
<stop stop-color="#33122B"/>
<stop offset="1" stop-color="#441B3E"/>
</linearGradient>
<linearGradient id="paint13_linear_9_10" x1="109.274" y1="22.7548" x2="104.444" y2="22.7548" gradientUnits="userSpaceOnUse">
<stop stop-color="#33122B"/>
<stop offset="1" stop-color="#441B3E"/>
</linearGradient>
<linearGradient id="paint14_linear_9_10" x1="123.625" y1="31.3862" x2="120.822" y2="31.3862" gradientUnits="userSpaceOnUse">
<stop stop-color="#33122B"/>
<stop offset="1" stop-color="#441B3E"/>
</linearGradient>
<linearGradient id="paint15_linear_9_10" x1="119.051" y1="26.8075" x2="115.502" y2="26.8075" gradientUnits="userSpaceOnUse">
<stop stop-color="#33122B"/>
<stop offset="1" stop-color="#441B3E"/>
</linearGradient>
<linearGradient id="paint16_linear_9_10" x1="99.5279" y1="25.7772" x2="88.1601" y2="25.7772" gradientUnits="userSpaceOnUse">
<stop stop-color="#33122B"/>
<stop offset="1" stop-color="#441B3E"/>
</linearGradient>
<linearGradient id="paint17_linear_9_10" x1="90.2619" y1="30.2547" x2="85.0807" y2="30.2547" gradientUnits="userSpaceOnUse">
<stop stop-color="#33122B"/>
<stop offset="1" stop-color="#441B3E"/>
</linearGradient>
<linearGradient id="paint18_linear_9_10" x1="121.328" y1="28.2099" x2="119.019" y2="28.2099" gradientUnits="userSpaceOnUse">
<stop stop-color="#33122B"/>
<stop offset="1" stop-color="#441B3E"/>
</linearGradient>
<linearGradient id="paint19_linear_9_10" x1="106.676" y1="237.317" x2="63.2001" y2="237.317" gradientUnits="userSpaceOnUse">
<stop stop-color="#E9A792"/>
<stop offset="0.08" stop-color="#ECA78E"/>
<stop offset="0.51" stop-color="#F9AC81"/>
<stop offset="0.59" stop-color="#F8A57D"/>
<stop offset="0.79" stop-color="#F69977"/>
<stop offset="1" stop-color="#F69575"/>
</linearGradient>
<linearGradient id="paint20_linear_9_10" x1="188.793" y1="174.429" x2="177.979" y2="174.429" gradientUnits="userSpaceOnUse">
<stop stop-color="#E9A792"/>
<stop offset="0.08" stop-color="#ECA78E"/>
<stop offset="0.51" stop-color="#F9AC81"/>
<stop offset="0.59" stop-color="#F8A57D"/>
<stop offset="0.79" stop-color="#F69977"/>
<stop offset="1" stop-color="#F69575"/>
</linearGradient>
<linearGradient id="paint21_linear_9_10" x1="185.937" y1="180.457" x2="175.122" y2="180.457" gradientUnits="userSpaceOnUse">
<stop stop-color="#E9A792"/>
<stop offset="0.08" stop-color="#ECA78E"/>
<stop offset="0.51" stop-color="#F9AC81"/>
<stop offset="0.59" stop-color="#F8A57D"/>
<stop offset="0.79" stop-color="#F69977"/>
<stop offset="1" stop-color="#F69575"/>
</linearGradient>
<linearGradient id="paint22_linear_9_10" x1="184.607" y1="185.955" x2="173.787" y2="185.955" gradientUnits="userSpaceOnUse">
<stop stop-color="#E9A792"/>
<stop offset="0.08" stop-color="#ECA78E"/>
<stop offset="0.51" stop-color="#F9AC81"/>
<stop offset="0.59" stop-color="#F8A57D"/>
<stop offset="0.79" stop-color="#F69977"/>
<stop offset="1" stop-color="#F69575"/>
</linearGradient>
<linearGradient id="paint23_linear_9_10" x1="181.873" y1="191.808" x2="171.058" y2="191.808" gradientUnits="userSpaceOnUse">
<stop stop-color="#E9A792"/>
<stop offset="0.08" stop-color="#ECA78E"/>
<stop offset="0.51" stop-color="#F9AC81"/>
<stop offset="0.59" stop-color="#F8A57D"/>
<stop offset="0.79" stop-color="#F69977"/>
<stop offset="1" stop-color="#F69575"/>
</linearGradient>
<linearGradient id="paint24_linear_9_10" x1="188.794" y1="182.21" x2="178.506" y2="182.21" gradientUnits="userSpaceOnUse">
<stop stop-color="#E9A792"/>
<stop offset="0.08" stop-color="#ECA78E"/>
<stop offset="0.51" stop-color="#F9AC81"/>
<stop offset="0.59" stop-color="#F8A57D"/>
<stop offset="0.79" stop-color="#F69977"/>
<stop offset="1" stop-color="#F69575"/>
</linearGradient>
<linearGradient id="paint25_linear_9_10" x1="99.8576" y1="41.4509" x2="87.2185" y2="41.4509" gradientUnits="userSpaceOnUse">
<stop stop-color="#360F3A"/>
<stop offset="1" stop-color="#4C132E"/>
</linearGradient>
<linearGradient id="paint26_linear_9_10" x1="106.825" y1="41.4509" x2="119.465" y2="41.4509" gradientUnits="userSpaceOnUse">
<stop stop-color="#360F3A"/>
<stop offset="1" stop-color="#4C132E"/>
</linearGradient>
<linearGradient id="paint27_linear_9_10" x1="94.1493" y1="49.0786" x2="94.3574" y2="45.6804" gradientUnits="userSpaceOnUse">
<stop stop-color="#EDE1EF"/>
<stop offset="1" stop-color="#C0C7E6"/>
</linearGradient>
<linearGradient id="paint28_linear_9_10" x1="94.5465" y1="49.1584" x2="94.2339" y2="45.0806" gradientUnits="userSpaceOnUse">
<stop stop-color="#4C132E"/>
<stop offset="1" stop-color="#360F3A"/>
</linearGradient>
<linearGradient id="paint29_linear_9_10" x1="94.5375" y1="49.0364" x2="94.2436" y2="45.2021" gradientUnits="userSpaceOnUse">
<stop stop-color="#4C132E"/>
<stop offset="1" stop-color="#360F3A"/>
</linearGradient>
<linearGradient id="paint30_linear_9_10" x1="94.4851" y1="48.364" x2="94.2943" y2="45.8749" gradientUnits="userSpaceOnUse">
<stop stop-color="#C9A8CF"/>
<stop offset="0.99" stop-color="#8361AA"/>
</linearGradient>
<linearGradient id="paint31_linear_9_10" x1="112.311" y1="49.071" x2="112.103" y2="45.6727" gradientUnits="userSpaceOnUse">
<stop stop-color="#EDE1EF"/>
<stop offset="1" stop-color="#C0C7E6"/>
</linearGradient>
<linearGradient id="paint32_linear_9_10" x1="111.919" y1="49.1518" x2="112.231" y2="45.0792" gradientUnits="userSpaceOnUse">
<stop stop-color="#4C132E"/>
<stop offset="1" stop-color="#360F3A"/>
</linearGradient>
<linearGradient id="paint33_linear_9_10" x1="111.929" y1="49.0298" x2="112.223" y2="45.1955" gradientUnits="userSpaceOnUse">
<stop stop-color="#4C132E"/>
<stop offset="1" stop-color="#360F3A"/>
</linearGradient>
<linearGradient id="paint34_linear_9_10" x1="111.98" y1="48.3573" x2="112.17" y2="45.8682" gradientUnits="userSpaceOnUse">
<stop stop-color="#C9A8CF"/>
<stop offset="0.99" stop-color="#8361AA"/>
</linearGradient>
<linearGradient id="paint35_linear_9_10" x1="103.401" y1="57.4645" x2="103.401" y2="52.2115" gradientUnits="userSpaceOnUse">
<stop stop-color="#F3797E"/>
<stop offset="0.11" stop-color="#F37C7A"/>
<stop offset="0.55" stop-color="#F5886E"/>
<stop offset="1" stop-color="#F68D6A"/>
</linearGradient>
<linearGradient id="paint36_linear_9_10" x1="101.23" y1="56.6999" x2="99.108" y2="56.6999" gradientUnits="userSpaceOnUse">
<stop offset="0.02" stop-color="#7A55A3"/>
<stop offset="0.99" stop-color="#BD89BD"/>
</linearGradient>
<linearGradient id="paint37_linear_9_10" x1="107.89" y1="56.6731" x2="105.842" y2="56.6731" gradientUnits="userSpaceOnUse">
<stop offset="0.02" stop-color="#7A55A3"/>
<stop offset="0.99" stop-color="#BD89BD"/>
</linearGradient>
<linearGradient id="paint38_linear_9_10" x1="106.847" y1="56.174" x2="106.847" y2="53.2528" gradientUnits="userSpaceOnUse">
<stop stop-color="#FEEADB"/>
<stop offset="0.99" stop-color="#B17EB7"/>
</linearGradient>
<linearGradient id="paint39_linear_9_10" x1="100.097" y1="56.1743" x2="100.097" y2="53.1999" gradientUnits="userSpaceOnUse">
<stop stop-color="#FEEADB"/>
<stop offset="0.99" stop-color="#B17EB7"/>
</linearGradient>
<linearGradient id="paint40_linear_9_10" x1="103.724" y1="67.8176" x2="103.724" y2="62.2141" gradientUnits="userSpaceOnUse">
<stop stop-color="#F8C0D8"/>
<stop offset="0.99" stop-color="#B17EB7"/>
</linearGradient>
</defs>
</svg>
