<svg width="175" height="442" viewBox="0 0 175 442" fill="none" xmlns="http://www.w3.org/2000/svg">
<path d="M77.6503 64.0482C78.1184 62.6566 78.129 51.0299 78.129 51.0299L103.668 50.1907C103.668 50.1907 101.535 75.59 101.843 76.7904" fill="url(#paint0_linear_292_1446)"/>
<g style="mix-blend-mode:multiply" opacity="0.6">
<path d="M103.859 55.0454C103.859 55.0454 100.864 55.8846 100.141 57.1753C99.4174 58.466 94.7628 68.1753 91.0924 68.3293C87.4219 68.4833 85.0441 63.3206 83.1823 62.1309C81.3205 60.9411 77.9479 60.8561 77.9479 60.8561L78.1287 51.0246L103.668 50.1854L103.865 55.0454H103.859Z" fill="#8D307F"/>
</g>
<path style="mix-blend-mode:multiply" opacity="0.6" d="M86.2992 56.8725L87.2461 66.55C87.2461 66.55 84.9693 64.0005 83.8044 62.1415C82.6394 60.2825 80.469 53.0005 80.469 53.0005L86.3045 56.8725H86.2992Z" fill="url(#paint1_linear_292_1446)"/>
<path d="M72.9692 31.0642C72.9692 31.0642 70.7563 27.7021 69.2562 27.7074C68.3412 27.7074 66.139 29.6248 66.1656 31.452C66.1975 33.8952 68.3678 36.6731 68.9051 38.1019C69.4477 39.5254 70.8467 41.3844 71.7776 41.565C72.7085 41.7455 73.9214 39.9875 73.9214 39.9875C73.9214 39.9875 73.4692 33.2844 72.9692 31.0642Z" fill="url(#paint2_linear_292_1446)"/>
<path style="mix-blend-mode:multiply" opacity="0.6" d="M72.804 34.6442C72.804 34.6442 69.1707 30.1666 67.8515 30.1666C66.5323 30.1666 66.5323 32.7161 67.0642 34.1661C67.4313 35.17 68.1547 36.6253 68.1547 36.6253C68.1547 36.6253 67.5855 35.0638 67.5164 33.8953C67.41 32.0947 67.8089 30.7881 68.2664 30.7934C69.1016 30.7987 69.7612 31.9406 69.8623 32.3443C69.9687 32.748 69.2027 34.522 69.4048 35.7596C69.6069 36.9971 70.3517 37.4699 70.5964 37.3318C70.8464 37.199 70.4634 35.8021 70.6868 35.3081C70.9102 34.8141 71.5645 34.0971 71.9475 34.2511C72.3305 34.4105 72.804 34.6389 72.804 34.6389V34.6442Z" fill="url(#paint3_linear_292_1446)"/>
<path style="mix-blend-mode:multiply" opacity="0.6" d="M72.804 34.6444C72.804 34.6444 71.9103 34.1079 71.639 34.2832C71.3677 34.4531 70.6762 35.0746 70.6442 35.4623C70.6176 35.85 70.8623 36.9654 70.6442 37.1567C70.4261 37.3479 69.6335 36.0997 69.6016 34.9896C69.5644 33.8848 70.1868 32.6048 70.1868 32.456C70.1868 32.3073 70.0431 31.5956 70.0431 31.5956C70.0431 31.5956 72.155 33.5874 72.804 34.639V34.6444Z" fill="url(#paint4_linear_292_1446)"/>
<path d="M107.691 31.0642C107.691 31.0642 109.904 27.7021 111.404 27.7074C112.319 27.7074 114.521 29.6248 114.495 31.452C114.463 33.8952 112.293 36.6731 111.755 38.1019C111.213 39.5254 109.814 41.3844 108.883 41.565C107.952 41.7455 106.739 39.9875 106.739 39.9875C106.739 39.9875 107.191 33.2844 107.691 31.0642Z" fill="url(#paint5_linear_292_1446)"/>
<path style="mix-blend-mode:multiply" opacity="0.6" d="M107.856 34.6442C107.856 34.6442 111.489 30.1666 112.808 30.1666C114.127 30.1666 114.127 32.7161 113.596 34.1661C113.228 35.17 112.505 36.6253 112.505 36.6253C112.505 36.6253 113.074 35.0638 113.143 33.8953C113.25 32.0947 112.851 30.7881 112.393 30.7934C111.558 30.7987 110.899 31.9406 110.797 32.3443C110.691 32.748 111.457 34.522 111.255 35.7596C111.053 36.9971 110.308 37.4699 110.063 37.3318C109.813 37.199 110.196 35.8021 109.973 35.3081C109.75 34.8141 109.095 34.0971 108.712 34.2511C108.329 34.4105 107.856 34.6389 107.856 34.6389V34.6442Z" fill="url(#paint6_linear_292_1446)"/>
<path style="mix-blend-mode:multiply" opacity="0.6" d="M107.856 34.6444C107.856 34.6444 108.75 34.1079 109.021 34.2832C109.292 34.4531 109.984 35.0746 110.016 35.4623C110.048 35.85 109.798 36.9654 110.016 37.1567C110.234 37.3479 111.027 36.0997 111.058 34.9896C111.096 33.8848 110.473 32.6048 110.473 32.456C110.473 32.3073 110.617 31.5956 110.617 31.5956C110.617 31.5956 108.505 33.5874 107.856 34.639V34.6444Z" fill="url(#paint7_linear_292_1446)"/>
<path d="M72.481 31.1812C72.7576 34.2087 73.3428 37.0344 73.4811 40.2C73.6194 43.3657 73.88 45.9417 74.3748 47.1209C74.5982 47.652 74.9918 48.1991 75.4865 48.7568C76.8962 50.3449 79.1357 52.0074 80.6518 53.5689C81.2263 54.1585 81.8221 54.6578 82.3806 55.0774C82.3806 55.0774 82.3859 55.0774 82.3912 55.0827C83.519 55.9219 84.5244 56.4212 84.9978 56.6124C86.4447 57.2073 90.195 57.2073 90.195 57.2073C90.195 57.2073 93.9452 57.2073 95.3921 56.6124C96.1049 56.3203 98.0093 55.343 99.7381 53.5689C101.531 51.7259 104.329 49.7394 105.574 47.9123C105.76 47.6467 105.909 47.3811 106.02 47.1209C106.515 45.9417 106.781 43.3657 106.914 40.2C107.052 37.0344 107.638 34.2087 107.914 31.1812C108.191 28.1484 108.531 17.653 107.638 15.2416C106.739 12.8302 96.1209 6.36084 90.1896 6.36084C86.0298 6.36084 79.5506 9.54771 75.7578 12.2831C74.146 13.4463 73.013 14.5245 72.747 15.2416C71.848 17.653 72.1938 28.1537 72.4704 31.1812H72.481Z" fill="url(#paint8_linear_292_1446)"/>
<path d="M93.4964 2.7698C93.4964 2.7698 91.1398 1.38882 87.7513 1.52692C84.3575 1.66502 80.5115 3.49215 80.5115 3.49215L89.8259 8.50616L94.0283 6.97115L93.5017 2.7698H93.4964Z" fill="url(#paint9_linear_292_1446)"/>
<path d="M70.0427 17.7109L70.9789 17.0417L72.5641 29.7626C72.5641 29.7626 72.1864 25.4603 72.7716 23.0808C73.3567 20.7013 73.2184 15.9422 73.2184 15.9422C73.2184 15.9422 76.7985 11.5974 80.1338 10.5989C80.1338 10.5989 84.5011 11.1141 91.06 11.3584C97.619 11.5974 101.385 11.4965 101.385 11.4965C101.385 11.4965 105.763 13.9079 107.146 16.3246C107.146 16.3246 107.109 19.9789 107.215 21.907C107.322 23.835 108.274 30.4424 108.274 30.4424C108.274 30.4424 108.274 30.4159 108.279 30.3734C108.332 29.5448 108.875 21.7264 109.45 18.497C109.471 18.3802 109.492 18.2686 109.508 18.1518C109.572 17.7375 109.625 17.3232 109.662 16.9089C109.662 16.8983 109.662 16.8876 109.668 16.8717C109.806 15.3845 109.79 13.9132 109.747 12.8297C109.747 12.7553 109.742 12.681 109.737 12.6066C109.731 12.5376 109.726 12.4685 109.726 12.3995C109.726 12.341 109.721 12.2773 109.716 12.2242C109.716 12.1658 109.71 12.1073 109.705 12.0542C109.694 11.9267 109.689 11.8046 109.678 11.6984C109.673 11.6399 109.668 11.5815 109.662 11.5337C109.662 11.5231 109.662 11.5125 109.662 11.5071C109.662 11.454 109.652 11.4115 109.652 11.3637C109.641 11.2681 109.636 11.1938 109.63 11.146C109.63 11.13 109.63 11.1194 109.63 11.1141C109.63 11.0822 109.625 11.0716 109.625 11.0716L109.508 11.1088L108.7 12.6704C108.7 12.6704 108.7 12.6704 108.689 12.6544C108.689 12.6544 108.678 12.6438 108.673 12.6385C108.673 12.6385 108.668 12.6332 108.662 12.6279C108.646 12.6119 108.63 12.596 108.609 12.5694C108.375 12.2932 107.625 11.4328 106.55 10.3121C106.492 10.2483 106.433 10.1846 106.375 10.1262C106.359 10.1049 106.343 10.089 106.327 10.0731C106.231 9.97214 106.114 9.84997 105.981 9.7225C105.949 9.69063 105.912 9.65345 105.875 9.61627C104.838 8.55929 103.572 7.3536 102.21 6.21164C102.199 6.20101 102.194 6.1957 102.183 6.19039C102.135 6.15321 102.093 6.11072 102.039 6.07354C101.55 5.66456 101.05 5.2662 100.539 4.88909C96.2412 1.68629 91.3207 0.0291156 91.3207 0.0291156H89.0918C89.0918 0.0291156 91.6771 4.2942 92.2463 6.96586C92.1718 6.79589 89.661 1.25075 87.6077 0.0291156C87.6077 0.0291156 85.6182 -0.231145 83.3946 0.804586C83.3946 0.804586 87.1396 3.95427 88.0652 6.44003C87.9109 6.31255 81.7456 1.16045 77.2453 3.85335C77.3676 3.8268 78.6443 3.58247 79.8625 3.72588C79.8625 3.72588 78.5645 4.26765 76.5272 6.54626C76.2293 6.88088 75.8888 7.28986 75.5324 7.75195C73.4472 10.4289 70.6119 14.9436 70.0427 17.7109Z" fill="url(#paint10_linear_292_1446)"/>
<path d="M90.4431 11.3265C90.4431 11.3265 84.7459 -0.172744 77.2401 3.85864C77.2401 3.85864 84.3629 3.30625 89.3952 11.284L90.4431 11.3318V11.3265Z" fill="url(#paint11_linear_292_1446)"/>
<path d="M87.6138 0.0343018C87.6138 0.0343018 92.2046 4.84647 92.8801 11.3317H90.4491C90.4491 11.3317 89.9118 5.00581 85.0285 0.24676C85.0285 0.24676 86.1297 0.0343018 87.6138 0.0343018Z" fill="url(#paint12_linear_292_1446)"/>
<path d="M91.3215 0.0343018C91.3215 0.0343018 94.9814 5.03237 95.2739 11.4752C95.2739 11.4752 94.5824 5.56351 90.4438 0.0343018H91.3215Z" fill="url(#paint13_linear_292_1446)"/>
<path d="M109.115 12.5166C109.115 12.5166 107.934 14.4499 106.822 15.8203L107.147 16.3142V17.7111C107.147 17.7111 108.721 16.9675 109.625 15.2201V11.0665L109.115 12.5219V12.5166Z" fill="url(#paint14_linear_292_1446)"/>
<path d="M102.811 6.6738C102.811 6.6738 104.598 8.79306 105.051 13.9983L104.178 13.3078C104.178 13.3078 104.327 8.87274 101.502 5.61682L102.811 6.6738Z" fill="url(#paint15_linear_292_1446)"/>
<path d="M85.5279 11.0611C85.5279 11.0611 81.9904 6.5942 75.9953 6.49329L76.3039 6.81197L74.1654 7.32187C74.1654 7.32187 77.4954 8.02829 80.1392 10.5937L85.5332 11.0611H85.5279Z" fill="url(#paint16_linear_292_1446)"/>
<g style="mix-blend-mode:multiply" opacity="0.6">
<path d="M85.1079 10.5936H80.1342C80.1342 10.5936 84.5015 11.1089 91.0604 11.3532C97.6194 11.5922 101.386 11.4913 101.386 11.4913C101.386 11.4913 105.764 13.9027 107.147 16.3194C107.147 16.3194 107.109 19.9737 107.216 21.9017C107.322 23.8298 108.274 30.4372 108.274 30.4372C108.274 30.4372 108.274 30.4106 108.28 30.3681C108.359 29.5289 109.115 21.6308 109.508 18.1465C109.567 17.6154 109.62 17.1905 109.663 16.9036C109.663 16.893 109.663 16.8824 109.668 16.8665C109.849 15.5545 109.806 13.8283 109.737 12.6014C109.732 12.5323 109.727 12.4633 109.727 12.3942C109.727 12.3358 109.721 12.2721 109.716 12.219C109.716 12.1605 109.711 12.1021 109.705 12.049C109.695 11.9215 109.689 11.7993 109.679 11.6931C109.673 11.6347 109.668 11.5763 109.663 11.5285C109.663 11.5178 109.663 11.5072 109.663 11.5019C109.663 11.4488 109.652 11.4063 109.652 11.3585C109.641 11.2629 109.636 11.1885 109.631 11.1407C109.631 11.1248 109.631 11.1142 109.631 11.1089C109.631 11.077 109.625 11.0664 109.625 11.0664L109.508 11.1035L108.7 12.6651C108.7 12.6651 108.7 12.6651 108.689 12.6492C108.689 12.6492 108.679 12.6386 108.673 12.6332C108.673 12.6332 108.668 12.6279 108.663 12.6226C108.45 12.3889 107.296 11.0982 106.375 10.1209C106.359 10.0997 106.343 10.0838 106.327 10.0678C106.232 9.9669 106.115 9.84474 105.982 9.71726C104.907 8.64966 102.817 6.75879 102.215 6.21171C102.205 6.20109 102.199 6.19577 102.189 6.19046C102.098 6.11079 102.045 6.06299 102.045 6.06299V6.07892C102.295 8.74527 101.492 10.4237 101.492 10.4237C96.7736 10.822 85.1026 10.599 85.1026 10.599L85.1079 10.5936Z" fill="#8D307F"/>
</g>
<g style="mix-blend-mode:multiply" opacity="0.6">
<path d="M70.0437 17.7109L70.9799 17.0417L72.5651 29.7626C72.5651 29.7626 72.1874 25.4603 72.7726 23.0808C73.3577 20.7013 73.2194 15.9422 73.2194 15.9422C73.2194 15.9422 76.7994 11.5974 80.1348 10.5989L79.8422 10.328L75.5387 7.75195H75.5334C73.4481 10.4342 70.6129 14.949 70.0437 17.7162V17.7109Z" fill="#8D307F"/>
</g>
<path d="M76.262 12.9041C76.262 12.9041 75.0863 12.4527 73.4639 12.5217C71.8415 12.5908 71.0808 13.9877 71.0808 13.9877C71.0808 13.9877 73.0064 13.3397 75.597 13.4831L76.262 12.9041Z" fill="url(#paint17_linear_292_1446)"/>
<path d="M105.482 14.3756C105.482 14.3756 108.487 11.4755 106.822 8.04431C106.822 8.04431 106.327 10.0733 105.019 13.6691L105.482 14.3702V14.3756Z" fill="url(#paint18_linear_292_1446)"/>
<path d="M161.796 435.255C161.658 434.214 161.2 432.992 159.892 432.365C156.072 430.543 142.018 424.85 138.257 421.705C135.337 419.262 132.847 414.046 131.879 411.837L105.436 412.522C103.718 419.331 102.361 432.493 102.09 435.249H161.796V435.255Z" fill="#4F6BAF"/>
<path d="M161.796 441.241H102.09V435.26H161.796V441.241Z" fill="#FFEFE6"/>
<path d="M76.6923 412.765C76.2881 412.165 76.1923 408.027 76.1923 404.782L54.6058 400.416C52.095 406.126 48.0841 419.899 45.9775 427.361C45.1264 430.389 44.5838 432.38 44.5838 432.38C44.5838 432.38 46.0307 439.965 60.0849 441.224C73.4368 442.419 80.8416 437.076 80.8416 434.866C80.8416 434.229 80.5862 432.248 80.2032 429.719C79.2457 423.5 77.4796 413.939 76.6923 412.76V412.765Z" fill="#FFEFE6"/>
<path d="M76.192 404.782L54.6054 400.416C52.0946 406.126 48.0837 419.899 45.9772 427.361C49.2647 429.603 50.8871 434.393 60.0845 435.238C70.6544 436.205 77.0325 432.046 80.2029 429.719C79.2454 423.5 77.4793 413.939 76.692 412.76C76.2877 412.16 76.192 408.022 76.192 404.777V404.782Z" fill="#4F6BAF"/>
<path d="M140.681 411.841C139.963 385.284 141.527 322.848 141.825 318.663C142.128 314.392 139.261 269.404 137.213 238.401C136.106 221.681 135.245 209.034 135.245 209.034H58.1013L58.3407 234.678L56.3884 312.953C56.3884 312.953 46.5793 378.703 43.1908 406.848C55.383 411.889 69.8149 412.675 82.9806 411.13L92.5185 316.756L101.578 242.077L102.328 237.413L102.556 242.103L101.652 316.055L98.5721 416.016C112.834 418.943 126.904 416.064 140.681 411.836V411.841Z" fill="#2A2A2C"/>
<path d="M137.213 238.401C129.899 240.367 118.111 242.534 102.562 242.109L102.333 237.419L101.583 242.082C89.3376 241.668 74.81 239.639 58.3462 234.683L58.3196 231.491L58.3036 229.457L58.277 226.397L58.2504 224.289L58.1121 209.04H135.24C135.24 209.04 135.553 213.639 136.048 220.959C136.096 221.67 136.139 222.414 136.192 223.179C136.282 224.475 136.373 225.845 136.468 227.274C136.511 227.938 136.559 228.623 136.601 229.313C136.793 232.155 136.995 235.209 137.208 238.407L137.213 238.401Z" fill="#2A2A2C"/>
<path d="M70.3772 209.04C69.1909 216.449 64.9992 223.328 58.2647 226.398L58.2381 224.289C63.8661 221.352 67.4142 215.472 68.4941 209.04H70.3719H70.3772Z" fill="#2A2A2C"/>
<path d="M78.0425 209.04C75.436 219.312 68.0312 227.63 58.3178 231.486L58.3019 229.452C67.0046 225.75 73.5635 218.298 76.1009 209.04H78.0479H78.0425Z" fill="#2A2A2C"/>
<path d="M136.196 223.179C130.887 220.555 126.983 214.935 125.86 209.04H127.791C128.818 213.873 131.866 218.484 136.052 220.959C136.1 221.67 136.143 222.414 136.196 223.179Z" fill="#2A2A2C"/>
<path d="M136.605 229.314C127.839 226.212 121.631 218.303 120.679 209.04H122.53C123.424 217.219 128.86 224.268 136.478 227.274C136.52 227.938 136.568 228.623 136.611 229.314H136.605Z" fill="#2A2A2C"/>
<path d="M136.009 214.851V214.867L113.529 216.27L108.444 209.035L98.5706 217.204L58.5733 219.706H58.4722C58.4722 219.706 36.0346 86.8988 63.7598 67.2624C65.9727 65.7008 68.4622 64.851 71.2709 64.851L77.399 58.387L91.1552 68.8718L99.5707 75.7607L102.491 64.8457C102.491 64.8457 104.901 68.3619 105.725 71.1822C105.725 71.1822 105.784 71.1929 105.896 71.2088C107.114 71.4106 114.683 72.8447 121.264 78.5651C121.492 78.767 121.726 78.9688 121.95 79.1813C123.929 81.0084 125.791 83.2445 127.338 85.9693C135.084 99.6409 135.967 209.312 136.004 214.66C136.009 214.751 136.009 214.809 136.009 214.846V214.851Z" fill="#3C3148"/>
<path d="M99.5763 75.7712C99.5763 75.7712 110.082 190.833 108.449 209.035C108.449 209.035 112.407 132.816 99.5763 75.7712Z" fill="#261D30"/>
<path d="M102.497 64.8563L99.5762 75.7713L106.38 85.9746C106.327 78.3473 106.05 72.2764 105.731 71.1875C104.906 68.3724 102.502 64.851 102.502 64.851L102.497 64.8563Z" fill="#261D30"/>
<path d="M99.5762 75.7711L89.8894 87.9025L71.2764 64.8561L77.4045 58.3921L99.5762 75.7711Z" fill="#261D30"/>
<path d="M68.755 205.493C68.755 205.493 79.6068 201.849 81.0431 204.903C82.4847 207.957 73.9735 211.643 73.9735 211.643L68.755 205.493Z" fill="#F69787"/>
<path d="M92.4159 222.664C90.7668 224.672 78.266 211.824 78.266 211.824L73.6966 213.81L78.4203 219.669L80.3885 230.451C80.3885 230.451 78.6384 231.673 76.4148 233.043C76.1382 233.218 75.851 233.388 75.5637 233.558C74.2232 234.36 72.771 235.168 71.4571 235.768C71.3347 235.832 71.2017 235.885 71.0794 235.943C70.4144 236.225 69.7974 236.453 69.2601 236.596C68.659 236.75 68.159 236.793 67.7919 236.692L64.4672 228.82C64.4672 228.82 53.142 225.533 51.8866 224.258C51.3919 223.748 50.711 220.715 50.0727 217.241C49.7694 215.574 49.4715 213.805 49.2109 212.164L53.8389 209.63L64.3236 203.894C65.4833 203.984 67.0153 204.138 68.7175 204.361C69.5527 204.467 70.4304 204.595 71.3241 204.744C74.5583 205.285 78 206.098 80.5055 207.304C81.5694 207.814 82.4578 208.393 83.0855 209.057C87.4475 213.63 94.0649 220.662 92.4212 222.664H92.4159Z" fill="url(#paint19_linear_292_1446)"/>
<path d="M71.4511 235.762C71.3287 235.826 71.1957 235.879 71.0734 235.938C70.9776 235.592 70.8606 235.141 70.7117 234.599C70.3765 233.372 69.8925 231.72 69.3339 229.946C68.7594 228.178 68.137 226.611 67.5412 225.49C67.387 225.209 67.2433 224.954 67.121 224.731C66.9774 224.518 66.855 224.327 66.7486 224.178C66.5518 223.865 66.4348 223.679 66.4348 223.679C66.4348 223.679 66.621 223.785 66.9508 224.003C67.1157 224.109 67.3178 224.242 67.5466 224.406C67.7593 224.587 67.9934 224.794 68.254 225.033C69.2701 225.995 70.4191 227.615 71.0468 229.559C71.6585 231.503 71.7064 233.303 71.6053 234.573C71.5628 235.04 71.5043 235.438 71.4511 235.752V235.762Z" fill="#F47D6F"/>
<path d="M76.4091 233.038C76.1325 233.213 75.8453 233.383 75.558 233.553C75.5314 233.484 75.5154 233.41 75.4942 233.341C75.1537 232.114 74.675 230.462 74.1111 228.688C73.5419 226.914 72.9195 225.352 72.3184 224.231C72.1642 223.95 72.0312 223.695 71.9035 223.477C71.7599 223.259 71.6322 223.074 71.5365 222.919C71.3343 222.601 71.2173 222.426 71.2173 222.426C71.2173 222.426 71.3982 222.532 71.728 222.744C71.8875 222.85 72.095 222.983 72.3237 223.153C72.5365 223.328 72.7759 223.541 73.0312 223.78C74.0526 224.747 75.1963 226.372 75.824 228.311C76.3932 230.111 76.4783 231.795 76.4038 233.038H76.4091Z" fill="#F47D6F"/>
<path d="M69.2542 236.591C68.6531 236.745 68.1531 236.788 67.786 236.687L64.4613 228.815C64.4613 228.815 53.1361 225.527 51.8807 224.253C51.386 223.743 50.7051 220.71 50.0668 217.236C49.7635 215.568 49.4657 213.8 49.205 212.159L53.833 209.625C54.0085 211.155 54.2106 212.716 54.4607 214.203C55.1362 218.341 56.0938 221.91 57.4077 222.681C60.8813 224.715 66.7328 227.578 66.7328 227.578L69.2595 236.591H69.2542Z" fill="#F69787"/>
<path d="M68.1494 202.167L65.0907 204.621L53.7815 213.369L48.9248 217.124C48.9248 217.124 -4.40857 160.679 0.293869 143.454C4.92184 126.495 58.8403 71.9835 60.5213 70.2945C60.5372 70.2786 60.5479 70.2679 60.5532 70.2626C60.5532 70.252 60.5638 70.2467 60.5638 70.2467C60.5638 70.2467 60.6011 70.4751 60.6702 70.9053C61.4203 75.7175 66.1068 105.446 68.1548 108.728C69.3304 110.619 58.3775 121.518 47.7811 131.381C38.323 140.182 29.1522 148.16 29.1522 148.16C36.0516 154.104 68.1601 202.167 68.1601 202.167H68.1494Z" fill="#3C3148"/>
<path d="M16.0558 142.514C16.3324 142.148 16.9069 142.27 17.3325 142.44C19.7688 143.401 22.0988 144.639 24.2585 146.115C24.6841 146.407 25.3437 146.811 25.9873 147.289L49.9038 124.291L49.9251 129.363C40.467 138.159 29.1418 148.155 29.1418 148.155C36.0412 154.104 68.155 202.162 68.155 202.162L65.091 204.616C56.9522 193.217 35.2379 162.9 26.6576 151.825C24.0244 153.429 20.9551 154.311 17.8751 154.343C18.7847 152.176 21.0934 150.997 23.2265 149.998C21.003 147.953 18.7741 145.908 16.5505 143.858C16.1622 143.502 15.7473 142.929 16.0612 142.504L16.0558 142.514Z" fill="#3C3148"/>
<path d="M154.122 172.987C154.122 172.987 140.717 108.028 136.014 95.7902C134.126 90.8719 131.371 87.1326 128.753 84.4131C126.822 82.4054 124.966 80.9501 123.583 79.9993C122.173 79.0326 121.263 78.5812 121.263 78.5812C121.263 78.5812 121.279 79.4841 121.317 81.0935C121.593 94.5952 122.944 158.014 123.753 159.692C124.152 160.521 129.817 172.992 136.009 186.648V186.664C136.179 187.03 136.35 187.402 136.514 187.774L155.303 176.684L154.122 172.992V172.987Z" fill="#3C3148"/>
<path d="M140.249 182.022C140.488 178.893 130.057 106.408 126.056 92.5558C128.987 115.347 136.009 186.643 136.009 186.643V186.659C136.179 187.025 136.35 187.397 136.514 187.769L141.052 185.092C140.504 183.62 140.201 182.548 140.243 182.027L140.249 182.022Z" fill="#261D30"/>
<path d="M171.938 131.429L128.945 129.639L121.328 191.921L161.416 191.576L171.938 131.429Z" fill="#EAE2CC"/>
<path d="M174.405 156.558C173.91 157.546 173.07 158.311 172.155 158.746C171.101 159.256 170.032 159.808 168.952 160.201C168.846 160.239 168.74 160.276 168.628 160.313C168.123 160.488 167.617 160.621 167.112 160.701C166.926 160.727 166.745 160.749 166.564 160.764C165.947 160.807 165.335 160.748 164.782 160.557C163.867 160.249 163.681 158.927 164.452 157.981C165.42 156.797 166.686 155.883 167.968 155.267C168.761 154.89 171.442 153.987 173.192 154.072C174.501 154.13 175.299 154.741 174.394 156.547L174.405 156.558Z" fill="url(#paint20_linear_292_1446)"/>
<path d="M171.549 162.586C171.054 163.574 170.219 164.334 169.304 164.78C168.623 165.104 167.931 165.449 167.234 165.762C166.963 165.89 166.687 166.007 166.41 166.108C165.697 166.394 164.979 166.623 164.256 166.734C164.112 166.756 163.974 166.772 163.83 166.782C163.17 166.841 162.516 166.782 161.926 166.586C161.011 166.278 160.83 164.955 161.606 164.015C162.569 162.825 163.835 161.906 165.123 161.301C165.405 161.168 165.926 160.966 166.564 160.759C167.165 160.573 167.867 160.382 168.559 160.265C168.692 160.238 168.82 160.217 168.947 160.201C170.963 159.904 172.74 160.212 171.538 162.586H171.549Z" fill="url(#paint21_linear_292_1446)"/>
<path d="M170.214 168.084C169.719 169.072 168.884 169.831 167.969 170.277C167.118 170.692 166.24 171.127 165.367 171.494C165.096 171.605 164.82 171.717 164.548 171.802C164.011 171.998 163.468 172.152 162.92 172.237C162.596 172.285 162.272 172.312 161.952 172.306C161.479 172.306 161.016 172.232 160.596 172.088C159.681 171.78 159.5 170.463 160.277 169.518C161.24 168.333 162.506 167.409 163.793 166.804C163.809 166.804 163.814 166.793 163.83 166.788C164.346 166.543 165.538 166.129 166.788 165.853C166.931 165.821 167.086 165.789 167.235 165.768C169.4 165.369 171.49 165.555 170.219 168.084H170.214Z" fill="url(#paint22_linear_292_1446)"/>
<path d="M167.485 173.937C166.99 174.925 166.149 175.695 165.24 176.13C165.101 176.199 164.963 176.263 164.825 176.332C163.309 177.07 161.755 177.846 160.192 178.085C159.388 178.212 158.574 178.186 157.867 177.941C156.952 177.633 156.771 176.311 157.548 175.371C158.511 174.186 159.777 173.267 161.064 172.657C161.255 172.556 161.569 172.433 161.958 172.301C162.771 172.014 163.905 171.69 164.958 171.541C165.101 171.52 165.234 171.504 165.373 171.488C167.171 171.313 168.591 171.743 167.49 173.931L167.485 173.937Z" fill="url(#paint23_linear_292_1446)"/>
<path d="M174.406 156.558C173.911 157.546 173.071 158.31 172.156 158.746C171.102 159.256 170.033 159.808 168.953 160.201C170.969 159.904 172.746 160.212 171.544 162.586C171.049 163.574 170.214 164.334 169.299 164.78C168.618 165.104 167.927 165.449 167.23 165.762C169.395 165.364 171.485 165.55 170.214 168.078C169.719 169.066 168.884 169.826 167.969 170.272C167.118 170.686 166.24 171.122 165.368 171.488C167.166 171.313 168.586 171.743 167.485 173.931C166.99 174.919 166.15 175.689 165.24 176.125C165.102 176.194 164.964 176.258 164.825 176.327C164.879 176.226 164.926 176.136 164.969 176.035C165.32 175.28 165.618 174.452 165.597 173.618C165.586 172.805 165.198 171.998 164.554 171.796L164.511 171.785C164.666 171.701 164.809 171.626 164.958 171.541C165.895 171.005 166.831 170.335 167.325 169.252C167.889 167.988 167.325 166.123 166.176 166.272C166.256 166.219 166.336 166.166 166.411 166.113C166.538 166.033 166.661 165.943 166.788 165.853C167.623 165.268 168.432 164.588 168.927 163.611C169.48 162.517 169.405 160.95 168.634 160.323C168.613 160.313 168.592 160.286 168.57 160.276C168.496 160.222 168.416 160.18 168.331 160.148C169.985 159.081 171.57 157.97 172.523 155.931C172.783 155.373 172.985 154.725 173.204 154.088C174.512 154.146 175.31 154.757 174.406 156.563V156.558Z" fill="url(#paint24_linear_292_1446)"/>
<path d="M73.2185 26.5913C73.2185 26.5913 74.5483 24.3021 75.8835 24.233C76.1708 24.2171 76.5272 24.249 76.9315 24.3127C79.8093 24.7854 85.0756 27.0215 85.0756 27.0215C85.0756 27.0215 85.948 24.7589 85.8523 23.8347L85.5491 23.7019C85.5491 23.7019 85.2352 25.1307 85.0331 25.3378L85.0703 23.4894C85.0703 23.4894 80.8785 22.8574 78.1656 22.4643L77.7134 22.3953C77.3943 22.3475 77.1017 22.305 76.8464 22.2731C76.2878 22.1934 75.9314 22.151 75.9101 22.151C75.7984 22.1828 75.5537 22.2678 75.5271 22.2731L75.6761 21.8748C75.6761 21.8748 74.2664 23.346 73.2291 26.5913H73.2185Z" fill="url(#paint25_linear_292_1446)"/>
<g style="mix-blend-mode:multiply" opacity="0.6">
<path d="M73.2186 26.5914C73.2186 26.5914 74.5485 24.3021 75.8837 24.2331C76.1709 24.2172 76.5273 24.249 76.9316 24.3128L78.1604 22.4591L77.7082 22.39C76.9688 22.5175 74.9155 23.9941 74.9155 23.9941C75.4794 22.8999 76.7667 22.2997 76.8412 22.2679C76.2826 22.1882 75.9262 22.1457 75.9049 22.1457C75.7932 22.1776 75.5485 22.2626 75.5219 22.2679L75.6709 21.8695C75.6709 21.8695 74.2612 23.3408 73.2239 26.5861L73.2186 26.5914Z" fill="#B23594"/>
</g>
<path d="M105.465 26.5913C105.465 26.5913 104.135 24.3021 102.8 24.233C102.512 24.2171 102.156 24.249 101.752 24.3127C98.8737 24.7854 93.6074 27.0215 93.6074 27.0215C93.6074 27.0215 92.735 24.7589 92.8308 23.8347L93.134 23.7019C93.134 23.7019 93.4478 25.1307 93.65 25.3378L93.6128 23.4894C93.6128 23.4894 97.8045 22.8574 100.517 22.4643L100.97 22.3953C101.289 22.3475 101.581 22.305 101.837 22.2731C102.395 22.1934 102.752 22.151 102.773 22.151C102.885 22.1828 103.129 22.2678 103.156 22.2731L103.007 21.8748C103.007 21.8748 104.417 23.346 105.454 26.5913H105.465Z" fill="url(#paint26_linear_292_1446)"/>
<g style="mix-blend-mode:multiply" opacity="0.6">
<path d="M105.465 26.5914C105.465 26.5914 104.135 24.3021 102.8 24.2331C102.512 24.2172 102.156 24.249 101.752 24.3128L100.523 22.4591L100.975 22.39C101.714 22.5175 103.768 23.9941 103.768 23.9941C103.204 22.8999 101.916 22.2997 101.842 22.2679C102.401 22.1882 102.757 22.1457 102.778 22.1457C102.89 22.1776 103.135 22.2626 103.161 22.2679L103.012 21.8695C103.012 21.8695 104.422 23.3408 105.459 26.5861L105.465 26.5914Z" fill="#B23594"/>
</g>
<path d="M84.3139 31.8132C84.3351 32.1903 81.0902 32.2169 79.1007 31.9672C77.1113 31.7176 76.191 30.2569 76.1378 29.8639C76.0899 29.4709 76.6272 28.3608 79.3774 28.6104C82.1275 28.86 84.2553 30.9474 84.3085 31.8079L84.3139 31.8132Z" fill="url(#paint27_linear_292_1446)"/>
<path d="M78.3447 30.2723C78.4298 31.3983 79.4139 32.2375 80.5416 32.1526C81.6694 32.0676 82.5098 31.085 82.4247 29.9589C82.3396 28.8329 81.3555 27.9937 80.2278 28.0787C79.1 28.1637 78.2596 29.1463 78.3447 30.2723Z" fill="url(#paint28_linear_292_1446)"/>
<path d="M78.4675 30.2615C78.5473 31.3184 79.4729 32.1151 80.5368 32.0302C81.6007 31.9452 82.3933 31.0263 82.3082 29.964C82.2284 28.907 81.3028 28.1103 80.2389 28.1953C79.1803 28.275 78.3824 29.1992 78.4675 30.2615Z" fill="url(#paint29_linear_292_1446)"/>
<path style="mix-blend-mode:multiply" d="M79.1422 30.2138C79.1954 30.899 79.7965 31.4142 80.4827 31.3611C81.1689 31.308 81.6849 30.7078 81.6317 30.0226C81.5785 29.3374 80.9774 28.8222 80.2912 28.8753C79.605 28.9285 79.089 29.5287 79.1422 30.2138Z" fill="url(#paint30_linear_292_1446)"/>
<path d="M84.4463 31.9831C84.4463 31.9831 82.744 28.2332 79.9673 27.7605C77.6799 27.3675 75.9936 29.4177 75.9936 29.4177C75.9936 29.4177 77.7969 28.4935 80.0843 28.9556C82.3717 29.4177 84.441 31.9884 84.441 31.9884L84.4463 31.9831Z" fill="#E56D5C"/>
<path d="M84.1115 31.3295L83.5317 32.0678C83.5317 32.0678 84.3668 31.9934 84.4413 31.9668C84.5158 31.9403 84.1115 31.3295 84.1115 31.3295Z" fill="#DE4E6B"/>
<path d="M82.4353 32.1262C82.4353 32.1262 79.6798 32.3705 78.1052 31.8288C76.403 31.2392 76.137 29.8635 76.137 29.8635C76.137 29.8635 76.5626 31.2498 78.3552 31.7438C79.9245 32.1793 82.4353 32.1209 82.4353 32.1209V32.1262Z" fill="#DE4E6B"/>
<path d="M78.537 30.7029C78.7179 30.8092 78.0051 30.9844 77.4306 30.8782C76.9146 30.7826 76.622 30.5223 76.6539 30.4586C76.6912 30.3949 77.8189 30.278 78.537 30.6976V30.7029Z" fill="white"/>
<path d="M78.9731 30.7612C79.1646 30.6496 79.4199 30.708 79.4518 30.8143C79.4837 30.9205 79.255 31.1064 79.1326 31.0852C79.005 31.0639 78.8667 30.8196 78.9731 30.7612Z" fill="white"/>
<g style="mix-blend-mode:multiply" opacity="0.6">
<path d="M84.3247 31.7812C84.3247 31.7812 80.6915 28.3181 76.1433 29.8691C76.1433 29.8691 77.404 28.5359 80.1595 28.7431C82.9204 28.9502 84.3247 31.7812 84.3247 31.7812Z" fill="#B23594"/>
</g>
<path d="M84.4463 31.9827C84.4463 31.9827 82.6962 29.4969 80.1109 29.2579C77.5256 29.0136 76.1372 29.8687 76.1372 29.8687L75.9032 29.4757C75.9032 29.4757 78.1746 28.3656 80.4354 28.9233C83.1483 29.5979 84.4463 31.9827 84.4463 31.9827Z" fill="#290B39"/>
<path d="M84.4463 31.9829C84.4463 31.9829 83.2388 27.9462 81.4301 26.7034C81.4301 26.7034 83.5047 29.7043 84.4463 31.9829Z" fill="#DE4E6B"/>
<path d="M94.1541 31.8132C94.1328 32.1903 97.3777 32.2169 99.3672 31.9672C101.357 31.7176 102.277 30.2569 102.33 29.8639C102.378 29.4709 101.841 28.3608 99.0906 28.6104C96.3404 28.86 94.2126 30.9474 94.1594 31.8079L94.1541 31.8132Z" fill="url(#paint31_linear_292_1446)"/>
<path d="M100.118 30.2723C100.033 31.3983 99.0489 32.2375 97.9211 32.1526C96.7934 32.0676 95.9529 31.085 96.038 29.9589C96.1231 28.8329 97.1073 27.9937 98.235 28.0787C99.3627 28.1637 100.203 29.1463 100.118 30.2723Z" fill="url(#paint32_linear_292_1446)"/>
<path d="M99.9962 30.2615C99.9164 31.3185 98.9908 32.1152 97.9269 32.0302C96.8684 31.9505 96.0704 31.0263 96.1555 29.964C96.2406 28.9018 97.1609 28.1104 98.2248 28.1953C99.2834 28.275 100.081 29.1992 99.9962 30.2615Z" fill="url(#paint33_linear_292_1446)"/>
<path style="mix-blend-mode:multiply" d="M99.3251 30.2138C99.2719 30.899 98.6708 31.4142 97.9846 31.3611C97.2984 31.308 96.7824 30.7078 96.8356 30.0226C96.8888 29.3374 97.4899 28.8222 98.1761 28.8753C98.8623 28.9285 99.3783 29.5287 99.3251 30.2138Z" fill="url(#paint34_linear_292_1446)"/>
<path d="M94.0168 31.9831C94.0168 31.9831 95.719 28.2332 98.4958 27.7605C100.783 27.3675 102.469 29.4177 102.469 29.4177C102.469 29.4177 100.666 28.4935 98.3788 28.9556C96.0914 29.4177 94.0221 31.9884 94.0221 31.9884L94.0168 31.9831Z" fill="#E56D5C"/>
<path d="M94.3513 31.3295L94.9312 32.0678C94.9312 32.0678 94.096 31.9934 94.0215 31.9668C93.947 31.9403 94.3513 31.3295 94.3513 31.3295Z" fill="#DE4E6B"/>
<path d="M96.0328 32.1262C96.0328 32.1262 98.7883 32.3705 100.363 31.8288C102.065 31.2392 102.331 29.8635 102.331 29.8635C102.331 29.8635 101.905 31.2498 100.113 31.7438C98.5436 32.1793 96.0328 32.1209 96.0328 32.1209V32.1262Z" fill="#DE4E6B"/>
<path d="M99.9263 30.7029C99.7454 30.8092 100.458 30.9844 101.033 30.8782C101.549 30.7826 101.841 30.5223 101.809 30.4586C101.772 30.3949 100.644 30.278 99.9263 30.6976V30.7029Z" fill="white"/>
<path d="M99.4902 30.7612C99.2987 30.6496 99.0433 30.708 99.0114 30.8143C98.9795 30.9205 99.2082 31.1064 99.3306 31.0852C99.4583 31.0639 99.5966 30.8196 99.4902 30.7612Z" fill="white"/>
<g style="mix-blend-mode:multiply" opacity="0.6">
<path d="M94.1443 31.7812C94.1443 31.7812 97.7775 28.3181 102.326 29.8691C102.326 29.8691 101.065 28.5359 98.3095 28.7431C95.5486 28.9502 94.1443 31.7812 94.1443 31.7812Z" fill="#B23594"/>
</g>
<path d="M94.0162 31.9827C94.0162 31.9827 95.7663 29.4969 98.3516 29.2579C100.937 29.0136 102.325 29.8687 102.325 29.8687L102.559 29.4757C102.559 29.4757 100.288 28.3656 98.0271 28.9233C95.3142 29.5979 94.0162 31.9827 94.0162 31.9827Z" fill="#290B39"/>
<path d="M94.0168 31.9829C94.0168 31.9829 95.2243 27.9462 97.033 26.7034C97.033 26.7034 94.9583 29.7043 94.0168 31.9829Z" fill="#DE4E6B"/>
<path d="M93.8903 39.5138C93.8903 39.5138 95.0712 35.2168 89.4964 35.2168C83.9215 35.2168 84.8578 39.4288 84.8578 39.4288L85.1078 39.5138C85.1078 39.5138 86.6292 40.4645 89.5017 40.4645C92.3742 40.4645 93.8956 39.5138 93.8956 39.5138H93.8903Z" fill="url(#paint35_linear_292_1446)"/>
<g style="mix-blend-mode:multiply" opacity="0.6">
<path d="M89.555 39.822C92.4701 39.822 93.8904 39.5139 93.8904 39.5139C92.4009 39.4714 91.1987 40.454 89.4965 40.4647C87.7942 40.454 86.5973 39.4714 85.1026 39.5139C85.1026 39.5139 86.8154 39.822 89.5497 39.822H89.555Z" fill="#B23594"/>
</g>
<path style="mix-blend-mode:multiply" opacity="0.5" d="M87.2305 39.9707C87.2305 39.9707 86.4804 39.174 85.108 39.514L87.2305 39.9707Z" fill="url(#paint36_linear_292_1446)"/>
<path style="mix-blend-mode:multiply" opacity="0.5" d="M93.8904 39.5136C93.8904 39.5136 93.0127 39.0834 91.8424 39.9492L93.8904 39.5136Z" fill="url(#paint37_linear_292_1446)"/>
<g style="mix-blend-mode:multiply" opacity="0.6">
<path d="M93.3322 36.4861C93.3322 36.4861 94.6089 37.5909 93.9972 39.4286C93.9972 39.4286 93.944 37.9414 93.3322 36.4861Z" fill="#B23594"/>
</g>
<g style="mix-blend-mode:multiply" opacity="0.6">
<path d="M85.5706 36.5605C85.5706 36.5605 84.246 37.591 84.8631 39.4287C84.8631 39.4287 84.9641 38.0159 85.5706 36.5605Z" fill="#B23594"/>
</g>
<g style="mix-blend-mode:multiply" opacity="0.6">
<path d="M93.8904 39.5139C93.8904 39.5139 91.4966 41.5801 89.4965 41.5801C87.4963 41.5801 84.8579 39.429 84.8579 39.429C85.31 36.7148 86.9431 39.822 89.5497 39.822C91.3211 39.822 93.4595 37.4372 93.8851 39.5139H93.8904Z" fill="#B23594"/>
</g>
<path d="M87.6083 38.4514C87.6242 38.207 87.321 37.9308 87.0816 37.9521C86.8423 37.9733 86.9646 38.5098 87.0816 38.6107C87.1987 38.7116 87.6083 38.446 87.6083 38.446V38.4514Z" fill="#FCCBB9"/>
<path style="mix-blend-mode:multiply" opacity="0.6" d="M93.3315 36.4864C93.3315 36.4864 92.9219 37.1238 92.4911 39.174C92.4911 39.174 91.9751 37.8036 93.0337 36.2527L93.3315 36.4864Z" fill="url(#paint38_linear_292_1446)"/>
<path style="mix-blend-mode:multiply" opacity="0.6" d="M85.6451 36.5451C85.6451 36.5451 85.9377 37.124 86.3633 39.1742C86.3633 39.1742 86.9963 37.7508 85.9377 36.1998L85.6451 36.5451Z" fill="url(#paint39_linear_292_1446)"/>
<path style="mix-blend-mode:multiply" d="M97.0813 45.214C97.0813 45.214 93.9056 50.8176 89.5861 50.8176C85.6816 50.8176 82.3676 45.3255 82.3676 45.3255C82.3676 45.3255 85.4209 48.4115 88.2988 48.7089C91.1766 49.0064 97.0813 45.214 97.0813 45.214Z" fill="url(#paint40_linear_292_1446)"/>
<path d="M98.5381 42.999C98.5381 42.999 95.4581 48.2042 93.3143 48.9213C91.1706 49.633 87.2395 49.2187 85.9787 48.9213C84.7127 48.6238 80.9252 43.4558 80.9252 43.4558C80.9252 43.4558 85.0478 47.2376 89.729 47.2376C94.4102 47.2376 98.5328 43.0043 98.5328 43.0043L98.5381 42.999Z" fill="#EF7172"/>
<path d="M98.5381 42.999C98.5381 42.999 95.889 44.5393 90.0162 44.5393C84.1435 44.5393 80.372 42.999 80.372 42.999C80.372 42.999 85.4042 47.4235 90.0162 47.4235C93.8995 47.4235 98.5381 42.999 98.5381 42.999Z" fill="#D35057"/>
<path d="M81.128 42.5316C81.128 42.5316 80.2077 43.2912 79.8088 43.886C79.8088 43.886 79.6758 42.8291 80.08 42.2926C80.4843 41.7561 81.1333 42.5316 81.1333 42.5316H81.128Z" fill="#DE6B7D"/>
<path d="M97.8683 42.5316C97.8683 42.5316 98.7886 43.2912 99.1876 43.886C99.1876 43.886 99.3205 42.8291 98.9163 42.2926C98.512 41.7561 97.863 42.5316 97.863 42.5316H97.8683Z" fill="#DE6B7D"/>
<path d="M96.874 44.0401C96.874 44.0401 93.5547 47.1102 90.0225 47.2323C85.6446 47.381 82.1816 43.8861 82.1816 43.8861C82.1816 43.8861 86.7617 44.9962 90.1342 44.9962C93.5068 44.9962 96.874 44.0454 96.874 44.0454V44.0401Z" fill="white"/>
<path d="M83.7294 44.2205L83.8198 45.2509L81.7346 43.7L83.7294 44.2205Z" fill="#4F1C3E"/>
<path d="M95.4424 44.3801L95.2616 45.3255L97.4851 43.7587L95.4424 44.3801Z" fill="#4F1C3E"/>
<g style="mix-blend-mode:soft-light">
<path d="M88.0383 47.8376L87.5064 49.1443C87.5064 49.1443 86.368 49.0752 85.6871 48.7884C84.9903 48.5016 83.3784 46.6851 82.8305 45.8883L83.4104 45.7184C83.4104 45.7184 85.3094 47.1843 88.0383 47.8376Z" fill="#FCCBB9"/>
</g>
<g style="mix-blend-mode:multiply" opacity="0.6">
<path d="M95.4158 44.5447C95.4158 44.5447 92.9901 45.2511 90.0219 45.2511C87.0536 45.2511 83.7448 44.3535 83.7448 44.3535L83.7342 44.2207C83.7342 44.2207 87.3196 44.9962 90.1336 44.9962C92.9476 44.9962 95.4478 44.3854 95.4478 44.3854L95.4158 44.5447Z" fill="#8D307F"/>
</g>
<defs>
<linearGradient id="paint0_linear_292_1446" x1="90.6565" y1="76.7904" x2="90.6565" y2="50.1854" gradientUnits="userSpaceOnUse">
<stop stop-color="#F9B19E"/>
<stop offset="0.21" stop-color="#F69B8F"/>
<stop offset="0.47" stop-color="#F48781"/>
<stop offset="0.74" stop-color="#F37B79"/>
<stop offset="1" stop-color="#F37777"/>
</linearGradient>
<linearGradient id="paint1_linear_292_1446" x1="83.8576" y1="66.5447" x2="83.8576" y2="52.9952" gradientUnits="userSpaceOnUse">
<stop stop-color="#FEEADB"/>
<stop offset="0.99" stop-color="#B17EB7"/>
</linearGradient>
<linearGradient id="paint2_linear_292_1446" x1="70.0435" y1="41.5809" x2="70.0435" y2="27.7127" gradientUnits="userSpaceOnUse">
<stop stop-color="#F4837E"/>
<stop offset="0.01" stop-color="#F3827D"/>
<stop offset="0.34" stop-color="#F27369"/>
<stop offset="0.67" stop-color="#F26A5D"/>
<stop offset="1" stop-color="#F26859"/>
</linearGradient>
<linearGradient id="paint3_linear_292_1446" x1="69.7718" y1="37.3583" x2="69.7718" y2="30.1666" gradientUnits="userSpaceOnUse">
<stop stop-color="#FEEADB"/>
<stop offset="0.99" stop-color="#B17EB7"/>
</linearGradient>
<linearGradient id="paint4_linear_292_1446" x1="71.2028" y1="37.1779" x2="71.2028" y2="31.6009" gradientUnits="userSpaceOnUse">
<stop stop-color="#FEEADB"/>
<stop offset="0.99" stop-color="#B17EB7"/>
</linearGradient>
<linearGradient id="paint5_linear_292_1446" x1="110.612" y1="41.5809" x2="110.612" y2="27.7127" gradientUnits="userSpaceOnUse">
<stop stop-color="#F4837E"/>
<stop offset="0.01" stop-color="#F3827D"/>
<stop offset="0.34" stop-color="#F27369"/>
<stop offset="0.67" stop-color="#F26A5D"/>
<stop offset="1" stop-color="#F26859"/>
</linearGradient>
<linearGradient id="paint6_linear_292_1446" x1="110.888" y1="37.3583" x2="110.888" y2="30.1666" gradientUnits="userSpaceOnUse">
<stop stop-color="#FEEADB"/>
<stop offset="0.99" stop-color="#B17EB7"/>
</linearGradient>
<linearGradient id="paint7_linear_292_1446" x1="109.452" y1="37.1779" x2="109.452" y2="31.6009" gradientUnits="userSpaceOnUse">
<stop stop-color="#FEEADB"/>
<stop offset="0.99" stop-color="#B17EB7"/>
</linearGradient>
<linearGradient id="paint8_linear_292_1446" x1="90.2056" y1="57.202" x2="90.2056" y2="6.36084" gradientUnits="userSpaceOnUse">
<stop stop-color="#F3797E"/>
<stop offset="0.11" stop-color="#F37C7A"/>
<stop offset="0.55" stop-color="#F5886E"/>
<stop offset="1" stop-color="#F68D6A"/>
</linearGradient>
<linearGradient id="paint9_linear_292_1446" x1="94.023" y1="5.01654" x2="80.5061" y2="5.01654" gradientUnits="userSpaceOnUse">
<stop stop-color="#33122B"/>
<stop offset="1" stop-color="#441B3E"/>
</linearGradient>
<linearGradient id="paint10_linear_292_1446" x1="89.911" y1="30.4318" x2="89.911" y2="0.00255735" gradientUnits="userSpaceOnUse">
<stop stop-color="#360F3A"/>
<stop offset="1" stop-color="#4C132E"/>
</linearGradient>
<linearGradient id="paint11_linear_292_1446" x1="90.4431" y1="7.16236" x2="77.2401" y2="7.16236" gradientUnits="userSpaceOnUse">
<stop stop-color="#33122B"/>
<stop offset="1" stop-color="#441B3E"/>
</linearGradient>
<linearGradient id="paint12_linear_292_1446" x1="92.8748" y1="5.68037" x2="85.0232" y2="5.68037" gradientUnits="userSpaceOnUse">
<stop stop-color="#33122B"/>
<stop offset="1" stop-color="#441B3E"/>
</linearGradient>
<linearGradient id="paint13_linear_292_1446" x1="95.2739" y1="5.75473" x2="90.4438" y2="5.75473" gradientUnits="userSpaceOnUse">
<stop stop-color="#33122B"/>
<stop offset="1" stop-color="#441B3E"/>
</linearGradient>
<linearGradient id="paint14_linear_292_1446" x1="109.625" y1="14.3862" x2="106.822" y2="14.3862" gradientUnits="userSpaceOnUse">
<stop stop-color="#33122B"/>
<stop offset="1" stop-color="#441B3E"/>
</linearGradient>
<linearGradient id="paint15_linear_292_1446" x1="105.051" y1="9.80755" x2="101.502" y2="9.80755" gradientUnits="userSpaceOnUse">
<stop stop-color="#33122B"/>
<stop offset="1" stop-color="#441B3E"/>
</linearGradient>
<linearGradient id="paint16_linear_292_1446" x1="85.5279" y1="8.77721" x2="74.1601" y2="8.77721" gradientUnits="userSpaceOnUse">
<stop stop-color="#33122B"/>
<stop offset="1" stop-color="#441B3E"/>
</linearGradient>
<linearGradient id="paint17_linear_292_1446" x1="76.262" y1="13.2547" x2="71.0808" y2="13.2547" gradientUnits="userSpaceOnUse">
<stop stop-color="#33122B"/>
<stop offset="1" stop-color="#441B3E"/>
</linearGradient>
<linearGradient id="paint18_linear_292_1446" x1="107.327" y1="11.2099" x2="105.019" y2="11.2099" gradientUnits="userSpaceOnUse">
<stop stop-color="#33122B"/>
<stop offset="1" stop-color="#441B3E"/>
</linearGradient>
<linearGradient id="paint19_linear_292_1446" x1="92.6765" y1="220.317" x2="49.2003" y2="220.317" gradientUnits="userSpaceOnUse">
<stop stop-color="#E9A792"/>
<stop offset="0.08" stop-color="#ECA78E"/>
<stop offset="0.51" stop-color="#F9AC81"/>
<stop offset="0.59" stop-color="#F8A57D"/>
<stop offset="0.79" stop-color="#F69977"/>
<stop offset="1" stop-color="#F69575"/>
</linearGradient>
<linearGradient id="paint20_linear_292_1446" x1="174.793" y1="157.429" x2="163.979" y2="157.429" gradientUnits="userSpaceOnUse">
<stop stop-color="#E9A792"/>
<stop offset="0.08" stop-color="#ECA78E"/>
<stop offset="0.51" stop-color="#F9AC81"/>
<stop offset="0.59" stop-color="#F8A57D"/>
<stop offset="0.79" stop-color="#F69977"/>
<stop offset="1" stop-color="#F69575"/>
</linearGradient>
<linearGradient id="paint21_linear_292_1446" x1="171.937" y1="163.457" x2="161.122" y2="163.457" gradientUnits="userSpaceOnUse">
<stop stop-color="#E9A792"/>
<stop offset="0.08" stop-color="#ECA78E"/>
<stop offset="0.51" stop-color="#F9AC81"/>
<stop offset="0.59" stop-color="#F8A57D"/>
<stop offset="0.79" stop-color="#F69977"/>
<stop offset="1" stop-color="#F69575"/>
</linearGradient>
<linearGradient id="paint22_linear_292_1446" x1="170.607" y1="168.955" x2="159.787" y2="168.955" gradientUnits="userSpaceOnUse">
<stop stop-color="#E9A792"/>
<stop offset="0.08" stop-color="#ECA78E"/>
<stop offset="0.51" stop-color="#F9AC81"/>
<stop offset="0.59" stop-color="#F8A57D"/>
<stop offset="0.79" stop-color="#F69977"/>
<stop offset="1" stop-color="#F69575"/>
</linearGradient>
<linearGradient id="paint23_linear_292_1446" x1="167.873" y1="174.808" x2="157.058" y2="174.808" gradientUnits="userSpaceOnUse">
<stop stop-color="#E9A792"/>
<stop offset="0.08" stop-color="#ECA78E"/>
<stop offset="0.51" stop-color="#F9AC81"/>
<stop offset="0.59" stop-color="#F8A57D"/>
<stop offset="0.79" stop-color="#F69977"/>
<stop offset="1" stop-color="#F69575"/>
</linearGradient>
<linearGradient id="paint24_linear_292_1446" x1="174.794" y1="165.21" x2="164.506" y2="165.21" gradientUnits="userSpaceOnUse">
<stop stop-color="#E9A792"/>
<stop offset="0.08" stop-color="#ECA78E"/>
<stop offset="0.51" stop-color="#F9AC81"/>
<stop offset="0.59" stop-color="#F8A57D"/>
<stop offset="0.79" stop-color="#F69977"/>
<stop offset="1" stop-color="#F69575"/>
</linearGradient>
<linearGradient id="paint25_linear_292_1446" x1="85.8576" y1="24.4508" x2="73.2185" y2="24.4508" gradientUnits="userSpaceOnUse">
<stop stop-color="#360F3A"/>
<stop offset="1" stop-color="#4C132E"/>
</linearGradient>
<linearGradient id="paint26_linear_292_1446" x1="92.8255" y1="24.4508" x2="105.465" y2="24.4508" gradientUnits="userSpaceOnUse">
<stop stop-color="#360F3A"/>
<stop offset="1" stop-color="#4C132E"/>
</linearGradient>
<linearGradient id="paint27_linear_292_1446" x1="80.149" y1="32.0787" x2="80.3571" y2="28.6804" gradientUnits="userSpaceOnUse">
<stop stop-color="#EDE1EF"/>
<stop offset="1" stop-color="#C0C7E6"/>
</linearGradient>
<linearGradient id="paint28_linear_292_1446" x1="80.5463" y1="32.1585" x2="80.2337" y2="28.0806" gradientUnits="userSpaceOnUse">
<stop stop-color="#4C132E"/>
<stop offset="1" stop-color="#360F3A"/>
</linearGradient>
<linearGradient id="paint29_linear_292_1446" x1="80.5374" y1="32.0365" x2="80.2435" y2="28.2022" gradientUnits="userSpaceOnUse">
<stop stop-color="#4C132E"/>
<stop offset="1" stop-color="#360F3A"/>
</linearGradient>
<linearGradient id="paint30_linear_292_1446" x1="80.4848" y1="31.3641" x2="80.294" y2="28.875" gradientUnits="userSpaceOnUse">
<stop stop-color="#C9A8CF"/>
<stop offset="0.99" stop-color="#8361AA"/>
</linearGradient>
<linearGradient id="paint31_linear_292_1446" x1="98.3113" y1="32.071" x2="98.1032" y2="28.6727" gradientUnits="userSpaceOnUse">
<stop stop-color="#EDE1EF"/>
<stop offset="1" stop-color="#C0C7E6"/>
</linearGradient>
<linearGradient id="paint32_linear_292_1446" x1="97.9187" y1="32.1519" x2="98.2309" y2="28.0793" gradientUnits="userSpaceOnUse">
<stop stop-color="#4C132E"/>
<stop offset="1" stop-color="#360F3A"/>
</linearGradient>
<linearGradient id="paint33_linear_292_1446" x1="97.9286" y1="32.0299" x2="98.2225" y2="28.1956" gradientUnits="userSpaceOnUse">
<stop stop-color="#4C132E"/>
<stop offset="1" stop-color="#360F3A"/>
</linearGradient>
<linearGradient id="paint34_linear_292_1446" x1="97.9794" y1="31.3574" x2="98.1702" y2="28.8683" gradientUnits="userSpaceOnUse">
<stop stop-color="#C9A8CF"/>
<stop offset="0.99" stop-color="#8361AA"/>
</linearGradient>
<linearGradient id="paint35_linear_292_1446" x1="89.4006" y1="40.4645" x2="89.4006" y2="35.2115" gradientUnits="userSpaceOnUse">
<stop stop-color="#F3797E"/>
<stop offset="0.11" stop-color="#F37C7A"/>
<stop offset="0.55" stop-color="#F5886E"/>
<stop offset="1" stop-color="#F68D6A"/>
</linearGradient>
<linearGradient id="paint36_linear_292_1446" x1="87.2305" y1="39.6999" x2="85.108" y2="39.6999" gradientUnits="userSpaceOnUse">
<stop offset="0.02" stop-color="#7A55A3"/>
<stop offset="0.99" stop-color="#BD89BD"/>
</linearGradient>
<linearGradient id="paint37_linear_292_1446" x1="93.8904" y1="39.673" x2="91.8424" y2="39.673" gradientUnits="userSpaceOnUse">
<stop offset="0.02" stop-color="#7A55A3"/>
<stop offset="0.99" stop-color="#BD89BD"/>
</linearGradient>
<linearGradient id="paint38_linear_292_1446" x1="92.8475" y1="39.174" x2="92.8475" y2="36.2527" gradientUnits="userSpaceOnUse">
<stop stop-color="#FEEADB"/>
<stop offset="0.99" stop-color="#B17EB7"/>
</linearGradient>
<linearGradient id="paint39_linear_292_1446" x1="86.0973" y1="39.1742" x2="86.0973" y2="36.1998" gradientUnits="userSpaceOnUse">
<stop stop-color="#FEEADB"/>
<stop offset="0.99" stop-color="#B17EB7"/>
</linearGradient>
<linearGradient id="paint40_linear_292_1446" x1="89.7244" y1="50.8176" x2="89.7244" y2="45.214" gradientUnits="userSpaceOnUse">
<stop stop-color="#F8C0D8"/>
<stop offset="0.99" stop-color="#B17EB7"/>
</linearGradient>
</defs>
</svg>
