<svg width="134" height="445" viewBox="0 0 134 445" fill="none" xmlns="http://www.w3.org/2000/svg">
<path d="M34.7247 166.947L73.4166 175.538C78.5 174.385 87.8241 175.417 90.5212 176.745C95.1094 178.999 90.6107 181.517 90.6107 181.517C93.9242 184.257 89.9048 185.431 89.9048 185.431C93.8451 187.333 89.3886 189.619 89.3886 189.619C93.4975 193.212 87.3447 195.672 78.99 193.217C75.882 192.306 74.2226 190.499 73.3587 188.592C62.1962 188.371 26.8651 186.516 18.9581 181.628C6.19426 173.742 21.5499 93.4344 21.5499 93.4344L39.8713 99.603L34.7247 166.936V166.947Z" fill="url(#paint0_linear_292_1582)"/>
<path d="M82.8623 176.186C83.3311 176.718 83.8315 177.245 84.332 177.777C84.8429 183.277 85.4804 188.771 84.627 194.197C82.9623 194.128 81.0449 193.828 78.9957 193.222C75.8877 192.311 74.2283 190.504 73.3644 188.597C72.6111 188.581 71.684 188.555 70.6831 188.518C72.9746 184.162 75.1133 179.663 77.1467 175.085C78.7797 175.006 80.5339 175.054 82.2407 175.175C82.3776 175.517 82.5778 175.854 82.8675 176.186H82.8623Z" fill="url(#paint1_linear_292_1582)"/>
<path d="M86.5543 177.635C86.5543 177.635 88.7931 173.232 84.1627 170.877C79.5324 168.522 72.5999 173.6 73.3058 179.047C74.0117 184.489 86.5543 177.635 86.5543 177.635Z" fill="url(#paint2_linear_292_1582)"/>
<path d="M86.7338 173.595C86.7338 173.595 89.294 182.118 84.6636 188.018C81.6293 191.885 80.7548 181.107 82.1245 177.914C83.4941 174.727 86.7338 173.595 86.7338 173.595Z" fill="url(#paint3_linear_292_1582)"/>
<path d="M89.3945 189.625C89.3945 189.625 92.0968 190.015 91.686 192.322C91.2698 194.624 79.4331 195.793 79.0538 192.027C78.6745 188.26 89.3945 189.625 89.3945 189.625Z" fill="url(#paint4_linear_292_1582)"/>
<path d="M90.7104 177.182C90.7104 177.182 93.4128 177.572 93.0019 179.879C92.5857 182.181 80.749 183.351 80.3697 179.584C79.9904 175.818 90.7104 177.182 90.7104 177.182Z" fill="url(#paint5_linear_292_1582)"/>
<path d="M89.5306 185.294C89.5306 185.294 92.3489 185.705 91.9327 188.007C91.5166 190.309 79.2163 191.394 78.7948 187.623C78.3734 183.846 89.5359 185.294 89.5359 185.294H89.5306Z" fill="url(#paint6_linear_292_1582)"/>
<path d="M89.8622 181.254C89.8622 181.254 92.6804 181.665 92.2643 183.972C91.8481 186.274 79.5478 187.36 79.1264 183.588C78.705 179.811 89.8674 181.26 89.8674 181.26L89.8622 181.254Z" fill="url(#paint7_linear_292_1582)"/>
<path d="M39.7917 100.662C42.552 96.4847 41.3246 87.2555 38.0481 84.6849C34.2236 81.6875 28.2552 83.1625 25.5581 85.5435C23.0401 87.7613 21.7811 92.2652 21.5493 93.4452" fill="url(#paint8_linear_292_1582)"/>
<path d="M93.7931 171.355L56.8974 185.842C51.6928 185.489 42.6427 187.959 40.1827 189.682C36 192.621 40.8306 194.412 40.8306 194.412C37.9807 197.631 42.137 198.173 42.137 198.173C38.5391 200.66 43.2959 202.23 43.2959 202.23C39.7929 206.418 46.2512 207.893 54.1265 204.173C57.0554 202.788 58.4145 200.749 58.9729 198.732C69.9668 196.783 104.582 189.476 111.635 183.424C123.019 173.652 95.405 96.6946 95.405 96.6946L78.2636 105.629L93.7825 171.35L93.7931 171.355Z" fill="url(#paint9_linear_292_1582)"/>
<path d="M47.6736 187.943C47.2943 188.539 46.8782 189.139 46.4673 189.74C46.815 195.25 47.0362 200.781 48.7219 206.007C50.3602 205.68 52.2039 205.085 54.1372 204.174C57.0661 202.788 58.4252 200.749 58.9836 198.732C59.7263 198.6 60.6377 198.426 61.6227 198.242C58.6833 194.291 55.8756 190.182 53.1574 185.973C51.5296 186.147 49.8018 186.468 48.1372 186.853C48.0582 187.211 47.9107 187.58 47.6736 187.949V187.943Z" fill="url(#paint10_linear_292_1582)"/>
<path d="M44.2501 189.945C44.2501 189.945 41.3581 185.942 45.5671 182.897C49.7761 179.857 57.4091 183.798 57.5566 189.282C57.7041 194.765 44.2501 189.94 44.2501 189.94V189.945Z" fill="url(#paint11_linear_292_1582)"/>
<path d="M43.4436 185.984C43.4436 185.984 42.232 194.797 47.7263 199.912C51.3242 203.262 50.513 192.474 48.6692 189.54C46.8255 186.6 43.4436 185.984 43.4436 185.984Z" fill="url(#paint12_linear_292_1582)"/>
<path d="M43.3018 202.235C43.3018 202.235 40.689 203.041 41.4581 205.253C42.2272 207.466 54.1008 206.786 53.8901 203.004C53.6794 199.222 43.3018 202.235 43.3018 202.235Z" fill="url(#paint13_linear_292_1582)"/>
<path d="M40.0723 190.14C40.0723 190.14 37.4595 190.946 38.2286 193.159C38.9977 195.371 50.8713 194.692 50.6606 190.91C50.4499 187.127 40.0723 190.14 40.0723 190.14Z" fill="url(#paint14_linear_292_1582)"/>
<path d="M42.4953 197.973C42.4953 197.973 39.7772 198.816 40.5463 201.029C41.3154 203.241 53.6367 202.404 53.4682 198.611C53.2996 194.818 42.5006 197.973 42.5006 197.973H42.4953Z" fill="url(#paint15_linear_292_1582)"/>
<path d="M41.5417 194.033C41.5417 194.033 38.8235 194.876 39.5926 197.088C40.3617 199.301 52.6831 198.463 52.5145 194.67C52.346 190.878 41.547 194.033 41.547 194.033H41.5417Z" fill="url(#paint16_linear_292_1582)"/>
<path d="M78.5167 106.651C75.1453 102.953 74.9241 93.6394 77.7582 90.5946C81.0716 87.0388 87.1928 87.5709 90.2323 89.5041C93.0664 91.3057 95.0102 95.5568 95.4158 96.6894" fill="url(#paint17_linear_292_1582)"/>
<path d="M62.3442 239.912L110.934 433.329L130.146 431.112L119.063 411.157L89.0625 225.404L62.3442 239.912Z" fill="#F8AEA0"/>
<path opacity="0.2" d="M116.092 392.783L89.0572 225.404L62.3442 239.917L101.489 395.733C106.346 394.695 111.219 393.721 116.092 392.783Z" fill="#201829"/>
<path d="M55.5229 229.734L49.9022 422.967L35.932 413.928L17.5474 220.8L55.5229 229.734Z" fill="#F8AEA0"/>
<path opacity="0.2" d="M50.7234 394.669L55.5171 229.739L17.5415 220.805L34.0719 394.474C39.6188 394.295 45.2449 394.579 50.7181 394.674L50.7234 394.669Z" fill="#201829"/>
<path d="M24.1157 127.739L27.898 176.761L88.6462 168.712L70.9464 137.859L24.1157 127.739Z" fill="url(#paint18_linear_292_1582)"/>
<path d="M53.8583 63.1976L50.8557 82.9677L35.5264 83.3838L53.7213 105.725L81.8356 88.2829L69.3351 84.7587L70.9734 57.9246L53.8583 63.1976Z" fill="url(#paint19_linear_292_1582)"/>
<path d="M60.6956 15.4663C60.6956 15.4663 38.3285 16.2723 34.5726 42.4111C30.8166 68.5499 49.9177 75.0135 62.297 72.8853C74.6763 70.7571 82.873 57.3558 84.5324 49.5753C86.197 41.7948 80.9819 15.735 60.6903 15.4716L60.6956 15.4663Z" fill="url(#paint20_linear_292_1582)"/>
<path d="M25.9126 147.251C25.9126 147.251 44.3973 154.837 76.8628 149.258C76.8628 149.258 106.131 175.997 110.566 209.991C113.679 233.848 127.534 383.464 127.534 383.464L83.5318 386.804L43.3227 195.947L63.2719 213.683L57.3614 385.113L11.2998 388.722C11.2998 388.722 -4.70907 235.85 25.9126 147.251Z" fill="#951A22"/>
<path d="M79.8076 380.509L129.836 368.356L131.996 387.33L81.7462 393.241L79.8076 380.509Z" fill="#951A22"/>
<path opacity="0.2" d="M50.1546 207.767C35.8894 200.087 24.8903 190.773 16.6883 182.103C-1.0431 270.828 11.2994 388.716 11.2994 388.716L57.361 385.108L60.9905 279.815L62.8816 288.786C55.6753 246.581 50.1546 207.767 50.1546 207.767Z" fill="#201829"/>
<path d="M8.31299 369.42L61.3123 380.419L60.5274 391.471L10.083 391.124L8.31299 369.42Z" fill="#951A22"/>
<path opacity="0.2" d="M74.4548 143.974L70.9464 137.859L24.1157 127.739L25.6434 147.557C39.2185 148.668 58.5092 148.91 74.4548 143.98V143.974Z" fill="#201829"/>
<path d="M35.4687 412.542L50.9876 416.419L52.6522 428.056L0.00585938 429.995C0.00585938 429.995 3.1402 424.453 35.4739 412.537L35.4687 412.542Z" fill="#951A22"/>
<path d="M0 430L52.6464 428.062L53.2048 431.939L0.553119 432.497L0 430Z" fill="#2B2238"/>
<path d="M30.9217 414.102C32.5863 415.73 33.6978 417.795 35.0148 419.686C35.1412 419.87 35.4467 419.696 35.315 419.512C33.977 417.595 32.855 415.503 31.164 413.854C31.006 413.696 30.7584 413.944 30.9164 414.102H30.9217Z" fill="#2B2238"/>
<path d="M27.619 415.081C29.2836 416.709 30.3951 418.774 31.712 420.67C31.8385 420.855 32.144 420.681 32.0123 420.497C30.6743 418.579 29.5522 416.488 27.8613 414.839C27.7033 414.681 27.4557 414.929 27.6137 415.087L27.619 415.081Z" fill="#2B2238"/>
<path d="M23.9945 416.319C25.6591 417.947 26.7706 420.012 28.0875 421.909C28.214 422.093 28.5195 421.919 28.3878 421.735C27.0498 419.817 25.9277 417.726 24.2368 416.077C24.0787 415.919 23.8312 416.167 23.9892 416.325L23.9945 416.319Z" fill="#2B2238"/>
<path d="M104.466 407.559L108.343 428.341C108.343 428.341 115.27 448.569 128.85 443.859C142.431 439.15 118.873 408.112 118.873 408.112C118.873 408.112 111.946 413.933 104.466 407.559Z" fill="#951A22"/>
<path d="M128.85 440.53C115.813 443.791 109.428 428.836 107.7 424.875L108.348 428.341C108.348 428.341 115.275 448.569 128.856 443.86C132.016 442.764 133.149 440.23 133.049 437.001C132.311 438.07 131.073 439.983 128.856 440.536L128.85 440.53Z" fill="#2B2238"/>
<path d="M112.473 413.612C114.433 412.353 116.687 411.726 118.831 410.862C119.037 410.778 118.947 410.44 118.736 410.525C116.566 411.399 114.28 412.031 112.299 413.311C112.11 413.433 112.283 413.733 112.473 413.612Z" fill="#2B2238"/>
<path d="M113.937 417.199C115.938 416.014 118.219 415.471 120.39 414.692C120.6 414.618 120.511 414.281 120.295 414.354C118.093 415.15 115.786 415.698 113.758 416.899C113.563 417.015 113.742 417.315 113.931 417.199H113.937Z" fill="#2B2238"/>
<path d="M116.003 420.639C117.915 419.285 120.159 418.558 122.271 417.594C122.477 417.499 122.298 417.199 122.097 417.294C119.985 418.258 117.741 418.985 115.829 420.338C115.65 420.465 115.823 420.77 116.003 420.639Z" fill="#2B2238"/>
<path d="M45.1764 83.0784C45.1764 83.0784 37.4169 81.4138 31.3221 83.6315C25.2272 85.8493 19.7645 105.756 17.5468 114.069C15.329 122.381 22.6407 141.741 22.6407 141.741C22.6407 141.741 66.6321 151.159 85.475 141.741L88.4039 116.329C88.4039 116.329 85.3855 94.715 84.3793 87.5086L76.7621 85.844C76.7621 85.844 47.3888 99.1452 45.1711 83.0731L45.1764 83.0784Z" fill="#951A22"/>
<path d="M50.217 45.8497C50.8123 45.739 48.8052 40.8821 45.26 39.7654C40.9773 38.4168 39.634 42.2728 39.5813 43.0788C39.5286 43.8848 47.3461 46.387 50.2117 45.8497H50.217Z" fill="url(#paint21_linear_292_1582)"/>
<path d="M41.5197 43.5323C41.4828 43.901 41.5302 44.254 41.6408 44.5858C41.6672 44.6596 45.9025 45.8185 45.9446 45.7816C46.4503 45.3602 46.7927 44.7491 46.8612 44.0485C46.9982 42.6104 45.913 41.3251 44.438 41.1828C42.963 41.0406 41.6566 42.0889 41.5197 43.5323Z" fill="url(#paint22_linear_292_1582)"/>
<path style="mix-blend-mode:multiply" d="M42.4574 43.6216C42.3678 44.554 43.0737 45.3863 44.0324 45.4812C44.9912 45.576 45.834 44.8912 45.9236 43.9588C46.0131 43.0264 45.3072 42.194 44.3485 42.0992C43.3898 42.0044 42.5469 42.6892 42.4574 43.6216Z" fill="url(#paint23_linear_292_1582)"/>
<path d="M50.1543 44.9016C50.1543 44.9016 48.9743 38.2537 45.0498 37.2949C41.1253 36.3309 39.8188 42.2098 39.8188 42.2098C39.8188 42.2098 41.0515 39.1755 44.8022 39.7392C48.5529 40.3081 50.149 44.9016 50.149 44.9016H50.1543Z" fill="url(#paint24_linear_292_1582)"/>
<path d="M50.2433 45.1704L49.5269 45.9184C49.5269 45.9184 50.3276 46.0765 50.4329 45.8552C50.5383 45.634 50.2433 45.1704 50.2433 45.1704Z" fill="#D66C7C"/>
<path d="M48.9843 45.9445C48.9843 45.9445 45.8131 46.1236 43.1687 45.3176C40.5242 44.5116 39.7183 43.3053 39.7183 43.3053C39.7183 43.3053 43.8113 45.3597 48.9843 45.9445Z" fill="#D66C7C"/>
<path d="M43.4314 41.9461C43.5895 42.12 42.7888 42.0778 42.2198 41.7828C41.7089 41.5194 41.4876 41.1454 41.5403 41.0928C41.5982 41.0348 42.8151 41.2719 43.4314 41.9461Z" fill="white"/>
<path d="M43.8696 42.1414C44.1013 42.0835 44.3542 42.231 44.3542 42.3521C44.3542 42.4733 44.0592 42.5997 43.9328 42.5365C43.8063 42.4733 43.7379 42.173 43.8696 42.1414Z" fill="white"/>
<g style="mix-blend-mode:multiply" opacity="0.6">
<path d="M50.2436 45.1703C50.2436 45.1703 48.1312 41.6567 45.06 40.7453C41.9889 39.834 40.3032 41.4934 40.3032 41.4934C40.3032 41.4934 40.9564 39.2124 45.0284 39.9078C49.1004 40.6084 50.2436 45.1703 50.2436 45.1703Z" fill="#C978B1"/>
</g>
<path d="M50.2434 45.1705C50.2434 45.1705 48.7632 40.6613 44.549 39.9396C40.7877 39.2916 39.6868 42.5946 39.6868 42.5946C39.6868 42.5946 39.5709 39.6024 42.2364 39.1547C44.7755 38.7333 48.9054 40.4822 50.2434 45.1705Z" fill="#401432"/>
<path d="M61.9761 46.8567C61.3335 46.5617 64.9525 41.6311 69.272 41.3519C74.4924 41.0147 74.9349 45.7505 74.7769 46.6829C74.6136 47.61 65.0736 48.2685 61.9761 46.8567Z" fill="url(#paint25_linear_292_1582)"/>
<path d="M69.1091 46.161C68.988 46.967 68.5297 47.6412 67.9028 48.0521C67.8132 48.1101 64.4313 47.5201 64.3576 47.42C63.9414 46.8616 63.7412 46.1399 63.8519 45.3919C64.0731 43.9116 65.4269 42.8897 66.8756 43.1004C68.3295 43.3111 69.3304 44.6807 69.1091 46.161Z" fill="url(#paint26_linear_292_1582)"/>
<path style="mix-blend-mode:multiply" d="M68.1875 46.0241C68.0453 46.9829 67.1656 47.6466 66.2226 47.5096C65.2797 47.3727 64.6317 46.4824 64.774 45.5237C64.9162 44.5649 65.7959 43.9012 66.7389 44.0382C67.6818 44.1751 68.3297 45.0654 68.1875 46.0241Z" fill="url(#paint27_linear_292_1582)"/>
<path d="M62.3081 45.7977C62.3081 45.7977 65.4899 38.6072 70.1993 38.6072C74.9087 38.6072 74.7506 45.6186 74.7506 45.6186C74.7506 45.6186 74.1975 41.8416 69.7989 41.436C65.395 41.0356 62.3134 45.7925 62.3134 45.7925L62.3081 45.7977Z" fill="url(#paint28_linear_292_1582)"/>
<path d="M62.1343 46.0823L62.7348 47.1306C62.7348 47.1306 61.7866 47.0832 61.7287 46.8092C61.6708 46.53 62.1291 46.0875 62.1291 46.0875L62.1343 46.0823Z" fill="#D66C7C"/>
<path d="M63.3457 47.3043C63.3457 47.3043 66.8804 48.3895 70.099 48.2156C73.3176 48.0418 74.5608 46.8987 74.5608 46.8987C74.5608 46.8987 69.3615 48.0892 63.3457 47.3043Z" fill="#D66C7C"/>
<path d="M65.2478 46.1188C65.0002 45.9924 64.6736 46.082 64.642 46.2242C64.6104 46.3612 64.9054 46.5877 65.0634 46.5508C65.2215 46.5139 65.3848 46.1926 65.2478 46.1188Z" fill="white"/>
<g style="mix-blend-mode:multiply" opacity="0.6">
<path d="M62.1342 46.082C62.1342 46.082 65.5003 42.6948 69.2299 42.5209C72.9595 42.3418 74.4029 44.686 74.4029 44.686C74.4029 44.686 74.2975 41.9204 69.4933 41.578C64.6891 41.2356 62.1289 46.082 62.1289 46.082H62.1342Z" fill="#C978B1"/>
</g>
<path d="M62.1348 46.082C62.1348 46.082 65.0637 41.3937 70.0312 41.7466C74.4667 42.0627 74.7933 46.1031 74.7933 46.1031C74.7933 46.1031 75.7573 42.7475 72.8653 41.5043C70.1102 40.319 64.953 41.1513 62.1348 46.082Z" fill="#401432"/>
<path d="M49.4751 52.2089C49.4751 52.2089 49.5225 52.4355 50.3496 52.5671C51.1766 52.6988 51.8667 53.5206 53.2732 53.6892C54.6797 53.8578 55.4751 53.2204 56.3075 53.2888C57.1398 53.3573 57.3083 53.1571 57.3083 53.1571C57.498 52.6304 57.4822 52.093 57.3821 51.6189V51.6031C57.203 50.7761 56.7816 50.1598 56.7816 50.1598C54.922 48.964 52.7991 48.7111 50.7025 49.4275C50.7025 49.4275 50.3443 49.7489 50.0124 50.2651V50.2704C49.6911 50.7708 49.3961 51.4556 49.4804 52.2142L49.4751 52.2089Z" fill="url(#paint29_linear_292_1582)"/>
<path d="M51.2979 52.9514C51.2979 52.9514 50.7237 52.3246 49.9072 52.4668L51.2979 52.9514Z" fill="#812852"/>
<path d="M56.7399 53.2941C56.7399 53.2941 55.9603 52.9569 55.0806 53.4995L56.7399 53.2941Z" fill="#812852"/>
<g style="mix-blend-mode:multiply" opacity="0.6">
<path d="M49.4755 52.2088C49.4755 52.2088 49.5229 52.4353 50.35 52.567C51.177 52.6987 51.8671 53.5205 53.2736 53.6891C54.6801 53.8576 55.4755 53.2202 56.3078 53.2887C57.1402 53.3572 57.3087 53.157 57.3087 53.157C57.4984 52.6302 57.4826 52.0929 57.3825 51.6188C57.3983 51.7558 57.4668 52.6355 57.1138 52.8041C56.724 52.9884 54.7012 52.6092 53.4158 52.4511C52.1358 52.2984 49.9549 52.035 49.7494 51.6662C49.5545 51.3133 49.9654 50.3545 50.0076 50.2703C49.6862 50.7707 49.3912 51.4555 49.4755 52.2141V52.2088Z" fill="#C978B1"/>
</g>
<path style="mix-blend-mode:multiply" opacity="0.6" d="M50.7026 49.4217C50.7026 49.4217 50.9871 50.8914 50.8133 51.8765C50.8133 51.8765 51.2716 50.9494 51.0082 49.3269L50.7026 49.427V49.4217Z" fill="url(#paint30_linear_292_1582)"/>
<path style="mix-blend-mode:multiply" opacity="0.6" d="M56.7086 50.1489C56.7086 50.1489 56.0817 51.508 56.0132 52.5036C56.0132 52.5036 55.792 51.4975 56.4294 49.9803L56.7033 50.1489H56.7086Z" fill="url(#paint31_linear_292_1582)"/>
<g style="mix-blend-mode:multiply" opacity="0.6">
<path d="M57.1189 52.7987C57.1189 52.7987 57.2875 53.0358 57.3138 53.1517C57.3401 53.2676 55.2646 54.8005 53.168 54.5477C51.0715 54.2948 49.4911 52.4247 49.4753 52.2087C49.4648 51.9875 49.8388 51.761 49.8388 51.761C49.8388 51.761 51.4455 52.214 53.4209 52.4511C55.3963 52.6881 57.1189 52.804 57.1189 52.804V52.7987Z" fill="#C978B1"/>
</g>
<path d="M51.8094 51.7663C52.1255 51.6346 51.6619 51.0762 51.5197 51.0815C51.3774 51.0815 51.2615 51.3923 51.3142 51.603C51.3669 51.8137 51.6777 51.819 51.8094 51.761V51.7663Z" fill="#FBC9B8"/>
<path d="M84.9375 57.6243C84.6899 58.1617 84.4476 58.6358 84.2052 59.0572L84.1894 59.0783C82.4511 62.0756 80.7548 62.4865 79.8119 63.8035C78.9954 64.9413 76.3352 66.9905 74.8812 63.893L74.876 63.8825C74.876 63.8825 78.3053 53.4206 79.538 51.6559C79.538 51.6559 81.3396 49.001 83.4836 49.0273C86.2386 49.0642 87.1025 52.8939 84.9375 57.6243Z" fill="url(#paint32_linear_292_1582)"/>
<path style="mix-blend-mode:multiply" opacity="0.6" d="M77.1099 57.4138C77.1099 57.4138 82.5832 52.3936 84.6376 52.4515C86.692 52.5095 84.548 57.3453 83.7684 58.9415C82.9888 60.5376 82.167 61.3963 82.167 61.3963C82.167 61.3963 83.1205 59.5209 83.584 57.9301C84.253 55.6491 83.9739 53.4946 83.1047 53.4946C82.2355 53.4946 80.4602 56.1495 80.3127 56.4656C80.1652 56.7817 80.6446 57.5139 80.1968 59.2997C79.7491 61.0907 78.4427 62.8396 77.9844 62.7132C77.5261 62.5815 78.0581 61.175 78.4427 59.4946C78.8272 57.8142 77.4418 57.8405 76.6147 58.7992L77.1099 57.4138Z" fill="url(#paint33_linear_292_1582)"/>
<path style="mix-blend-mode:multiply" opacity="0.6" d="M76.6147 58.7939C76.6147 58.7939 78.037 57.4401 78.5059 58.3093C78.9747 59.1785 78.0581 61.0854 78.4848 61.4384C78.9168 61.7913 79.9387 60.3111 80.1547 58.7992C80.3707 57.2821 80.0862 55.8124 79.1907 55.8703L77.1152 57.4085L76.62 58.7939H76.6147Z" fill="url(#paint34_linear_292_1582)"/>
<path style="mix-blend-mode:multiply" d="M84.1891 59.073C82.4507 62.0704 80.7545 62.4813 79.8115 63.7982C78.995 64.9361 76.3348 66.9852 74.8809 63.8878C74.9809 64.0195 75.9502 65.2574 77.2566 65.0941C78.6368 64.9203 79.3164 63.8246 80.0644 63.0291C80.8071 62.2284 82.3348 61.9176 84.1891 59.073Z" fill="url(#paint35_linear_292_1582)"/>
<path d="M59.7783 12.0734C59.7783 12.0734 61.4798 6.60018 59.5307 3.52905C57.6396 0.547481 53.5834 -0.695719 50.8494 0.38418C47.4991 1.71166 47.9258 5.57823 47.9258 5.57823C47.9258 5.57823 49.8169 4.27708 54.4631 4.86708C58.4298 5.37278 59.1409 8.96542 56.565 11.9786L59.7783 12.0734Z" fill="#3F313D"/>
<path d="M93.5767 29.7733C89.7101 37.9068 87.1289 49.2536 87.1289 49.2536C85.4379 50.6654 82.8146 54.1895 82.8146 54.1895C81.6662 50.7655 80.6179 30.9164 80.6179 30.9164C79.538 28.7514 72.0156 19.912 61.0744 18.574C50.1331 17.2359 44.5651 22.6618 44.5651 22.6618C42.0523 26.5178 39.055 38.1807 39.055 38.1807C37.8539 37.3853 37.2586 35.4625 37.2586 35.4625C36.3684 39.7031 33.9241 46.3405 33.9241 46.3405C32.7231 45.0815 31.5852 43.0271 31.5852 43.0271C32.7283 37.164 30.8267 19.2219 30.8267 19.2219C32.1383 16.0507 48.6213 9.18675 52.53 8.27542C54.1156 7.90668 55.5116 8.18587 56.6178 8.64417C58.235 9.31844 59.2148 10.3878 59.2148 10.3878C61.5643 8.4914 67.8487 9.44487 74.6389 11.4519C77.0516 12.1631 79.5327 13.0112 81.919 13.912C91.0323 17.3413 92.9972 23.2307 92.9972 23.2307C91.3958 23.2096 88.2351 21.2921 87.9928 21.1447C91.8225 23.7733 93.1078 27.7505 93.4608 29.2149C93.5451 29.5731 93.5819 29.7838 93.5819 29.7838L93.5767 29.7733Z" fill="#3F313D"/>
<g style="mix-blend-mode:multiply" opacity="0.9">
<path d="M93.5764 29.7733C92.7652 31.4801 92.0119 33.3291 91.327 35.1886C88.7458 42.1737 87.1339 49.2483 87.1339 49.2483C85.4429 50.6601 82.8195 54.1843 82.8195 54.1843C82.1031 52.0508 81.4288 43.5591 81.018 37.4432C80.7704 33.7347 80.6229 30.9111 80.6229 30.9111C79.543 28.7461 72.0206 19.9067 61.0793 18.5687C50.1381 17.2307 44.5701 22.6565 44.5701 22.6565C43.7483 23.9208 42.8738 26.0226 42.0679 28.2825C40.419 32.9076 39.0652 38.1754 39.0652 38.1754C37.8642 37.38 37.2689 35.4572 37.2689 35.4572C36.3786 39.6978 33.9344 46.3352 33.9344 46.3352C32.7333 45.0762 31.5955 43.0218 31.5955 43.0218C32.2065 39.8875 31.9484 33.3132 31.5744 27.8611C31.2478 23.1095 30.8369 19.2114 30.8369 19.2114C34.9563 18.0524 37.0793 18.8637 37.0793 18.8637C37.0793 18.8637 34.5138 20.9181 33.5604 22.2561C33.5604 22.2561 37.5639 23.236 39.7184 23.0094C39.7184 23.0094 41.7781 18.9269 44.0064 16.6143C46.851 13.6644 49.3058 13.0533 56.686 14.3544L59.2145 10.3773C61.564 8.48085 67.8485 9.43432 74.6387 11.4414C79.5799 15.6293 83.7572 18.6951 85.6642 35.9208C85.6642 35.9208 89.1409 31.8119 89.8363 30.0472C89.8363 30.0472 89.5149 27.5081 89.5097 26.0279C89.5097 26.0279 92.0645 26.9919 93.4658 29.1991C93.55 29.5573 93.5869 29.768 93.5869 29.768L93.5764 29.7733Z" fill="#3F313D"/>
</g>
<path d="M83.0203 16.0561C81.9299 12.4055 80.5445 8.97087 79.1432 7.82776C75.9457 5.21493 67.77 3.93486 64.5936 4.93574C62.4285 5.61529 59.0887 10.4933 57.1818 13.5275L57.1344 13.6065C56.4074 14.7655 55.9017 15.6399 55.7542 15.8875L55.7279 15.9296L55.7121 15.9612L55.7384 15.9823C55.7226 15.9718 55.7068 15.9612 55.691 15.956C55.691 15.956 55.691 15.956 55.6857 15.956C54.0106 14.9656 51.8402 14.1175 49.5645 14.3967C44.6813 15.0025 43.87 19.3432 43.5751 20.2334C43.2801 21.1237 44.4916 31.6329 46.7094 33.9455C46.7094 33.9455 46.7937 33.7032 46.9412 33.287C47.6629 31.2379 49.8806 24.9955 50.7498 23.1518C52.3249 19.8225 58.8727 18.4002 58.8727 18.4002C66.4531 18.5951 69.8614 27.0289 70.5146 29.2466C70.641 29.6839 70.5989 30.3213 70.4356 31.064C69.8087 34.0456 67.375 38.7234 67.3012 38.8709C67.5751 38.8446 76.4145 38.0175 79.0484 36.611C81.7244 35.1834 84.8693 28.625 85.1696 26.8076C85.3382 25.7857 84.4268 20.7497 83.0256 16.0666L83.0203 16.0561Z" fill="#3F313D"/>
<g style="mix-blend-mode:multiply" opacity="0.9">
<path d="M66.3579 6.44727C66.3579 6.44727 75.6134 10.219 77.415 20.4333C79.2166 30.6475 70.3035 36.8899 67.2903 38.86C67.2903 38.86 73.5379 31.3113 74.6494 24.1207C75.5502 18.284 72.3843 10.514 66.3579 6.44727Z" fill="#3F313D"/>
</g>
<g style="mix-blend-mode:multiply" opacity="0.9">
<path d="M70.4299 31.0531C70.588 30.3104 70.6354 29.673 70.5089 29.2357C70.372 28.7669 70.1139 28.0241 69.7188 27.1444C68.2807 23.9258 65.0462 18.8529 59.3834 18.4157C59.2148 18.4051 59.0409 18.3946 58.8671 18.3893C58.8671 18.3893 52.3192 19.8064 50.7442 23.1409C49.8697 24.9846 47.6572 31.227 46.9355 33.2761C46.9355 33.2761 47.7363 22.4929 49.522 18.1312C51.213 13.996 55.2692 15.7502 55.6854 15.9451H55.6906C55.7117 15.9503 55.717 15.9556 55.717 15.9556L55.7328 15.924L57.134 13.6009L57.1814 13.5219C62.0383 9.93979 68.1964 14.3068 70.6406 19.7379C73.0849 25.1743 70.4299 31.0478 70.4299 31.0478V31.0531Z" fill="#3F313D"/>
</g>
<g style="mix-blend-mode:multiply" opacity="0.9">
<path d="M85.1638 26.7969C84.8688 28.6143 81.7186 35.1675 79.0426 36.6003C76.4087 38.0068 67.5693 38.8339 67.2954 38.8602C67.5219 38.7338 74.802 34.6196 78.5474 29.3202C81.3762 25.3114 82.9829 16.2666 83.0198 16.0559C84.421 20.739 85.3323 25.775 85.1638 26.7969Z" fill="#3F313D"/>
</g>
<g style="mix-blend-mode:multiply" opacity="0.9">
<path d="M69.7192 27.1446C68.2811 23.9259 65.0467 18.853 59.3838 18.4158C59.3838 18.4158 56.7183 14.486 61.0431 14.8969C65.368 15.3026 69.3926 21.8188 69.7192 27.1446Z" fill="#3F313D"/>
</g>
<g style="mix-blend-mode:multiply" opacity="0.9">
<path d="M42.0633 28.2878C40.4145 32.9129 39.0606 38.1807 39.0606 38.1807C37.8596 37.3852 37.2643 35.4625 37.2643 35.4625C36.3741 39.7031 33.9298 46.3405 33.9298 46.3405C32.7287 45.0815 31.5909 43.0271 31.5909 43.0271C32.202 39.8927 31.9438 33.3185 31.5698 27.8663C31.5698 27.8663 36.0158 32.8075 37.4645 33.0815C38.8868 33.3448 41.9527 28.4721 42.0685 28.2878H42.0633Z" fill="#3F313D"/>
</g>
<g style="mix-blend-mode:multiply" opacity="0.9">
<path d="M91.3223 35.1941C88.741 42.1792 87.1291 49.2539 87.1291 49.2539C85.4381 50.6656 82.8148 54.1898 82.8148 54.1898C82.0984 52.0563 81.4241 43.5646 81.0132 37.4487C82.6304 42.037 85.0641 43.3539 86.4759 43.1537C87.8666 42.9588 91.2169 35.4259 91.317 35.1888L91.3223 35.1941Z" fill="#3F313D"/>
</g>
<g style="mix-blend-mode:multiply" opacity="0.6">
<path d="M48.6909 62.7075C48.6909 62.7075 50.5768 65.3941 53.0685 65.6101C55.5601 65.8261 57.7094 63.4819 57.7094 63.4819C57.7094 63.4819 53.021 64.7462 48.6909 62.7075Z" fill="#CE78B1"/>
</g>
<path d="M53.4904 60.6686C53.4904 60.6686 49.7924 60.1892 46.6738 61.6853C46.6738 61.6853 49.7133 63.6027 53.2164 63.903C56.7195 64.2033 60.0382 62.8336 60.0382 62.8336C57.22 60.8266 53.4956 60.6686 53.4956 60.6686H53.4904Z" fill="#EF7172"/>
<path d="M54.7486 59.067C54.1639 59.0143 53.6055 59.2883 53.6055 59.2883C53.6055 59.2883 53.105 58.9248 52.5203 58.8721C51.9356 58.8194 48.7749 59.5674 47.3315 61.4164C47.3315 61.4164 50.8346 60.4366 53.4843 60.6631C56.134 60.8897 59.4211 62.4542 59.4211 62.4542C58.3149 60.384 55.3281 59.1091 54.7433 59.0617L54.7486 59.067Z" fill="#DE4E6C"/>
<path d="M45.0197 59.6941C45.1356 59.8574 45.262 60.0207 45.3832 60.184C45.5044 60.3473 45.6308 60.5053 45.7625 60.6581C45.8942 60.8109 46.0206 60.9689 46.1628 61.1111C46.2998 61.2534 46.4473 61.3903 46.5948 61.4746C46.6317 61.4957 46.6633 61.5062 46.6844 61.5115C46.6896 61.5115 46.6844 61.5115 46.7002 61.5115H46.737H46.8055C46.8951 61.5115 46.9899 61.5009 47.0794 61.4799C47.2585 61.4483 47.4376 61.3798 47.622 61.3008C47.9855 61.1427 48.3648 60.9636 48.7599 60.8214C49.55 60.5264 50.3929 60.3947 51.2252 60.342C51.6413 60.3157 52.0575 60.3157 52.4737 60.3262C52.8898 60.3368 53.3007 60.3631 53.7116 60.4052C54.1225 60.4421 54.5334 60.5001 54.9443 60.5685C55.3551 60.637 55.766 60.716 56.1664 60.8319C56.9724 61.0532 57.7678 61.3693 58.4737 61.8276C58.8266 62.0488 59.1585 62.3017 59.4904 62.4755C59.6589 62.565 59.8275 62.623 60.0119 62.6493C60.0646 62.6599 60.0909 62.6599 60.1278 62.6599C60.1646 62.6599 60.2068 62.6546 60.2489 62.6441C60.3332 62.6283 60.4228 62.5966 60.5123 62.5598C60.8653 62.4123 61.2077 62.1858 61.5343 61.954C61.8609 61.7169 62.1822 61.4641 62.4877 61.2007L62.5615 61.2744C62.2823 61.58 61.9873 61.8644 61.6765 62.1383C61.3604 62.407 61.0338 62.6651 60.6493 62.8653C60.5492 62.9127 60.4491 62.9549 60.3332 62.9865C60.2753 63.0023 60.2173 63.0128 60.1541 63.0233C60.0909 63.0286 60.0171 63.0233 59.9645 63.0233C59.738 63.0023 59.5167 62.9391 59.3165 62.8495C59.1164 62.7599 58.932 62.6493 58.7529 62.544C58.579 62.4386 58.4052 62.3333 58.2314 62.2332C56.8565 61.4272 55.2551 61.1322 53.6536 60.9794C52.8529 60.9004 52.047 60.8635 51.2463 60.9004C50.8459 60.9162 50.4508 60.9478 50.0557 61.011C49.6659 61.0743 49.2814 61.1638 48.9021 61.2797C48.5228 61.3956 48.1593 61.5536 47.7642 61.7011C47.5641 61.7696 47.3534 61.8381 47.1321 61.8644C47.0215 61.8802 46.9056 61.8855 46.795 61.8802H46.7107L46.6685 61.8697C46.658 61.8697 46.6264 61.8697 46.6106 61.8592C46.5316 61.8381 46.4736 61.8065 46.421 61.7749C46.2208 61.6379 46.0838 61.4746 45.9469 61.3166C45.8152 61.1533 45.6887 60.9847 45.5728 60.8161C45.3411 60.4737 45.1304 60.1208 44.9302 59.7626L45.0197 59.7046V59.6941Z" fill="#AC334D"/>
<path d="M46.3946 58.9198C46.3946 58.9198 44.9617 59.3728 44.0293 60.753C44.0293 60.753 43.7133 59.7468 44.5192 59.0673C45.3252 58.3877 46.3893 58.9145 46.3893 58.9145L46.3946 58.9198Z" fill="#DC6B7D"/>
<path d="M60.8911 60.1157C60.8911 60.1157 62.324 60.4265 63.0983 62.186C63.0983 62.186 63.3933 61.2694 62.9192 60.5477C62.4451 59.8313 60.8911 60.1104 60.8911 60.1104V60.1157Z" fill="#DC6B7D"/>
<g style="mix-blend-mode:soft-light" opacity="0.5">
<path d="M58.0573 63.4398C58.0573 63.4398 58.0889 62.6707 57.3462 62.4547C56.988 62.3546 55.5499 62.8234 55.0705 62.9551C54.47 63.1184 54.8282 63.9349 54.8282 63.9349C54.8282 63.9349 56.1135 63.9613 58.0573 63.4398Z" fill="#FDF7BA"/>
</g>
<g style="mix-blend-mode:multiply" opacity="0.9">
<path d="M51.7876 36.3634C51.7876 36.3634 50.5286 35.6048 47.3099 35.0622C46.3565 34.8989 45.2292 34.7567 43.9122 34.6619C38.1545 34.2299 33.9824 34.7304 33.9824 34.7304C34.0298 34.6355 35.9368 32.3598 38.1071 31.5223C38.0913 31.5433 37.7805 31.9384 37.7542 32.3967C37.7542 32.3967 40.3038 30.9428 43.6067 30.6531C44.223 30.6004 44.8604 30.5846 45.5189 30.632C49.6857 30.9165 51.2292 34.2194 51.2292 34.2194C51.2292 34.2194 51.2292 33.4187 50.8604 32.8866C50.8604 32.8866 52.0878 33.9402 51.7981 36.3634H51.7876Z" fill="#010101"/>
<g style="mix-blend-mode:multiply" opacity="0.6">
<path d="M47.3099 35.0575C46.3565 34.8942 45.2292 34.7519 43.9122 34.6571C38.1545 34.2252 33.9824 34.7256 33.9824 34.7256C34.0298 34.6308 35.9368 32.3551 38.1071 31.5175C38.0913 31.5386 37.7805 31.9337 37.7542 32.392C37.7542 32.392 40.3038 30.938 43.6067 30.6483C42.4004 31.0539 39.7717 31.9916 38.0913 33.7352C38.0913 33.7352 41.3257 33.0715 47.3205 35.0575H47.3099Z" fill="#010101"/>
</g>
</g>
<g style="mix-blend-mode:multiply" opacity="0.9">
<path d="M64.8046 38.1071C64.8046 38.1071 66.2216 37.7068 69.4666 38.0281C70.4306 38.1229 71.5526 38.2862 72.8485 38.5338C78.5167 39.6348 82.4096 41.2151 82.4096 41.2151C82.3885 41.1098 81.1453 38.4126 79.2752 37.0325C79.2858 37.0588 79.4807 37.5171 79.3858 37.9701C79.3858 37.9701 77.3103 35.8946 74.2023 34.7463C73.6229 34.5303 73.0065 34.3512 72.3639 34.2195C68.2655 33.3977 65.9108 36.1738 65.9108 36.1738C65.9108 36.1738 66.1163 35.3995 66.6167 34.9833C66.6167 34.9833 65.1523 35.6787 64.7993 38.0913L64.8046 38.1071Z" fill="#010101"/>
<g style="mix-blend-mode:multiply" opacity="0.6">
<path d="M69.4667 38.0282C70.4307 38.123 71.5527 38.281 72.8486 38.5339C78.5168 39.6349 82.4097 41.2152 82.4097 41.2152C82.3886 41.1098 81.1454 38.4127 79.2753 37.0326C79.2859 37.0589 79.4808 37.5172 79.386 37.9702C79.386 37.9702 77.3104 35.8947 74.2024 34.7463C75.2613 35.4575 77.5475 37.0536 78.7117 39.1766C78.7117 39.1766 75.767 37.6858 69.4614 38.0229L69.4667 38.0282Z" fill="#010101"/>
</g>
</g>
<defs>
<linearGradient id="paint0_linear_292_1582" x1="86.315" y1="138.995" x2="11.3189" y2="150.766" gradientUnits="userSpaceOnUse">
<stop stop-color="#F8A795"/>
<stop offset="0.43" stop-color="#F8A997"/>
<stop offset="0.52" stop-color="#F7A290"/>
<stop offset="0.76" stop-color="#F69684"/>
<stop offset="1" stop-color="#F69280"/>
</linearGradient>
<linearGradient id="paint1_linear_292_1582" x1="85.33" y1="184.186" x2="70.3578" y2="186.536" gradientUnits="userSpaceOnUse">
<stop stop-color="#F8A795"/>
<stop offset="0.43" stop-color="#F8A997"/>
<stop offset="0.52" stop-color="#F7A290"/>
<stop offset="0.76" stop-color="#F69684"/>
<stop offset="1" stop-color="#F69280"/>
</linearGradient>
<linearGradient id="paint2_linear_292_1582" x1="87.0639" y1="174.684" x2="72.9556" y2="176.899" gradientUnits="userSpaceOnUse">
<stop stop-color="#F8A795"/>
<stop offset="0.43" stop-color="#F8A997"/>
<stop offset="0.52" stop-color="#F7A290"/>
<stop offset="0.76" stop-color="#F69684"/>
<stop offset="1" stop-color="#F69280"/>
</linearGradient>
<linearGradient id="paint3_linear_292_1582" x1="88.003" y1="181.005" x2="81.1805" y2="182.076" gradientUnits="userSpaceOnUse">
<stop stop-color="#F8A795"/>
<stop offset="0.43" stop-color="#F8A997"/>
<stop offset="0.52" stop-color="#F7A290"/>
<stop offset="0.76" stop-color="#F69684"/>
<stop offset="1" stop-color="#F69280"/>
</linearGradient>
<linearGradient id="paint4_linear_292_1582" x1="91.6258" y1="191.106" x2="79.2037" y2="193.056" gradientUnits="userSpaceOnUse">
<stop stop-color="#F8A795"/>
<stop offset="0.43" stop-color="#F8A997"/>
<stop offset="0.52" stop-color="#F7A290"/>
<stop offset="0.76" stop-color="#F69684"/>
<stop offset="1" stop-color="#F69280"/>
</linearGradient>
<linearGradient id="paint5_linear_292_1582" x1="92.9447" y1="178.656" x2="80.5174" y2="180.607" gradientUnits="userSpaceOnUse">
<stop stop-color="#F8A795"/>
<stop offset="0.43" stop-color="#F8A997"/>
<stop offset="0.52" stop-color="#F7A290"/>
<stop offset="0.76" stop-color="#F69684"/>
<stop offset="1" stop-color="#F69280"/>
</linearGradient>
<linearGradient id="paint6_linear_292_1582" x1="91.8556" y1="186.697" x2="78.9546" y2="188.722" gradientUnits="userSpaceOnUse">
<stop stop-color="#F8A795"/>
<stop offset="0.43" stop-color="#F8A997"/>
<stop offset="0.52" stop-color="#F7A290"/>
<stop offset="0.76" stop-color="#F69684"/>
<stop offset="1" stop-color="#F69280"/>
</linearGradient>
<linearGradient id="paint7_linear_292_1582" x1="92.187" y1="182.662" x2="79.2861" y2="184.687" gradientUnits="userSpaceOnUse">
<stop stop-color="#F8A795"/>
<stop offset="0.43" stop-color="#F8A997"/>
<stop offset="0.52" stop-color="#F7A290"/>
<stop offset="0.76" stop-color="#F69684"/>
<stop offset="1" stop-color="#F69280"/>
</linearGradient>
<linearGradient id="paint8_linear_292_1582" x1="41.0583" y1="91.2559" x2="21.6731" y2="94.2985" gradientUnits="userSpaceOnUse">
<stop stop-color="#F8A795"/>
<stop offset="0.43" stop-color="#F8A997"/>
<stop offset="0.52" stop-color="#F7A290"/>
<stop offset="0.76" stop-color="#F69684"/>
<stop offset="1" stop-color="#F69280"/>
</linearGradient>
<linearGradient id="paint9_linear_292_1582" x1="38.4812" y1="151.501" x2="114.401" y2="151.501" gradientUnits="userSpaceOnUse">
<stop stop-color="#F8A795"/>
<stop offset="0.43" stop-color="#F8A997"/>
<stop offset="0.52" stop-color="#F7A290"/>
<stop offset="0.76" stop-color="#F69684"/>
<stop offset="1" stop-color="#F69280"/>
</linearGradient>
<linearGradient id="paint10_linear_292_1582" x1="46.4673" y1="195.987" x2="61.6227" y2="195.987" gradientUnits="userSpaceOnUse">
<stop stop-color="#F8A795"/>
<stop offset="0.43" stop-color="#F8A997"/>
<stop offset="0.52" stop-color="#F7A290"/>
<stop offset="0.76" stop-color="#F69684"/>
<stop offset="1" stop-color="#F69280"/>
</linearGradient>
<linearGradient id="paint11_linear_292_1582" x1="43.2809" y1="186.869" x2="57.5566" y2="186.869" gradientUnits="userSpaceOnUse">
<stop stop-color="#F8A795"/>
<stop offset="0.43" stop-color="#F8A997"/>
<stop offset="0.52" stop-color="#F7A290"/>
<stop offset="0.76" stop-color="#F69684"/>
<stop offset="1" stop-color="#F69280"/>
</linearGradient>
<linearGradient id="paint12_linear_292_1582" x1="43.3329" y1="193.264" x2="50.239" y2="193.264" gradientUnits="userSpaceOnUse">
<stop stop-color="#F8A795"/>
<stop offset="0.43" stop-color="#F8A997"/>
<stop offset="0.52" stop-color="#F7A290"/>
<stop offset="0.76" stop-color="#F69684"/>
<stop offset="1" stop-color="#F69280"/>
</linearGradient>
<linearGradient id="paint13_linear_292_1582" x1="41.3159" y1="203.799" x2="53.8954" y2="203.799" gradientUnits="userSpaceOnUse">
<stop stop-color="#F8A795"/>
<stop offset="0.43" stop-color="#F8A997"/>
<stop offset="0.52" stop-color="#F7A290"/>
<stop offset="0.76" stop-color="#F69684"/>
<stop offset="1" stop-color="#F69280"/>
</linearGradient>
<linearGradient id="paint14_linear_292_1582" x1="38.0864" y1="191.71" x2="50.6606" y2="191.71" gradientUnits="userSpaceOnUse">
<stop stop-color="#F8A795"/>
<stop offset="0.43" stop-color="#F8A997"/>
<stop offset="0.52" stop-color="#F7A290"/>
<stop offset="0.76" stop-color="#F69684"/>
<stop offset="1" stop-color="#F69280"/>
</linearGradient>
<linearGradient id="paint15_linear_292_1582" x1="40.4093" y1="199.485" x2="53.4682" y2="199.485" gradientUnits="userSpaceOnUse">
<stop stop-color="#F8A795"/>
<stop offset="0.43" stop-color="#F8A997"/>
<stop offset="0.52" stop-color="#F7A290"/>
<stop offset="0.76" stop-color="#F69684"/>
<stop offset="1" stop-color="#F69280"/>
</linearGradient>
<linearGradient id="paint16_linear_292_1582" x1="39.4557" y1="195.55" x2="52.5145" y2="195.55" gradientUnits="userSpaceOnUse">
<stop stop-color="#F8A795"/>
<stop offset="0.43" stop-color="#F8A997"/>
<stop offset="0.52" stop-color="#F7A290"/>
<stop offset="0.76" stop-color="#F69684"/>
<stop offset="1" stop-color="#F69280"/>
</linearGradient>
<linearGradient id="paint17_linear_292_1582" x1="75.7933" y1="97.3216" x2="95.4158" y2="97.3216" gradientUnits="userSpaceOnUse">
<stop stop-color="#F8A795"/>
<stop offset="0.43" stop-color="#F8A997"/>
<stop offset="0.52" stop-color="#F7A290"/>
<stop offset="0.76" stop-color="#F69684"/>
<stop offset="1" stop-color="#F69280"/>
</linearGradient>
<linearGradient id="paint18_linear_292_1582" x1="24.1157" y1="152.25" x2="88.6462" y2="152.25" gradientUnits="userSpaceOnUse">
<stop stop-color="#F8A795"/>
<stop offset="0.43" stop-color="#F8A997"/>
<stop offset="0.52" stop-color="#F7A290"/>
<stop offset="0.76" stop-color="#F69684"/>
<stop offset="1" stop-color="#F69280"/>
</linearGradient>
<linearGradient id="paint19_linear_292_1582" x1="35.5264" y1="81.8246" x2="81.8356" y2="81.8246" gradientUnits="userSpaceOnUse">
<stop stop-color="#F9AF9C"/>
<stop offset="0.2" stop-color="#F69B8E"/>
<stop offset="0.47" stop-color="#F48781"/>
<stop offset="0.73" stop-color="#F37B79"/>
<stop offset="1" stop-color="#F37777"/>
</linearGradient>
<linearGradient id="paint20_linear_292_1582" x1="34.0879" y1="44.3602" x2="84.8221" y2="44.3602" gradientUnits="userSpaceOnUse">
<stop stop-color="#F8A795"/>
<stop offset="0.43" stop-color="#F8A997"/>
<stop offset="0.52" stop-color="#F7A290"/>
<stop offset="0.76" stop-color="#F69684"/>
<stop offset="1" stop-color="#F69280"/>
</linearGradient>
<linearGradient id="paint21_linear_292_1582" x1="44.9551" y1="45.8496" x2="45.0198" y2="39.4654" gradientUnits="userSpaceOnUse">
<stop stop-color="#E6DBEC"/>
<stop offset="1" stop-color="#B8C1E2"/>
</linearGradient>
<linearGradient id="paint22_linear_292_1582" x1="43.992" y1="45.8074" x2="44.4145" y2="41.3875" gradientUnits="userSpaceOnUse">
<stop stop-color="#57345B"/>
<stop offset="1" stop-color="#301138"/>
</linearGradient>
<linearGradient id="paint23_linear_292_1582" x1="44.0036" y1="45.6864" x2="44.327" y2="42.3035" gradientUnits="userSpaceOnUse">
<stop stop-color="#A093B6"/>
<stop offset="0.99" stop-color="#734B61"/>
</linearGradient>
<linearGradient id="paint24_linear_292_1582" x1="50.497" y1="41.3084" x2="40.0039" y2="40.3054" gradientUnits="userSpaceOnUse">
<stop stop-color="#F7A190"/>
<stop offset="0.43" stop-color="#F3A592"/>
<stop offset="0.51" stop-color="#F39F8D"/>
<stop offset="0.76" stop-color="#F49383"/>
<stop offset="1" stop-color="#F58F80"/>
</linearGradient>
<linearGradient id="paint25_linear_292_1582" x1="67.9491" y1="48.3516" x2="69.6514" y2="41.1109" gradientUnits="userSpaceOnUse">
<stop stop-color="#E6DBEC"/>
<stop offset="1" stop-color="#B8C1E2"/>
</linearGradient>
<linearGradient id="paint26_linear_292_1582" x1="66.1834" y1="47.8214" x2="66.8765" y2="43.0994" gradientUnits="userSpaceOnUse">
<stop stop-color="#57345B"/>
<stop offset="1" stop-color="#301138"/>
</linearGradient>
<linearGradient id="paint27_linear_292_1582" x1="66.2295" y1="47.5088" x2="66.739" y2="44.0376" gradientUnits="userSpaceOnUse">
<stop stop-color="#A093B6"/>
<stop offset="0.99" stop-color="#734B61"/>
</linearGradient>
<linearGradient id="paint28_linear_292_1582" x1="62.9198" y1="41.6883" x2="75.074" y2="43.4722" gradientUnits="userSpaceOnUse">
<stop stop-color="#F7A190"/>
<stop offset="0.43" stop-color="#F3A592"/>
<stop offset="0.51" stop-color="#F39F8D"/>
<stop offset="0.76" stop-color="#F49383"/>
<stop offset="1" stop-color="#F58F80"/>
</linearGradient>
<linearGradient id="paint29_linear_292_1582" x1="53.2652" y1="53.6451" x2="53.8226" y2="49.0325" gradientUnits="userSpaceOnUse">
<stop stop-color="#F37B7F"/>
<stop offset="0.4" stop-color="#F3817F"/>
<stop offset="1" stop-color="#F48680"/>
</linearGradient>
<linearGradient id="paint30_linear_292_1582" x1="50.6685" y1="51.8185" x2="50.9749" y2="49.2821" gradientUnits="userSpaceOnUse">
<stop stop-color="#FBE3D4"/>
<stop offset="0.99" stop-color="#AE7CB7"/>
</linearGradient>
<linearGradient id="paint31_linear_292_1582" x1="56.1469" y1="52.4725" x2="56.4534" y2="49.9361" gradientUnits="userSpaceOnUse">
<stop stop-color="#FBE3D4"/>
<stop offset="0.99" stop-color="#AE7CB7"/>
</linearGradient>
<linearGradient id="paint32_linear_292_1582" x1="77.6576" y1="71.1353" x2="81.8754" y2="52.7489" gradientUnits="userSpaceOnUse">
<stop stop-color="#F7A190"/>
<stop offset="0.43" stop-color="#F3A592"/>
<stop offset="0.51" stop-color="#F39F8D"/>
<stop offset="0.76" stop-color="#F49383"/>
<stop offset="1" stop-color="#F58F80"/>
</linearGradient>
<linearGradient id="paint33_linear_292_1582" x1="78.7609" y1="66.3514" x2="81.6631" y2="53.7001" gradientUnits="userSpaceOnUse">
<stop stop-color="#F7A190"/>
<stop offset="0.43" stop-color="#F3A592"/>
<stop offset="0.51" stop-color="#F39F8D"/>
<stop offset="0.76" stop-color="#F49383"/>
<stop offset="1" stop-color="#F58F80"/>
</linearGradient>
<linearGradient id="paint34_linear_292_1582" x1="77.8039" y1="61.2406" x2="79.0653" y2="55.7416" gradientUnits="userSpaceOnUse">
<stop stop-color="#F7A190"/>
<stop offset="0.43" stop-color="#F3A592"/>
<stop offset="0.51" stop-color="#F39F8D"/>
<stop offset="0.76" stop-color="#F49383"/>
<stop offset="1" stop-color="#F58F80"/>
</linearGradient>
<linearGradient id="paint35_linear_292_1582" x1="83.2854" y1="62.8908" x2="75.4913" y2="61.1029" gradientUnits="userSpaceOnUse">
<stop stop-color="#F7A190"/>
<stop offset="0.43" stop-color="#F3A592"/>
<stop offset="0.51" stop-color="#F39F8D"/>
<stop offset="0.76" stop-color="#F49383"/>
<stop offset="1" stop-color="#F58F80"/>
</linearGradient>
</defs>
</svg>
