<svg width="180" height="478" viewBox="0 0 180 478" fill="none" xmlns="http://www.w3.org/2000/svg">
<path d="M61.7247 187.947L100.417 196.538C105.5 195.385 114.824 196.417 117.521 197.745C122.109 199.999 117.611 202.517 117.611 202.517C120.924 205.257 116.905 206.431 116.905 206.431C120.845 208.333 116.389 210.619 116.389 210.619C120.497 214.212 114.345 216.672 105.99 214.217C102.882 213.306 101.223 211.499 100.359 209.592C89.1962 209.371 53.8651 207.516 45.9581 202.628C33.1943 194.742 48.5499 114.434 48.5499 114.434L66.8713 120.603L61.7247 187.936V187.947Z" fill="url(#paint0_linear_1_2)"/>
<path d="M109.862 197.186C110.331 197.718 110.832 198.245 111.332 198.777C111.843 204.277 112.48 209.771 111.627 215.197C109.962 215.128 108.045 214.828 105.996 214.222C102.888 213.311 101.228 211.504 100.364 209.597C99.6111 209.581 98.684 209.555 97.6831 209.518C99.9746 205.162 102.113 200.663 104.147 196.085C105.78 196.006 107.534 196.054 109.241 196.175C109.378 196.517 109.578 196.854 109.868 197.186H109.862Z" fill="url(#paint1_linear_1_2)"/>
<path d="M113.554 198.635C113.554 198.635 115.793 194.232 111.163 191.877C106.532 189.522 99.5999 194.6 100.306 200.047C101.012 205.489 113.554 198.635 113.554 198.635Z" fill="url(#paint2_linear_1_2)"/>
<path d="M113.734 194.595C113.734 194.595 116.294 203.118 111.664 209.018C108.629 212.885 107.755 202.107 109.124 198.914C110.494 195.727 113.734 194.595 113.734 194.595Z" fill="url(#paint3_linear_1_2)"/>
<path d="M116.394 210.625C116.394 210.625 119.097 211.015 118.686 213.322C118.27 215.624 106.433 216.793 106.054 213.027C105.674 209.26 116.394 210.625 116.394 210.625Z" fill="url(#paint4_linear_1_2)"/>
<path d="M117.71 198.182C117.71 198.182 120.413 198.572 120.002 200.879C119.586 203.181 107.749 204.351 107.37 200.584C106.99 196.818 117.71 198.182 117.71 198.182Z" fill="url(#paint5_linear_1_2)"/>
<path d="M116.531 206.294C116.531 206.294 119.349 206.705 118.933 209.007C118.517 211.309 106.216 212.394 105.795 208.623C105.373 204.846 116.536 206.294 116.536 206.294H116.531Z" fill="url(#paint6_linear_1_2)"/>
<path d="M116.862 202.254C116.862 202.254 119.68 202.665 119.264 204.972C118.848 207.274 106.548 208.36 106.126 204.588C105.705 200.811 116.867 202.26 116.867 202.26L116.862 202.254Z" fill="url(#paint7_linear_1_2)"/>
<path d="M66.7917 121.662C69.552 117.485 68.3246 108.256 65.0481 105.685C61.2236 102.687 55.2552 104.162 52.5581 106.544C50.0401 108.761 48.7811 113.265 48.5493 114.445" fill="url(#paint8_linear_1_2)"/>
<path d="M120.793 192.355L83.8974 206.842C78.6928 206.489 69.6427 208.959 67.1827 210.682C63 213.621 67.8306 215.412 67.8306 215.412C64.9807 218.631 69.137 219.173 69.137 219.173C65.5391 221.66 70.2959 223.23 70.2959 223.23C66.7929 227.418 73.2512 228.893 81.1265 225.173C84.0554 223.788 85.4145 221.749 85.9729 219.732C96.9668 217.783 131.582 210.476 138.635 204.424C150.019 194.652 122.405 117.695 122.405 117.695L105.264 126.629L120.783 192.35L120.793 192.355Z" fill="url(#paint9_linear_1_2)"/>
<path d="M74.6736 208.943C74.2943 209.539 73.8782 210.139 73.4673 210.74C73.815 216.25 74.0362 221.781 75.7219 227.007C77.3602 226.68 79.2039 226.085 81.1372 225.174C84.0661 223.788 85.4252 221.749 85.9836 219.732C86.7263 219.6 87.6377 219.426 88.6227 219.242C85.6833 215.291 82.8756 211.182 80.1574 206.973C78.5296 207.147 76.8018 207.468 75.1372 207.853C75.0582 208.211 74.9107 208.58 74.6736 208.949V208.943Z" fill="url(#paint10_linear_1_2)"/>
<path d="M71.2501 210.945C71.2501 210.945 68.3581 206.942 72.5671 203.897C76.7761 200.857 84.4091 204.798 84.5566 210.282C84.7041 215.765 71.2501 210.94 71.2501 210.94V210.945Z" fill="url(#paint11_linear_1_2)"/>
<path d="M70.4436 206.984C70.4436 206.984 69.232 215.797 74.7263 220.912C78.3242 224.262 77.513 213.474 75.6692 210.54C73.8255 207.6 70.4436 206.984 70.4436 206.984Z" fill="url(#paint12_linear_1_2)"/>
<path d="M70.3018 223.235C70.3018 223.235 67.689 224.041 68.4581 226.253C69.2272 228.466 81.1008 227.786 80.8901 224.004C80.6794 220.222 70.3018 223.235 70.3018 223.235Z" fill="url(#paint13_linear_1_2)"/>
<path d="M67.0723 211.14C67.0723 211.14 64.4595 211.946 65.2286 214.159C65.9977 216.371 77.8713 215.692 77.6606 211.91C77.4499 208.127 67.0723 211.14 67.0723 211.14Z" fill="url(#paint14_linear_1_2)"/>
<path d="M69.4953 218.973C69.4953 218.973 66.7772 219.816 67.5463 222.029C68.3154 224.241 80.6367 223.404 80.4682 219.611C80.2996 215.818 69.5006 218.973 69.5006 218.973H69.4953Z" fill="url(#paint15_linear_1_2)"/>
<path d="M68.5417 215.033C68.5417 215.033 65.8235 215.876 66.5926 218.088C67.3617 220.301 79.6831 219.463 79.5145 215.67C79.346 211.878 68.547 215.033 68.547 215.033H68.5417Z" fill="url(#paint16_linear_1_2)"/>
<path d="M105.517 127.651C102.145 123.953 101.924 114.639 104.758 111.595C108.072 108.039 114.193 108.571 117.232 110.504C120.066 112.306 122.01 116.557 122.416 117.689" fill="url(#paint17_linear_1_2)"/>
<path d="M89.3442 260.912L137.934 454.329L157.146 452.112L146.063 432.157L116.063 246.404L89.3442 260.912Z" fill="#F8AEA0"/>
<path opacity="0.2" d="M143.092 413.783L116.057 246.404L89.3442 260.917L128.489 416.733C133.346 415.695 138.219 414.721 143.092 413.783Z" fill="#201829"/>
<path d="M82.5229 250.734L76.9022 443.967L62.932 434.928L44.5474 241.8L82.5229 250.734Z" fill="#F8AEA0"/>
<path opacity="0.2" d="M77.7234 415.669L82.5171 250.739L44.5415 241.805L61.0719 415.474C66.6188 415.295 72.2449 415.579 77.7181 415.674L77.7234 415.669Z" fill="#201829"/>
<path d="M51.1157 148.739L54.898 197.761L115.646 189.712L97.9464 158.859L51.1157 148.739Z" fill="url(#paint18_linear_1_2)"/>
<path d="M80.8583 84.1976L77.8557 103.968L62.5264 104.384L80.7213 126.725L108.836 109.283L96.3351 105.759L97.9734 78.9246L80.8583 84.1976Z" fill="url(#paint19_linear_1_2)"/>
<path d="M87.6956 36.4663C87.6956 36.4663 65.3285 37.2723 61.5726 63.4111C57.8166 89.5499 76.9177 96.0135 89.297 93.8853C101.676 91.7571 109.873 78.3558 111.532 70.5753C113.197 62.7948 107.982 36.735 87.6903 36.4716L87.6956 36.4663Z" fill="url(#paint20_linear_1_2)"/>
<path d="M52.9126 168.251C52.9126 168.251 71.3973 175.837 103.863 170.258C103.863 170.258 133.131 196.997 137.566 230.991C140.679 254.848 154.534 404.464 154.534 404.464L110.532 407.804L70.3227 216.947L90.2719 234.683L84.3614 406.113L38.2998 409.722C38.2998 409.722 22.2909 256.85 52.9126 168.251Z" fill="#951A22"/>
<path d="M106.808 401.509L156.836 389.356L158.996 408.33L108.746 414.241L106.808 401.509Z" fill="#951A22"/>
<path opacity="0.2" d="M77.1546 228.767C62.8894 221.087 51.8903 211.773 43.6883 203.103C25.9569 291.828 38.2994 409.716 38.2994 409.716L84.361 406.108L87.9905 300.815L89.8816 309.786C82.6753 267.581 77.1546 228.767 77.1546 228.767Z" fill="#201829"/>
<path d="M35.313 390.42L88.3123 401.419L87.5274 412.471L37.083 412.124L35.313 390.42Z" fill="#951A22"/>
<path opacity="0.2" d="M101.455 164.974L97.9464 158.859L51.1157 148.739L52.6434 168.557C66.2185 169.668 85.5092 169.91 101.455 164.98V164.974Z" fill="#201829"/>
<path d="M62.4687 433.542L77.9876 437.419L79.6522 449.056L27.0059 450.995C27.0059 450.995 30.1402 445.453 62.4739 433.537L62.4687 433.542Z" fill="#951A22"/>
<path d="M27 451L79.6464 449.062L80.2048 452.939L27.5531 453.497L27 451Z" fill="#2B2238"/>
<path d="M57.9217 435.102C59.5863 436.73 60.6978 438.795 62.0148 440.686C62.1412 440.87 62.4467 440.696 62.315 440.512C60.977 438.595 59.855 436.503 58.164 434.854C58.006 434.696 57.7584 434.944 57.9164 435.102H57.9217Z" fill="#2B2238"/>
<path d="M54.619 436.081C56.2836 437.709 57.3951 439.774 58.712 441.67C58.8385 441.855 59.144 441.681 59.0123 441.497C57.6743 439.579 56.5522 437.488 54.8613 435.839C54.7033 435.681 54.4557 435.929 54.6137 436.087L54.619 436.081Z" fill="#2B2238"/>
<path d="M50.9945 437.319C52.6591 438.947 53.7706 441.012 55.0875 442.909C55.214 443.093 55.5195 442.919 55.3878 442.735C54.0498 440.817 52.9277 438.726 51.2368 437.077C51.0787 436.919 50.8312 437.167 50.9892 437.325L50.9945 437.319Z" fill="#2B2238"/>
<path d="M131.466 428.559L135.343 449.341C135.343 449.341 142.27 469.569 155.85 464.859C169.431 460.15 145.873 429.112 145.873 429.112C145.873 429.112 138.946 434.933 131.466 428.559Z" fill="#951A22"/>
<path d="M155.85 461.53C142.813 464.791 136.428 449.836 134.7 445.875L135.348 449.341C135.348 449.341 142.275 469.569 155.856 464.86C159.016 463.764 160.149 461.23 160.049 458.001C159.311 459.07 158.073 460.983 155.856 461.536L155.85 461.53Z" fill="#2B2238"/>
<path d="M139.473 434.612C141.433 433.353 143.687 432.726 145.831 431.862C146.037 431.778 145.947 431.44 145.736 431.525C143.566 432.399 141.28 433.031 139.299 434.311C139.11 434.433 139.283 434.733 139.473 434.612Z" fill="#2B2238"/>
<path d="M140.937 438.199C142.938 437.014 145.219 436.471 147.39 435.692C147.6 435.618 147.511 435.281 147.295 435.354C145.093 436.15 142.786 436.698 140.758 437.899C140.563 438.015 140.742 438.315 140.931 438.199H140.937Z" fill="#2B2238"/>
<path d="M143.003 441.639C144.915 440.285 147.159 439.558 149.271 438.594C149.477 438.499 149.298 438.199 149.097 438.294C146.985 439.258 144.741 439.985 142.829 441.338C142.65 441.465 142.823 441.77 143.003 441.639Z" fill="#2B2238"/>
<path d="M72.1764 104.078C72.1764 104.078 64.4169 102.414 58.3221 104.632C52.2272 106.849 46.7645 126.756 44.5468 135.069C42.329 143.381 49.6407 162.741 49.6407 162.741C49.6407 162.741 93.6321 172.159 112.475 162.741L115.404 137.329C115.404 137.329 112.385 115.715 111.379 108.509L103.762 106.844C103.762 106.844 74.3888 120.145 72.1711 104.073L72.1764 104.078Z" fill="#951A22"/>
<path d="M77.217 66.8497C77.8123 66.739 75.8052 61.8821 72.26 60.7654C67.9773 59.4168 66.634 63.2728 66.5813 64.0788C66.5286 64.8848 74.3461 67.387 77.2117 66.8497H77.217Z" fill="url(#paint21_linear_1_2)"/>
<path d="M68.5197 64.5323C68.4828 64.901 68.5302 65.254 68.6408 65.5858C68.6672 65.6596 72.9025 66.8185 72.9446 66.7816C73.4503 66.3602 73.7927 65.7491 73.8612 65.0485C73.9982 63.6104 72.913 62.3251 71.438 62.1828C69.963 62.0406 68.6566 63.0889 68.5197 64.5323Z" fill="url(#paint22_linear_1_2)"/>
<path style="mix-blend-mode:multiply" d="M69.4574 64.6216C69.3678 65.554 70.0737 66.3863 71.0324 66.4812C71.9912 66.576 72.834 65.8912 72.9236 64.9588C73.0131 64.0264 72.3072 63.194 71.3485 63.0992C70.3898 63.0044 69.5469 63.6892 69.4574 64.6216Z" fill="url(#paint23_linear_1_2)"/>
<path d="M77.1543 65.9016C77.1543 65.9016 75.9743 59.2537 72.0498 58.2949C68.1253 57.3309 66.8188 63.2098 66.8188 63.2098C66.8188 63.2098 68.0515 60.1755 71.8022 60.7392C75.5529 61.3081 77.149 65.9016 77.149 65.9016H77.1543Z" fill="url(#paint24_linear_1_2)"/>
<path d="M77.2433 66.1704L76.5269 66.9184C76.5269 66.9184 77.3276 67.0765 77.4329 66.8552C77.5383 66.634 77.2433 66.1704 77.2433 66.1704Z" fill="#D66C7C"/>
<path d="M75.9843 66.9445C75.9843 66.9445 72.8131 67.1236 70.1687 66.3176C67.5242 65.5116 66.7183 64.3053 66.7183 64.3053C66.7183 64.3053 70.8113 66.3597 75.9843 66.9445Z" fill="#D66C7C"/>
<path d="M70.4314 62.9461C70.5895 63.12 69.7888 63.0778 69.2198 62.7828C68.7089 62.5194 68.4876 62.1454 68.5403 62.0928C68.5982 62.0348 69.8151 62.2719 70.4314 62.9461Z" fill="white"/>
<path d="M70.8696 63.1414C71.1013 63.0835 71.3542 63.231 71.3542 63.3521C71.3542 63.4733 71.0592 63.5997 70.9328 63.5365C70.8063 63.4733 70.7379 63.173 70.8696 63.1414Z" fill="white"/>
<g style="mix-blend-mode:multiply" opacity="0.6">
<path d="M77.2436 66.1703C77.2436 66.1703 75.1312 62.6567 72.06 61.7453C68.9889 60.834 67.3032 62.4934 67.3032 62.4934C67.3032 62.4934 67.9564 60.2124 72.0284 60.9078C76.1004 61.6084 77.2436 66.1703 77.2436 66.1703Z" fill="#C978B1"/>
</g>
<path d="M77.2434 66.1705C77.2434 66.1705 75.7632 61.6613 71.549 60.9396C67.7877 60.2916 66.6868 63.5946 66.6868 63.5946C66.6868 63.5946 66.5709 60.6024 69.2364 60.1547C71.7755 59.7333 75.9054 61.4822 77.2434 66.1705Z" fill="#401432"/>
<path d="M88.9761 67.8567C88.3335 67.5617 91.9525 62.6311 96.272 62.3519C101.492 62.0147 101.935 66.7505 101.777 67.6829C101.614 68.61 92.0736 69.2685 88.9761 67.8567Z" fill="url(#paint25_linear_1_2)"/>
<path d="M96.1091 67.161C95.988 67.967 95.5297 68.6412 94.9028 69.0521C94.8132 69.1101 91.4313 68.5201 91.3576 68.42C90.9414 67.8616 90.7412 67.1399 90.8519 66.3919C91.0731 64.9116 92.4269 63.8897 93.8756 64.1004C95.3295 64.3111 96.3304 65.6807 96.1091 67.161Z" fill="url(#paint26_linear_1_2)"/>
<path style="mix-blend-mode:multiply" d="M95.1875 67.0241C95.0453 67.9829 94.1656 68.6466 93.2226 68.5096C92.2797 68.3727 91.6317 67.4824 91.774 66.5237C91.9162 65.5649 92.7959 64.9012 93.7389 65.0382C94.6818 65.1751 95.3297 66.0654 95.1875 67.0241Z" fill="url(#paint27_linear_1_2)"/>
<path d="M89.3081 66.7977C89.3081 66.7977 92.4899 59.6072 97.1993 59.6072C101.909 59.6072 101.751 66.6186 101.751 66.6186C101.751 66.6186 101.198 62.8416 96.7989 62.436C92.395 62.0356 89.3134 66.7925 89.3134 66.7925L89.3081 66.7977Z" fill="url(#paint28_linear_1_2)"/>
<path d="M89.1343 67.0823L89.7348 68.1306C89.7348 68.1306 88.7866 68.0832 88.7287 67.8092C88.6708 67.53 89.1291 67.0875 89.1291 67.0875L89.1343 67.0823Z" fill="#D66C7C"/>
<path d="M90.3457 68.3043C90.3457 68.3043 93.8804 69.3895 97.099 69.2156C100.318 69.0418 101.561 67.8987 101.561 67.8987C101.561 67.8987 96.3615 69.0892 90.3457 68.3043Z" fill="#D66C7C"/>
<path d="M92.2478 67.1188C92.0002 66.9924 91.6736 67.082 91.642 67.2242C91.6104 67.3612 91.9054 67.5877 92.0634 67.5508C92.2215 67.5139 92.3848 67.1926 92.2478 67.1188Z" fill="white"/>
<g style="mix-blend-mode:multiply" opacity="0.6">
<path d="M89.1342 67.082C89.1342 67.082 92.5003 63.6948 96.2299 63.5209C99.9595 63.3418 101.403 65.686 101.403 65.686C101.403 65.686 101.298 62.9204 96.4933 62.578C91.6891 62.2356 89.1289 67.082 89.1289 67.082H89.1342Z" fill="#C978B1"/>
</g>
<path d="M89.1348 67.082C89.1348 67.082 92.0637 62.3937 97.0312 62.7466C101.467 63.0627 101.793 67.1031 101.793 67.1031C101.793 67.1031 102.757 63.7475 99.8653 62.5043C97.1102 61.319 91.953 62.1513 89.1348 67.082Z" fill="#401432"/>
<path d="M76.4751 73.2089C76.4751 73.2089 76.5225 73.4355 77.3496 73.5671C78.1766 73.6988 78.8667 74.5206 80.2732 74.6892C81.6797 74.8578 82.4751 74.2204 83.3075 74.2888C84.1398 74.3573 84.3083 74.1571 84.3083 74.1571C84.498 73.6304 84.4822 73.093 84.3821 72.6189V72.6031C84.203 71.7761 83.7816 71.1598 83.7816 71.1598C81.922 69.964 79.7991 69.7111 77.7025 70.4275C77.7025 70.4275 77.3443 70.7489 77.0124 71.2651V71.2704C76.6911 71.7708 76.3961 72.4556 76.4804 73.2142L76.4751 73.2089Z" fill="url(#paint29_linear_1_2)"/>
<path d="M78.2979 73.9514C78.2979 73.9514 77.7237 73.3246 76.9072 73.4668L78.2979 73.9514Z" fill="#812852"/>
<path d="M83.7399 74.2941C83.7399 74.2941 82.9603 73.9569 82.0806 74.4995L83.7399 74.2941Z" fill="#812852"/>
<g style="mix-blend-mode:multiply" opacity="0.6">
<path d="M76.4755 73.2088C76.4755 73.2088 76.5229 73.4353 77.35 73.567C78.177 73.6987 78.8671 74.5205 80.2736 74.6891C81.6801 74.8576 82.4755 74.2202 83.3078 74.2887C84.1402 74.3572 84.3087 74.157 84.3087 74.157C84.4984 73.6302 84.4826 73.0929 84.3825 72.6188C84.3983 72.7558 84.4668 73.6355 84.1138 73.8041C83.724 73.9884 81.7012 73.6092 80.4158 73.4511C79.1358 73.2984 76.9549 73.035 76.7494 72.6662C76.5545 72.3133 76.9654 71.3545 77.0076 71.2703C76.6862 71.7707 76.3912 72.4555 76.4755 73.2141V73.2088Z" fill="#C978B1"/>
</g>
<path style="mix-blend-mode:multiply" opacity="0.6" d="M77.7026 70.4217C77.7026 70.4217 77.9871 71.8914 77.8133 72.8765C77.8133 72.8765 78.2716 71.9494 78.0082 70.3269L77.7026 70.427V70.4217Z" fill="url(#paint30_linear_1_2)"/>
<path style="mix-blend-mode:multiply" opacity="0.6" d="M83.7086 71.1489C83.7086 71.1489 83.0817 72.508 83.0132 73.5036C83.0132 73.5036 82.792 72.4975 83.4294 70.9803L83.7033 71.1489H83.7086Z" fill="url(#paint31_linear_1_2)"/>
<g style="mix-blend-mode:multiply" opacity="0.6">
<path d="M84.1189 73.7987C84.1189 73.7987 84.2875 74.0358 84.3138 74.1517C84.3401 74.2676 82.2646 75.8005 80.168 75.5477C78.0715 75.2948 76.4911 73.4247 76.4753 73.2087C76.4648 72.9875 76.8388 72.761 76.8388 72.761C76.8388 72.761 78.4455 73.214 80.4209 73.4511C82.3963 73.6881 84.1189 73.804 84.1189 73.804V73.7987Z" fill="#C978B1"/>
</g>
<path d="M78.8094 72.7663C79.1255 72.6346 78.6619 72.0762 78.5197 72.0815C78.3774 72.0815 78.2615 72.3923 78.3142 72.603C78.3669 72.8137 78.6777 72.819 78.8094 72.761V72.7663Z" fill="#FBC9B8"/>
<path d="M111.937 78.6243C111.69 79.1617 111.448 79.6358 111.205 80.0572L111.189 80.0783C109.451 83.0756 107.755 83.4865 106.812 84.8035C105.995 85.9413 103.335 87.9905 101.881 84.893L101.876 84.8825C101.876 84.8825 105.305 74.4206 106.538 72.6559C106.538 72.6559 108.34 70.001 110.484 70.0273C113.239 70.0642 114.103 73.8939 111.937 78.6243Z" fill="url(#paint32_linear_1_2)"/>
<path style="mix-blend-mode:multiply" opacity="0.6" d="M104.11 78.4138C104.11 78.4138 109.583 73.3936 111.638 73.4515C113.692 73.5095 111.548 78.3453 110.768 79.9415C109.989 81.5376 109.167 82.3963 109.167 82.3963C109.167 82.3963 110.12 80.5209 110.584 78.9301C111.253 76.6491 110.974 74.4946 110.105 74.4946C109.235 74.4946 107.46 77.1495 107.313 77.4656C107.165 77.7817 107.645 78.5139 107.197 80.2997C106.749 82.0907 105.443 83.8396 104.984 83.7132C104.526 83.5815 105.058 82.175 105.443 80.4946C105.827 78.8142 104.442 78.8405 103.615 79.7992L104.11 78.4138Z" fill="url(#paint33_linear_1_2)"/>
<path style="mix-blend-mode:multiply" opacity="0.6" d="M103.615 79.7939C103.615 79.7939 105.037 78.4401 105.506 79.3093C105.975 80.1785 105.058 82.0854 105.485 82.4384C105.917 82.7913 106.939 81.3111 107.155 79.7992C107.371 78.2821 107.086 76.8124 106.191 76.8703L104.115 78.4085L103.62 79.7939H103.615Z" fill="url(#paint34_linear_1_2)"/>
<path style="mix-blend-mode:multiply" d="M111.189 80.073C109.451 83.0704 107.754 83.4813 106.812 84.7982C105.995 85.9361 103.335 87.9852 101.881 84.8878C101.981 85.0195 102.95 86.2574 104.257 86.0941C105.637 85.9203 106.316 84.8246 107.064 84.0291C107.807 83.2284 109.335 82.9176 111.189 80.073Z" fill="url(#paint35_linear_1_2)"/>
<path d="M86.7783 33.0734C86.7783 33.0734 88.4798 27.6002 86.5307 24.5291C84.6396 21.5475 80.5834 20.3043 77.8494 21.3842C74.4991 22.7117 74.9258 26.5782 74.9258 26.5782C74.9258 26.5782 76.8169 25.2771 81.4631 25.8671C85.4298 26.3728 86.1409 29.9654 83.565 32.9786L86.7783 33.0734Z" fill="#3F313D"/>
<path d="M120.577 50.7733C116.71 58.9068 114.129 70.2536 114.129 70.2536C112.438 71.6654 109.815 75.1895 109.815 75.1895C108.666 71.7655 107.618 51.9164 107.618 51.9164C106.538 49.7514 99.0156 40.912 88.0744 39.574C77.1331 38.2359 71.5651 43.6618 71.5651 43.6618C69.0523 47.5178 66.055 59.1807 66.055 59.1807C64.8539 58.3853 64.2586 56.4625 64.2586 56.4625C63.3684 60.7031 60.9241 67.3405 60.9241 67.3405C59.7231 66.0815 58.5852 64.0271 58.5852 64.0271C59.7283 58.164 57.8267 40.2219 57.8267 40.2219C59.1383 37.0507 75.6213 30.1867 79.53 29.2754C81.1156 28.9067 82.5116 29.1859 83.6178 29.6442C85.235 30.3184 86.2148 31.3878 86.2148 31.3878C88.5643 29.4914 94.8487 30.4449 101.639 32.4519C104.052 33.1631 106.533 34.0112 108.919 34.912C118.032 38.3413 119.997 44.2307 119.997 44.2307C118.396 44.2096 115.235 42.2921 114.993 42.1447C118.822 44.7733 120.108 48.7505 120.461 50.2149C120.545 50.5731 120.582 50.7838 120.582 50.7838L120.577 50.7733Z" fill="#3F313D"/>
<g style="mix-blend-mode:multiply" opacity="0.9">
<path d="M120.576 50.7733C119.765 52.4801 119.012 54.3291 118.327 56.1886C115.746 63.1737 114.134 70.2483 114.134 70.2483C112.443 71.6601 109.82 75.1843 109.82 75.1843C109.103 73.0508 108.429 64.5591 108.018 58.4432C107.77 54.7347 107.623 51.9111 107.623 51.9111C106.543 49.7461 99.0206 40.9067 88.0793 39.5687C77.1381 38.2307 71.5701 43.6565 71.5701 43.6565C70.7483 44.9208 69.8738 47.0226 69.0679 49.2825C67.419 53.9076 66.0652 59.1754 66.0652 59.1754C64.8642 58.38 64.2689 56.4572 64.2689 56.4572C63.3786 60.6978 60.9344 67.3352 60.9344 67.3352C59.7333 66.0762 58.5955 64.0218 58.5955 64.0218C59.2065 60.8875 58.9484 54.3132 58.5744 48.8611C58.2478 44.1095 57.8369 40.2114 57.8369 40.2114C61.9563 39.0524 64.0793 39.8637 64.0793 39.8637C64.0793 39.8637 61.5138 41.9181 60.5604 43.2561C60.5604 43.2561 64.5639 44.236 66.7184 44.0094C66.7184 44.0094 68.7781 39.9269 71.0064 37.6143C73.851 34.6644 76.3058 34.0533 83.686 35.3544L86.2145 31.3773C88.564 29.4809 94.8485 30.4343 101.639 32.4414C106.58 36.6293 110.757 39.6951 112.664 56.9208C112.664 56.9208 116.141 52.8119 116.836 51.0472C116.836 51.0472 116.515 48.5081 116.51 47.0279C116.51 47.0279 119.065 47.9919 120.466 50.1991C120.55 50.5573 120.587 50.768 120.587 50.768L120.576 50.7733Z" fill="#3F313D"/>
</g>
<path d="M110.02 37.0561C108.93 33.4055 107.544 29.9709 106.143 28.8278C102.946 26.2149 94.77 24.9349 91.5936 25.9357C89.4285 26.6153 86.0887 31.4933 84.1818 34.5275L84.1344 34.6065C83.4074 35.7655 82.9017 36.6399 82.7542 36.8875L82.7279 36.9296L82.7121 36.9612L82.7384 36.9823C82.7226 36.9718 82.7068 36.9612 82.691 36.956C82.691 36.956 82.691 36.956 82.6857 36.956C81.0106 35.9656 78.8402 35.1175 76.5645 35.3967C71.6813 36.0025 70.87 40.3432 70.5751 41.2334C70.2801 42.1237 71.4916 52.6329 73.7094 54.9455C73.7094 54.9455 73.7937 54.7032 73.9412 54.287C74.6629 52.2379 76.8806 45.9955 77.7498 44.1518C79.3249 40.8225 85.8727 39.4002 85.8727 39.4002C93.4531 39.5951 96.8614 48.0289 97.5146 50.2466C97.641 50.6839 97.5989 51.3213 97.4356 52.064C96.8087 55.0456 94.375 59.7234 94.3012 59.8709C94.5751 59.8446 103.415 59.0175 106.048 57.611C108.724 56.1834 111.869 49.625 112.17 47.8076C112.338 46.7857 111.427 41.7497 110.026 37.0666L110.02 37.0561Z" fill="#3F313D"/>
<g style="mix-blend-mode:multiply" opacity="0.9">
<path d="M93.3579 27.4473C93.3579 27.4473 102.613 31.219 104.415 41.4333C106.217 51.6475 97.3035 57.8899 94.2903 59.86C94.2903 59.86 100.538 52.3113 101.649 45.1207C102.55 39.284 99.3843 31.514 93.3579 27.4473Z" fill="#3F313D"/>
</g>
<g style="mix-blend-mode:multiply" opacity="0.9">
<path d="M97.4299 52.0531C97.588 51.3104 97.6354 50.673 97.5089 50.2357C97.372 49.7669 97.1139 49.0241 96.7188 48.1444C95.2807 44.9258 92.0462 39.8529 86.3834 39.4157C86.2148 39.4051 86.0409 39.3946 85.8671 39.3893C85.8671 39.3893 79.3192 40.8064 77.7442 44.1409C76.8697 45.9846 74.6572 52.227 73.9355 54.2761C73.9355 54.2761 74.7363 43.4929 76.522 39.1312C78.213 34.996 82.2692 36.7502 82.6854 36.9451H82.6906C82.7117 36.9503 82.717 36.9556 82.717 36.9556L82.7328 36.924L84.134 34.6009L84.1814 34.5219C89.0383 30.9398 95.1964 35.3068 97.6406 40.7379C100.085 46.1743 97.4299 52.0478 97.4299 52.0478V52.0531Z" fill="#3F313D"/>
</g>
<g style="mix-blend-mode:multiply" opacity="0.9">
<path d="M112.164 47.7969C111.869 49.6143 108.719 56.1675 106.043 57.6003C103.409 59.0068 94.5693 59.8339 94.2954 59.8602C94.5219 59.7338 101.802 55.6196 105.547 50.3202C108.376 46.3114 109.983 37.2666 110.02 37.0559C111.421 41.739 112.332 46.775 112.164 47.7969Z" fill="#3F313D"/>
</g>
<g style="mix-blend-mode:multiply" opacity="0.9">
<path d="M96.7192 48.1446C95.2811 44.9259 92.0467 39.853 86.3838 39.4158C86.3838 39.4158 83.7183 35.486 88.0431 35.8969C92.368 36.3026 96.3926 42.8188 96.7192 48.1446Z" fill="#3F313D"/>
</g>
<g style="mix-blend-mode:multiply" opacity="0.9">
<path d="M69.0633 49.2878C67.4145 53.9129 66.0606 59.1807 66.0606 59.1807C64.8596 58.3852 64.2643 56.4625 64.2643 56.4625C63.3741 60.7031 60.9298 67.3405 60.9298 67.3405C59.7287 66.0815 58.5909 64.0271 58.5909 64.0271C59.202 60.8927 58.9438 54.3185 58.5698 48.8663C58.5698 48.8663 63.0158 53.8075 64.4645 54.0815C65.8868 54.3448 68.9527 49.4721 69.0685 49.2878H69.0633Z" fill="#3F313D"/>
</g>
<g style="mix-blend-mode:multiply" opacity="0.9">
<path d="M118.322 56.1941C115.741 63.1792 114.129 70.2539 114.129 70.2539C112.438 71.6656 109.815 75.1898 109.815 75.1898C109.098 73.0563 108.424 64.5646 108.013 58.4487C109.63 63.037 112.064 64.3539 113.476 64.1537C114.867 63.9588 118.217 56.4259 118.317 56.1888L118.322 56.1941Z" fill="#3F313D"/>
</g>
<g style="mix-blend-mode:multiply" opacity="0.6">
<path d="M75.6909 83.7075C75.6909 83.7075 77.5768 86.3941 80.0685 86.6101C82.5601 86.8261 84.7094 84.4819 84.7094 84.4819C84.7094 84.4819 80.021 85.7462 75.6909 83.7075Z" fill="#CE78B1"/>
</g>
<path d="M80.4904 81.6686C80.4904 81.6686 76.7924 81.1892 73.6738 82.6853C73.6738 82.6853 76.7133 84.6027 80.2164 84.903C83.7195 85.2033 87.0382 83.8336 87.0382 83.8336C84.22 81.8266 80.4956 81.6686 80.4956 81.6686H80.4904Z" fill="#EF7172"/>
<path d="M81.7486 80.067C81.1639 80.0143 80.6055 80.2883 80.6055 80.2883C80.6055 80.2883 80.105 79.9248 79.5203 79.8721C78.9356 79.8194 75.7749 80.5674 74.3315 82.4164C74.3315 82.4164 77.8346 81.4366 80.4843 81.6631C83.134 81.8897 86.4211 83.4542 86.4211 83.4542C85.3149 81.384 82.3281 80.1091 81.7433 80.0617L81.7486 80.067Z" fill="#DE4E6C"/>
<path d="M72.0197 80.6941C72.1356 80.8574 72.262 81.0207 72.3832 81.184C72.5044 81.3473 72.6308 81.5053 72.7625 81.6581C72.8942 81.8109 73.0206 81.9689 73.1628 82.1111C73.2998 82.2534 73.4473 82.3903 73.5948 82.4746C73.6317 82.4957 73.6633 82.5062 73.6844 82.5115C73.6896 82.5115 73.6844 82.5115 73.7002 82.5115H73.737H73.8055C73.8951 82.5115 73.9899 82.5009 74.0794 82.4799C74.2585 82.4483 74.4376 82.3798 74.622 82.3008C74.9855 82.1427 75.3648 81.9636 75.7599 81.8214C76.55 81.5264 77.3929 81.3947 78.2252 81.342C78.6413 81.3157 79.0575 81.3157 79.4737 81.3262C79.8898 81.3368 80.3007 81.3631 80.7116 81.4052C81.1225 81.4421 81.5334 81.5001 81.9443 81.5685C82.3551 81.637 82.766 81.716 83.1664 81.8319C83.9724 82.0532 84.7678 82.3693 85.4737 82.8276C85.8266 83.0488 86.1585 83.3017 86.4904 83.4755C86.6589 83.565 86.8275 83.623 87.0119 83.6493C87.0646 83.6599 87.0909 83.6599 87.1278 83.6599C87.1646 83.6599 87.2068 83.6546 87.2489 83.6441C87.3332 83.6283 87.4228 83.5966 87.5123 83.5598C87.8653 83.4123 88.2077 83.1858 88.5343 82.954C88.8609 82.7169 89.1822 82.4641 89.4877 82.2007L89.5615 82.2744C89.2823 82.58 88.9873 82.8644 88.6765 83.1383C88.3604 83.407 88.0338 83.6651 87.6493 83.8653C87.5492 83.9127 87.4491 83.9549 87.3332 83.9865C87.2753 84.0023 87.2173 84.0128 87.1541 84.0233C87.0909 84.0286 87.0171 84.0233 86.9645 84.0233C86.738 84.0023 86.5167 83.9391 86.3165 83.8495C86.1164 83.7599 85.932 83.6493 85.7529 83.544C85.579 83.4386 85.4052 83.3333 85.2314 83.2332C83.8565 82.4272 82.2551 82.1322 80.6536 81.9794C79.8529 81.9004 79.047 81.8635 78.2463 81.9004C77.8459 81.9162 77.4508 81.9478 77.0557 82.011C76.6659 82.0743 76.2814 82.1638 75.9021 82.2797C75.5228 82.3956 75.1593 82.5536 74.7642 82.7011C74.5641 82.7696 74.3534 82.8381 74.1321 82.8644C74.0215 82.8802 73.9056 82.8855 73.795 82.8802H73.7107L73.6685 82.8697C73.658 82.8697 73.6264 82.8697 73.6106 82.8592C73.5316 82.8381 73.4736 82.8065 73.421 82.7749C73.2208 82.6379 73.0838 82.4746 72.9469 82.3166C72.8152 82.1533 72.6887 81.9847 72.5728 81.8161C72.3411 81.4737 72.1304 81.1208 71.9302 80.7626L72.0197 80.7046V80.6941Z" fill="#AC334D"/>
<path d="M73.3946 79.9198C73.3946 79.9198 71.9617 80.3728 71.0293 81.753C71.0293 81.753 70.7133 80.7468 71.5192 80.0673C72.3252 79.3877 73.3893 79.9145 73.3893 79.9145L73.3946 79.9198Z" fill="#DC6B7D"/>
<path d="M87.8911 81.1157C87.8911 81.1157 89.324 81.4265 90.0983 83.186C90.0983 83.186 90.3933 82.2694 89.9192 81.5477C89.4451 80.8313 87.8911 81.1104 87.8911 81.1104V81.1157Z" fill="#DC6B7D"/>
<g style="mix-blend-mode:soft-light" opacity="0.5">
<path d="M85.0573 84.4398C85.0573 84.4398 85.0889 83.6707 84.3462 83.4547C83.988 83.3546 82.5499 83.8234 82.0705 83.9551C81.47 84.1184 81.8282 84.9349 81.8282 84.9349C81.8282 84.9349 83.1135 84.9613 85.0573 84.4398Z" fill="#FDF7BA"/>
</g>
<g style="mix-blend-mode:multiply" opacity="0.9">
<path d="M78.7876 57.3634C78.7876 57.3634 77.5286 56.6048 74.3099 56.0622C73.3565 55.8989 72.2292 55.7567 70.9122 55.6619C65.1545 55.2299 60.9824 55.7304 60.9824 55.7304C61.0298 55.6355 62.9368 53.3598 65.1071 52.5223C65.0913 52.5433 64.7805 52.9384 64.7542 53.3967C64.7542 53.3967 67.3038 51.9428 70.6067 51.6531C71.223 51.6004 71.8604 51.5846 72.5189 51.632C76.6857 51.9165 78.2292 55.2194 78.2292 55.2194C78.2292 55.2194 78.2292 54.4187 77.8604 53.8866C77.8604 53.8866 79.0878 54.9402 78.7981 57.3634H78.7876Z" fill="#010101"/>
<g style="mix-blend-mode:multiply" opacity="0.6">
<path d="M74.3099 56.0575C73.3565 55.8942 72.2292 55.7519 70.9122 55.6571C65.1545 55.2252 60.9824 55.7256 60.9824 55.7256C61.0298 55.6308 62.9368 53.3551 65.1071 52.5175C65.0913 52.5386 64.7805 52.9337 64.7542 53.392C64.7542 53.392 67.3038 51.938 70.6067 51.6483C69.4004 52.0539 66.7717 52.9916 65.0913 54.7352C65.0913 54.7352 68.3257 54.0715 74.3205 56.0575H74.3099Z" fill="#010101"/>
</g>
</g>
<g style="mix-blend-mode:multiply" opacity="0.9">
<path d="M91.8046 59.1071C91.8046 59.1071 93.2216 58.7068 96.4666 59.0281C97.4306 59.1229 98.5526 59.2862 99.8485 59.5338C105.517 60.6348 109.41 62.2151 109.41 62.2151C109.388 62.1098 108.145 59.4126 106.275 58.0325C106.286 58.0588 106.481 58.5171 106.386 58.9701C106.386 58.9701 104.31 56.8946 101.202 55.7463C100.623 55.5303 100.007 55.3512 99.3639 55.2195C95.2655 54.3977 92.9108 57.1738 92.9108 57.1738C92.9108 57.1738 93.1163 56.3995 93.6167 55.9833C93.6167 55.9833 92.1523 56.6787 91.7993 59.0913L91.8046 59.1071Z" fill="#010101"/>
<g style="mix-blend-mode:multiply" opacity="0.6">
<path d="M96.4667 59.0282C97.4307 59.123 98.5527 59.281 99.8486 59.5339C105.517 60.6349 109.41 62.2152 109.41 62.2152C109.389 62.1098 108.145 59.4127 106.275 58.0326C106.286 58.0589 106.481 58.5172 106.386 58.9702C106.386 58.9702 104.31 56.8947 101.202 55.7463C102.261 56.4575 104.547 58.0536 105.712 60.1766C105.712 60.1766 102.767 58.6858 96.4614 59.0229L96.4667 59.0282Z" fill="#010101"/>
</g>
</g>
<path d="M90 468C134.183 468 170 464.194 170 459.5C170 454.806 134.183 451 90 451C45.8172 451 10 454.806 10 459.5C10 464.194 45.8172 468 90 468Z" fill="black" fill-opacity="0.14"/>
<defs>
<linearGradient id="paint0_linear_1_2" x1="113.315" y1="159.995" x2="38.3189" y2="171.766" gradientUnits="userSpaceOnUse">
<stop stop-color="#F8A795"/>
<stop offset="0.43" stop-color="#F8A997"/>
<stop offset="0.52" stop-color="#F7A290"/>
<stop offset="0.76" stop-color="#F69684"/>
<stop offset="1" stop-color="#F69280"/>
</linearGradient>
<linearGradient id="paint1_linear_1_2" x1="112.33" y1="205.186" x2="97.3578" y2="207.536" gradientUnits="userSpaceOnUse">
<stop stop-color="#F8A795"/>
<stop offset="0.43" stop-color="#F8A997"/>
<stop offset="0.52" stop-color="#F7A290"/>
<stop offset="0.76" stop-color="#F69684"/>
<stop offset="1" stop-color="#F69280"/>
</linearGradient>
<linearGradient id="paint2_linear_1_2" x1="114.064" y1="195.684" x2="99.9556" y2="197.899" gradientUnits="userSpaceOnUse">
<stop stop-color="#F8A795"/>
<stop offset="0.43" stop-color="#F8A997"/>
<stop offset="0.52" stop-color="#F7A290"/>
<stop offset="0.76" stop-color="#F69684"/>
<stop offset="1" stop-color="#F69280"/>
</linearGradient>
<linearGradient id="paint3_linear_1_2" x1="115.003" y1="202.005" x2="108.18" y2="203.076" gradientUnits="userSpaceOnUse">
<stop stop-color="#F8A795"/>
<stop offset="0.43" stop-color="#F8A997"/>
<stop offset="0.52" stop-color="#F7A290"/>
<stop offset="0.76" stop-color="#F69684"/>
<stop offset="1" stop-color="#F69280"/>
</linearGradient>
<linearGradient id="paint4_linear_1_2" x1="118.626" y1="212.106" x2="106.204" y2="214.056" gradientUnits="userSpaceOnUse">
<stop stop-color="#F8A795"/>
<stop offset="0.43" stop-color="#F8A997"/>
<stop offset="0.52" stop-color="#F7A290"/>
<stop offset="0.76" stop-color="#F69684"/>
<stop offset="1" stop-color="#F69280"/>
</linearGradient>
<linearGradient id="paint5_linear_1_2" x1="119.945" y1="199.656" x2="107.517" y2="201.607" gradientUnits="userSpaceOnUse">
<stop stop-color="#F8A795"/>
<stop offset="0.43" stop-color="#F8A997"/>
<stop offset="0.52" stop-color="#F7A290"/>
<stop offset="0.76" stop-color="#F69684"/>
<stop offset="1" stop-color="#F69280"/>
</linearGradient>
<linearGradient id="paint6_linear_1_2" x1="118.856" y1="207.697" x2="105.955" y2="209.722" gradientUnits="userSpaceOnUse">
<stop stop-color="#F8A795"/>
<stop offset="0.43" stop-color="#F8A997"/>
<stop offset="0.52" stop-color="#F7A290"/>
<stop offset="0.76" stop-color="#F69684"/>
<stop offset="1" stop-color="#F69280"/>
</linearGradient>
<linearGradient id="paint7_linear_1_2" x1="119.187" y1="203.662" x2="106.286" y2="205.687" gradientUnits="userSpaceOnUse">
<stop stop-color="#F8A795"/>
<stop offset="0.43" stop-color="#F8A997"/>
<stop offset="0.52" stop-color="#F7A290"/>
<stop offset="0.76" stop-color="#F69684"/>
<stop offset="1" stop-color="#F69280"/>
</linearGradient>
<linearGradient id="paint8_linear_1_2" x1="68.0583" y1="112.256" x2="48.6731" y2="115.299" gradientUnits="userSpaceOnUse">
<stop stop-color="#F8A795"/>
<stop offset="0.43" stop-color="#F8A997"/>
<stop offset="0.52" stop-color="#F7A290"/>
<stop offset="0.76" stop-color="#F69684"/>
<stop offset="1" stop-color="#F69280"/>
</linearGradient>
<linearGradient id="paint9_linear_1_2" x1="65.4812" y1="172.501" x2="141.401" y2="172.501" gradientUnits="userSpaceOnUse">
<stop stop-color="#F8A795"/>
<stop offset="0.43" stop-color="#F8A997"/>
<stop offset="0.52" stop-color="#F7A290"/>
<stop offset="0.76" stop-color="#F69684"/>
<stop offset="1" stop-color="#F69280"/>
</linearGradient>
<linearGradient id="paint10_linear_1_2" x1="73.4673" y1="216.987" x2="88.6227" y2="216.987" gradientUnits="userSpaceOnUse">
<stop stop-color="#F8A795"/>
<stop offset="0.43" stop-color="#F8A997"/>
<stop offset="0.52" stop-color="#F7A290"/>
<stop offset="0.76" stop-color="#F69684"/>
<stop offset="1" stop-color="#F69280"/>
</linearGradient>
<linearGradient id="paint11_linear_1_2" x1="70.2809" y1="207.869" x2="84.5566" y2="207.869" gradientUnits="userSpaceOnUse">
<stop stop-color="#F8A795"/>
<stop offset="0.43" stop-color="#F8A997"/>
<stop offset="0.52" stop-color="#F7A290"/>
<stop offset="0.76" stop-color="#F69684"/>
<stop offset="1" stop-color="#F69280"/>
</linearGradient>
<linearGradient id="paint12_linear_1_2" x1="70.3329" y1="214.264" x2="77.239" y2="214.264" gradientUnits="userSpaceOnUse">
<stop stop-color="#F8A795"/>
<stop offset="0.43" stop-color="#F8A997"/>
<stop offset="0.52" stop-color="#F7A290"/>
<stop offset="0.76" stop-color="#F69684"/>
<stop offset="1" stop-color="#F69280"/>
</linearGradient>
<linearGradient id="paint13_linear_1_2" x1="68.3159" y1="224.799" x2="80.8954" y2="224.799" gradientUnits="userSpaceOnUse">
<stop stop-color="#F8A795"/>
<stop offset="0.43" stop-color="#F8A997"/>
<stop offset="0.52" stop-color="#F7A290"/>
<stop offset="0.76" stop-color="#F69684"/>
<stop offset="1" stop-color="#F69280"/>
</linearGradient>
<linearGradient id="paint14_linear_1_2" x1="65.0864" y1="212.71" x2="77.6606" y2="212.71" gradientUnits="userSpaceOnUse">
<stop stop-color="#F8A795"/>
<stop offset="0.43" stop-color="#F8A997"/>
<stop offset="0.52" stop-color="#F7A290"/>
<stop offset="0.76" stop-color="#F69684"/>
<stop offset="1" stop-color="#F69280"/>
</linearGradient>
<linearGradient id="paint15_linear_1_2" x1="67.4093" y1="220.485" x2="80.4682" y2="220.485" gradientUnits="userSpaceOnUse">
<stop stop-color="#F8A795"/>
<stop offset="0.43" stop-color="#F8A997"/>
<stop offset="0.52" stop-color="#F7A290"/>
<stop offset="0.76" stop-color="#F69684"/>
<stop offset="1" stop-color="#F69280"/>
</linearGradient>
<linearGradient id="paint16_linear_1_2" x1="66.4557" y1="216.55" x2="79.5145" y2="216.55" gradientUnits="userSpaceOnUse">
<stop stop-color="#F8A795"/>
<stop offset="0.43" stop-color="#F8A997"/>
<stop offset="0.52" stop-color="#F7A290"/>
<stop offset="0.76" stop-color="#F69684"/>
<stop offset="1" stop-color="#F69280"/>
</linearGradient>
<linearGradient id="paint17_linear_1_2" x1="102.793" y1="118.322" x2="122.416" y2="118.322" gradientUnits="userSpaceOnUse">
<stop stop-color="#F8A795"/>
<stop offset="0.43" stop-color="#F8A997"/>
<stop offset="0.52" stop-color="#F7A290"/>
<stop offset="0.76" stop-color="#F69684"/>
<stop offset="1" stop-color="#F69280"/>
</linearGradient>
<linearGradient id="paint18_linear_1_2" x1="51.1157" y1="173.25" x2="115.646" y2="173.25" gradientUnits="userSpaceOnUse">
<stop stop-color="#F8A795"/>
<stop offset="0.43" stop-color="#F8A997"/>
<stop offset="0.52" stop-color="#F7A290"/>
<stop offset="0.76" stop-color="#F69684"/>
<stop offset="1" stop-color="#F69280"/>
</linearGradient>
<linearGradient id="paint19_linear_1_2" x1="62.5264" y1="102.825" x2="108.836" y2="102.825" gradientUnits="userSpaceOnUse">
<stop stop-color="#F9AF9C"/>
<stop offset="0.2" stop-color="#F69B8E"/>
<stop offset="0.47" stop-color="#F48781"/>
<stop offset="0.73" stop-color="#F37B79"/>
<stop offset="1" stop-color="#F37777"/>
</linearGradient>
<linearGradient id="paint20_linear_1_2" x1="61.0879" y1="65.3602" x2="111.822" y2="65.3602" gradientUnits="userSpaceOnUse">
<stop stop-color="#F8A795"/>
<stop offset="0.43" stop-color="#F8A997"/>
<stop offset="0.52" stop-color="#F7A290"/>
<stop offset="0.76" stop-color="#F69684"/>
<stop offset="1" stop-color="#F69280"/>
</linearGradient>
<linearGradient id="paint21_linear_1_2" x1="71.9551" y1="66.8496" x2="72.0198" y2="60.4654" gradientUnits="userSpaceOnUse">
<stop stop-color="#E6DBEC"/>
<stop offset="1" stop-color="#B8C1E2"/>
</linearGradient>
<linearGradient id="paint22_linear_1_2" x1="70.992" y1="66.8074" x2="71.4145" y2="62.3875" gradientUnits="userSpaceOnUse">
<stop stop-color="#57345B"/>
<stop offset="1" stop-color="#301138"/>
</linearGradient>
<linearGradient id="paint23_linear_1_2" x1="71.0036" y1="66.6864" x2="71.327" y2="63.3035" gradientUnits="userSpaceOnUse">
<stop stop-color="#A093B6"/>
<stop offset="0.99" stop-color="#734B61"/>
</linearGradient>
<linearGradient id="paint24_linear_1_2" x1="77.497" y1="62.3084" x2="67.0039" y2="61.3054" gradientUnits="userSpaceOnUse">
<stop stop-color="#F7A190"/>
<stop offset="0.43" stop-color="#F3A592"/>
<stop offset="0.51" stop-color="#F39F8D"/>
<stop offset="0.76" stop-color="#F49383"/>
<stop offset="1" stop-color="#F58F80"/>
</linearGradient>
<linearGradient id="paint25_linear_1_2" x1="94.9491" y1="69.3516" x2="96.6514" y2="62.1109" gradientUnits="userSpaceOnUse">
<stop stop-color="#E6DBEC"/>
<stop offset="1" stop-color="#B8C1E2"/>
</linearGradient>
<linearGradient id="paint26_linear_1_2" x1="93.1834" y1="68.8214" x2="93.8765" y2="64.0994" gradientUnits="userSpaceOnUse">
<stop stop-color="#57345B"/>
<stop offset="1" stop-color="#301138"/>
</linearGradient>
<linearGradient id="paint27_linear_1_2" x1="93.2295" y1="68.5088" x2="93.739" y2="65.0376" gradientUnits="userSpaceOnUse">
<stop stop-color="#A093B6"/>
<stop offset="0.99" stop-color="#734B61"/>
</linearGradient>
<linearGradient id="paint28_linear_1_2" x1="89.9198" y1="62.6883" x2="102.074" y2="64.4722" gradientUnits="userSpaceOnUse">
<stop stop-color="#F7A190"/>
<stop offset="0.43" stop-color="#F3A592"/>
<stop offset="0.51" stop-color="#F39F8D"/>
<stop offset="0.76" stop-color="#F49383"/>
<stop offset="1" stop-color="#F58F80"/>
</linearGradient>
<linearGradient id="paint29_linear_1_2" x1="80.2652" y1="74.6451" x2="80.8226" y2="70.0325" gradientUnits="userSpaceOnUse">
<stop stop-color="#F37B7F"/>
<stop offset="0.4" stop-color="#F3817F"/>
<stop offset="1" stop-color="#F48680"/>
</linearGradient>
<linearGradient id="paint30_linear_1_2" x1="77.6685" y1="72.8185" x2="77.9749" y2="70.2821" gradientUnits="userSpaceOnUse">
<stop stop-color="#FBE3D4"/>
<stop offset="0.99" stop-color="#AE7CB7"/>
</linearGradient>
<linearGradient id="paint31_linear_1_2" x1="83.1469" y1="73.4725" x2="83.4534" y2="70.9361" gradientUnits="userSpaceOnUse">
<stop stop-color="#FBE3D4"/>
<stop offset="0.99" stop-color="#AE7CB7"/>
</linearGradient>
<linearGradient id="paint32_linear_1_2" x1="104.658" y1="92.1353" x2="108.875" y2="73.7489" gradientUnits="userSpaceOnUse">
<stop stop-color="#F7A190"/>
<stop offset="0.43" stop-color="#F3A592"/>
<stop offset="0.51" stop-color="#F39F8D"/>
<stop offset="0.76" stop-color="#F49383"/>
<stop offset="1" stop-color="#F58F80"/>
</linearGradient>
<linearGradient id="paint33_linear_1_2" x1="105.761" y1="87.3514" x2="108.663" y2="74.7001" gradientUnits="userSpaceOnUse">
<stop stop-color="#F7A190"/>
<stop offset="0.43" stop-color="#F3A592"/>
<stop offset="0.51" stop-color="#F39F8D"/>
<stop offset="0.76" stop-color="#F49383"/>
<stop offset="1" stop-color="#F58F80"/>
</linearGradient>
<linearGradient id="paint34_linear_1_2" x1="104.804" y1="82.2406" x2="106.065" y2="76.7416" gradientUnits="userSpaceOnUse">
<stop stop-color="#F7A190"/>
<stop offset="0.43" stop-color="#F3A592"/>
<stop offset="0.51" stop-color="#F39F8D"/>
<stop offset="0.76" stop-color="#F49383"/>
<stop offset="1" stop-color="#F58F80"/>
</linearGradient>
<linearGradient id="paint35_linear_1_2" x1="110.285" y1="83.8908" x2="102.491" y2="82.1029" gradientUnits="userSpaceOnUse">
<stop stop-color="#F7A190"/>
<stop offset="0.43" stop-color="#F3A592"/>
<stop offset="0.51" stop-color="#F39F8D"/>
<stop offset="0.76" stop-color="#F49383"/>
<stop offset="1" stop-color="#F58F80"/>
</linearGradient>
</defs>
</svg>
